disorientationsans.glyphspackage
{
glyphname = hyphen;
layers = (
{
layerId = m01;
shapes = (
{
closed = 1;
nodes = (
(129,218,l),
(471,218,l),
(471,298,l),
(129,298,l)
);
}
);
width = 600;
},
{
layerId = m002;
shapes = (
{
closed = 1;
nodes = (
(129,218,l),
(471,218,l),
(471,298,l),
(129,298,l)
);
}
);
width = 600;
},
{
layerId = m003;
shapes = (
{
closed = 1;
nodes = (
(129,218,l),
(471,218,l),
(471,298,l),
(129,298,l)
);
}
);
width = 600;
}
);
unicode = 45;
}
{
export = 0;
glyphname = period;
layers = (
{
layerId = m01;
shapes = (
{
closed = 1;
nodes = (
(108,0,o),
(130,26,o),
(130,63,cs),
(130,100,o),
(108,125,o),
(71,125,cs),
(34,125,o),
(10,100,o),
(10,63,cs),
(10,26,o),
(34,0,o),
(71,0,cs)
);
}
);
width = 140;
},
{
layerId = m002;
shapes = (
{
closed = 1;
nodes = (
(108,0,o),
(130,26,o),
(130,63,cs),
(130,100,o),
(108,125,o),
(71,125,cs),
(34,125,o),
(10,100,o),
(10,63,cs),
(10,26,o),
(34,0,o),
(71,0,cs)
);
}
);
width = 140;
},
{
layerId = m003;
shapes = (
{
closed = 1;
nodes = (
(108,0,o),
(130,26,o),
(130,63,cs),
(130,100,o),
(108,125,o),
(71,125,cs),
(34,125,o),
(10,100,o),
(10,63,cs),
(10,26,o),
(34,0,o),
(71,0,cs)
);
}
);
width = 140;
}
);
metricLeft = "=10";
metricRight = "=10";
unicode = 46;
}
{
glyphname = zero;
kernLeft = "0";
kernRight = "0";
layers = (
{
layerId = m01;
shapes = (
{
closed = 1;
nodes = (
(517,-8,o),
(601,135,o),
(601,350,cs),
(601,565,o),
(517,708,o),
(322,708,cs),
(127,708,o),
(50,565,o),
(50,350,cs),
(50,135,o),
(127,-8,o),
(322,-8,cs)
);
},
{
closed = 1;
nodes = (
(182,82,o),
(155,185,o),
(155,350,cs),
(155,515,o),
(182,618,o),
(322,618,cs),
(462,618,o),
(496,515,o),
(496,350,cs),
(496,185,o),
(462,82,o),
(322,82,cs)
);
}
);
width = 651;
},
{
layerId = m002;
shapes = (
{
closed = 1;
nodes = (
(517,-281,o),
(601,-199,o),
(601,16,cs),
(601,231,o),
(517,435,o),
(322,577,cs),
(127,719,o),
(50,632,o),
(50,417,cs),
(50,202,o),
(127,3,o),
(322,-139,cs)
);
},
{
closed = 1;
nodes = (
(182,53,o),
(155,175,o),
(155,340,cs),
(155,505,o),
(182,589,o),
(322,487,cs),
(462,385,o),
(496,258,o),
(496,93,cs),
(496,-72,o),
(462,-151,o),
(322,-49,cs)
);
}
);
width = 651;
},
{
layerId = m003;
shapes = (
{
closed = 1;
nodes = (
(517,-208,o),
(601,-65,o),
(601,150,cs),
(601,365,o),
(517,508,o),
(322,508,cs),
(127,508,o),
(50,365,o),
(50,150,cs),
(50,-65,o),
(127,-208,o),
(322,-208,cs)
);
},
{
closed = 1;
nodes = (
(182,-118,o),
(155,-15,o),
(155,150,cs),
(155,315,o),
(182,418,o),
(322,418,cs),
(462,418,o),
(496,315,o),
(496,150,cs),
(496,-15,o),
(462,-118,o),
(322,-118,cs)
);
}
);
width = 651;
}
);
metricLeft = "=O";
metricRight = "=O";
unicode = 48;
}
{
glyphname = one;
layers = (
{
layerId = m01;
shapes = (
{
closed = 1;
nodes = (
(220,600,o),
(195,575,o),
(25,575,c),
(25,495,l),
(210,495,l),
(210,0,l),
(310,0,l),
(310,700,l),
(220,700,l)
);
}
);
width = 335;
},
{
associatedMasterId = m01;
layerId = "0D482BEB-FDBB-4265-996C-E1DFBC35C223";
name = "26. Jul 23, 16:07";
shapes = (
{
closed = 1;
nodes = (
(225,0,l),
(325,0,l),
(325,700,l),
(225,700,l)
);
},
{
closed = 1;
nodes = (
(40,575,l),
(40,475,l),
(280,475,l),
(280,575,l)
);
}
);
width = 325;
},
{
layerId = m002;
shapes = (
{
closed = 1;
nodes = (
(238,513,o),
(213,506,o),
(43,625,c),
(43,545,l),
(228,415,l),
(228,-140,l),
(328,-210,l),
(328,550,l),
(238,613,l)
);
}
);
width = 371;
},
{
associatedMasterId = m002;
layerId = "D1C66666-79EF-4039-AB71-A7A8A61C0277";
name = "26. Jul 23, 16:07";
shapes = (
{
closed = 1;
nodes = (
(225,0,l),
(325,0,l),
(325,700,l),
(225,700,l)
);
},
{
closed = 1;
nodes = (
(40,575,l),
(40,475,l),
(280,475,l),
(280,575,l)
);
}
);
width = 325;
},
{
layerId = m003;
shapes = (
{
closed = 1;
nodes = (
(225,390,o),
(200,365,o),
(30,365,c),
(30,285,l),
(215,285,l),
(215,-210,l),
(315,-210,l),
(315,490,l),
(225,490,l)
);
}
);
width = 345;
},
{
associatedMasterId = m003;
layerId = "0D960B4E-78FD-4D80-9E8C-A978903E003E";
name = "26. Jul 23, 16:07";
shapes = (
{
closed = 1;
nodes = (
(225,0,l),
(325,0,l),
(325,700,l),
(225,700,l)
);
},
{
closed = 1;
nodes = (
(40,575,l),
(40,475,l),
(280,475,l),
(280,575,l)
);
}
);
width = 325;
}
);
metricLeft = "=O";
metricRight = "=O";
unicode = 49;
}
{
glyphname = two;
layers = (
{
layerId = m01;
shapes = (
{
closed = 1;
nodes = (
(409,244,o),
(509,376,o),
(509,524,cs),
(509,670,o),
(412,708,o),
(272,708,cs),
(132,708,o),
(34,622,o),
(34,467,c),
(134,462,l),
(134,572,o),
(182,618,o),
(272,618,cs),
(362,618,o),
(409,579,o),
(409,519,cs),
(409,415,o),
(248,245,o),
(25,90,c),
(26,0,l),
(538,0,l),
(538,90,l),
(158,90,l)
);
}
);
width = 563;
},
{
layerId = m002;
shapes = (
{
closed = 1;
nodes = (
(427,75,o),
(527,137,o),
(527,285,cs),
(527,431,o),
(430,537,o),
(290,635,cs),
(150,733,o),
(52,715,o),
(52,560,c),
(152,485,l),
(152,595,o),
(200,608,o),
(290,545,cs),
(380,482,o),
(427,410,o),
(427,350,cs),
(427,246,o),
(266,188,o),
(43,190,c),
(44,99,l),
(556,-210,l),
(556,-120,l),
(176,96,l)
);
}
);
width = 599;
},
{
layerId = m003;
shapes = (
{
closed = 1;
nodes = (
(414,43,o),
(514,175,o),
(514,323,cs),
(514,469,o),
(417,507,o),
(277,507,cs),
(137,507,o),
(39,421,o),
(39,266,c),
(139,261,l),
(139,371,o),
(187,417,o),
(277,417,cs),
(367,417,o),
(414,378,o),
(414,318,cs),
(414,214,o),
(253,44,o),
(30,-111,c),
(31,-201,l),
(543,-201,l),
(543,-111,l),
(163,-111,l)
);
}
);
width = 573;
}
);
metricLeft = "=O";
metricRight = "=O";
unicode = 50;
}
{
glyphname = three;
layers = (
{
layerId = m01;
shapes = (
{
closed = 1;
nodes = (
(54,288,l),
(46,250,o),
(44,225,o),
(44,207,cs),
(44,92,o),
(130,-8,o),
(320,-8,cs),
(510,-8,o),
(595,92,o),
(595,207,cs),
(595,297,o),
(538,347,o),
(467,379,c),
(518,413,o),
(557,463,o),
(557,524,cs),
(557,629,o),
(460,708,o),
(320,708,cs),
(180,708,o),
(82,629,o),
(82,524,cs),
(82,507,l),
(182,500,l),
(182,519,ls),
(182,579,o),
(230,618,o),
(320,618,cs),
(410,618,o),
(457,579,o),
(457,519,cs),
(457,459,o),
(410,420,o),
(320,420,cs),
(289,420,l),
(289,330,l),
(320,330,ls),
(420,330,o),
(490,302,o),
(490,207,cs),
(490,112,o),
(420,82,o),
(320,82,cs),
(220,82,o),
(149,112,o),
(149,207,cs),
(149,232,o),
(154,256,o),
(159,272,c)
);
}
);
width = 639;
},
{
associatedMasterId = m01;
layerId = "E6CF2B27-1C4E-4EA8-91B3-FE890CB0E394";
name = "26. Jul 23, 17:27";
shapes = (
{
closed = 1;
nodes = (
(32,283,l),
(24,245,o),
(22,220,o),
(22,202,cs),
(22,87,o),
(108,-13,o),
(298,-13,cs),
(488,-13,o),
(573,87,o),
(573,202,cs),
(573,292,o),
(516,347,o),
(445,379,c),
(496,413,o),
(535,463,o),
(535,524,cs),
(535,629,o),
(438,708,o),
(298,708,cs),
(158,708,o),
(60,629,o),
(60,524,cs),
(60,507,l),
(160,500,l),
(160,519,ls),
(160,579,o),
(208,618,o),
(298,618,cs),
(388,618,o),
(435,579,o),
(435,519,cs),
(435,459,o),
(388,420,o),
(298,420,cs),
(267,420,l),
(267,330,l),
(298,330,ls),
(398,330,o),
(468,297,o),
(468,202,cs),
(468,107,o),
(398,77,o),
(298,77,cs),
(198,77,o),
(127,107,o),
(127,202,cs),
(127,227,o),
(132,251,o),
(137,267,c)
);
}
);
width = 600;
},
{
layerId = m002;
shapes = (
{
closed = 1;
nodes = (
(33,354,l),
(25,322,o),
(23,298,o),
(23,280,cs),
(23,165,o),
(109,5,o),
(299,-128,cs),
(489,-261,o),
(574,-221,o),
(574,-106,cs),
(574,-16,o),
(517,74,o),
(446,156,c),
(497,154,o),
(536,177,o),
(536,238,cs),
(536,343,o),
(439,490,o),
(299,588,cs),
(159,686,o),
(61,675,o),
(61,570,cs),
(61,553,l),
(161,476,l),
(161,495,ls),
(161,555,o),
(209,561,o),
(299,498,cs),
(389,435,o),
(436,363,o),
(436,303,cs),
(436,243,o),
(389,237,o),
(299,300,cs),
(268,321,l),
(268,231,l),
(299,210,ls),
(399,140,o),
(469,63,o),
(469,-32,cs),
(469,-127,o),
(399,-108,o),
(299,-38,cs),
(199,32,o),
(128,111,o),
(128,206,cs),
(128,231,o),
(133,252,o),
(138,264,c)
);
}
);
width = 596;
},
{
associatedMasterId = m002;
layerId = "007E8ABB-6918-4406-A4A4-B48397F85661";
name = "26. Jul 23, 17:27";
shapes = (
{
closed = 1;
nodes = (
(32,283,l),
(24,245,o),
(22,220,o),
(22,202,cs),
(22,87,o),
(108,-13,o),
(298,-13,cs),
(488,-13,o),
(573,87,o),
(573,202,cs),
(573,292,o),
(516,347,o),
(445,379,c),
(496,413,o),
(535,463,o),
(535,524,cs),
(535,629,o),
(438,708,o),
(298,708,cs),
(158,708,o),
(60,629,o),
(60,524,cs),
(60,507,l),
(160,500,l),
(160,519,ls),
(160,579,o),
(208,618,o),
(298,618,cs),
(388,618,o),
(435,579,o),
(435,519,cs),
(435,459,o),
(388,420,o),
(298,420,cs),
(267,420,l),
(267,330,l),
(298,330,ls),
(398,330,o),
(468,297,o),
(468,202,cs),
(468,107,o),
(398,77,o),
(298,77,cs),
(198,77,o),
(127,107,o),
(127,202,cs),
(127,227,o),
(132,251,o),
(137,267,c)
);
}
);
width = 600;
},
{
layerId = m003;
shapes = (
{
closed = 1;
nodes = (
(62,78,l),
(54,40,o),
(52,15,o),
(52,-3,cs),
(52,-118,o),
(138,-218,o),
(328,-218,cs),
(518,-218,o),
(603,-118,o),
(603,-3,cs),
(603,87,o),
(546,137,o),
(475,169,c),
(526,203,o),
(565,253,o),
(565,314,cs),
(565,419,o),
(468,498,o),
(328,498,cs),
(188,498,o),
(90,419,o),
(90,314,cs),
(90,297,l),
(190,290,l),
(190,309,ls),
(190,369,o),
(238,408,o),
(328,408,cs),
(418,408,o),
(465,369,o),
(465,309,cs),
(465,249,o),
(418,210,o),
(328,210,cs),
(297,210,l),
(297,120,l),
(328,120,ls),
(428,120,o),
(498,92,o),
(498,-3,cs),
(498,-98,o),
(428,-128,o),
(328,-128,cs),
(228,-128,o),
(157,-98,o),
(157,-3,cs),
(157,22,o),
(162,46,o),
(167,62,c)
);
}
);
width = 660;
},
{
associatedMasterId = m003;
layerId = "2F9CB055-834B-4FB6-80FF-E600A9A2BDC0";
name = "26. Jul 23, 17:27";
shapes = (
{
closed = 1;
nodes = (
(32,283,l),
(24,245,o),
(22,220,o),
(22,202,cs),
(22,87,o),
(108,-13,o),
(298,-13,cs),
(488,-13,o),
(573,87,o),
(573,202,cs),
(573,292,o),
(516,347,o),
(445,379,c),
(496,413,o),
(535,463,o),
(535,524,cs),
(535,629,o),
(438,708,o),
(298,708,cs),
(158,708,o),
(60,629,o),
(60,524,cs),
(60,507,l),
(160,500,l),
(160,519,ls),
(160,579,o),
(208,618,o),
(298,618,cs),
(388,618,o),
(435,579,o),
(435,519,cs),
(435,459,o),
(388,420,o),
(298,420,cs),
(267,420,l),
(267,330,l),
(298,330,ls),
(398,330,o),
(468,297,o),
(468,202,cs),
(468,107,o),
(398,77,o),
(298,77,cs),
(198,77,o),
(127,107,o),
(127,202,cs),
(127,227,o),
(132,251,o),
(137,267,c)
);
}
);
width = 600;
}
);
unicode = 51;
}
{
glyphname = four;
layers = (
{
layerId = m01;
shapes = (
{
closed = 1;
nodes = (
(42,176,l),
(385,176,l),
(385,0,l),
(490,0,l),
(490,176,l),
(602,176,l),
(602,266,l),
(490,266,l),
(490,700,l),
(314,700,l),
(42,266,l)
);
},
{
closed = 1;
nodes = (
(385,624,l),
(385,266,l),
(158,266,l)
);
}
);
width = 642;
},
{
associatedMasterId = m01;
layerId = "D939D680-35F1-4778-8DFA-DEC5A1F0792C";
name = "26. Jul 23, 19:58";
shapes = (
{
closed = 1;
nodes = (
(148,286,l),
(399,700,l),
(294,700,l),
(32,286,l)
);
},
{
closed = 1;
nodes = (
(582,196,l),
(582,286,l),
(32,286,l),
(32,196,l)
);
},
{
closed = 1;
nodes = (
(470,0,l),
(470,700,l),
(365,700,l),
(365,0,l)
);
}
);
width = 600;
},
{
layerId = m002;
shapes = (
{
closed = 1;
nodes = (
(19,282,l),
(362,42,l),
(362,-134,l),
(467,-208,l),
(467,-32,l),
(579,-110,l),
(579,-20,l),
(467,58,l),
(467,492,l),
(291,616,l),
(19,372,l)
);
},
{
closed = 1;
nodes = (
(362,490,l),
(362,132,l),
(135,291,l)
);
}
);
width = 598;
},
{
associatedMasterId = m002;
layerId = "FBBDE891-2759-4F1E-A009-91B5FF9EC1D3";
name = "26. Jul 23, 19:58";
shapes = (
{
closed = 1;
nodes = (
(148,286,l),
(399,700,l),
(294,700,l),
(32,286,l)
);
},
{
closed = 1;
nodes = (
(582,196,l),
(582,286,l),
(32,286,l),
(32,196,l)
);
},
{
closed = 1;
nodes = (
(470,0,l),
(470,700,l),
(365,700,l),
(365,0,l)
);
}
);
width = 600;
},
{
layerId = m003;
shapes = (
{
closed = 1;
nodes = (
(52,-25,l),
(395,-25,l),
(395,-201,l),
(500,-201,l),
(500,-25,l),
(612,-25,l),
(612,65,l),
(500,65,l),
(500,499,l),
(324,499,l),
(52,65,l)
);
},
{
closed = 1;
nodes = (
(395,423,l),
(395,65,l),
(168,65,l)
);
}
);
width = 660;
},
{
associatedMasterId = m003;
layerId = "1ABAEA3A-A099-4E4D-8113-56B8DAF90DF7";
name = "26. Jul 23, 19:58";
shapes = (
{
closed = 1;
nodes = (
(148,286,l),
(399,700,l),
(294,700,l),
(32,286,l)
);
},
{
closed = 1;
nodes = (
(582,196,l),
(582,286,l),
(32,286,l),
(32,196,l)
);
},
{
closed = 1;
nodes = (
(470,0,l),
(470,700,l),
(365,700,l),
(365,0,l)
);
}
);
width = 600;
}
);
unicode = 52;
}
{
glyphname = five;
layers = (
{
layerId = m01;
shapes = (
{
closed = 1;
nodes = (
);
},
{
closed = 1;
nodes = (
(75,415,l),
(156,343,l),
(194,610,l),
(532,610,l),
(532,700,l),
(116,700,l)
);
},
{
closed = 1;
nodes = (
(248,464,o),
(196,447,o),
(138,404,c),
(156,343,l),
(206,373,o),
(256,374,o),
(306,374,cs),
(446,374,o),
(476,302,o),
(476,207,cs),
(476,112,o),
(406,82,o),
(306,82,cs),
(206,82,o),
(145,122,o),
(145,217,c),
(40,227,l),
(40,112,o),
(116,-8,o),
(306,-8,cs),
(496,-8,o),
(581,92,o),
(581,207,cs),
(581,342,o),
(517,464,o),
(306,464,c)
);
}
);
width = 627;
},
{
associatedMasterId = m01;
layerId = "BBEEE38F-9637-43FE-81C5-B650A1D3FA28";
name = "26. Jul 23, 18:50";
shapes = (
{
closed = 1;
nodes = (
(534,465,o),
(298,462,cs),
(235,461,o),
(176,444,o),
(135,396,c),
(176,335,l),
(203,359,o),
(251,371,o),
(298,372,cs),
(411,374,o),
(470,283,o),
(470,205,cs),
(470,118,o),
(398,84,o),
(298,84,cs),
(198,84,o),
(151,124,o),
(151,204,c),
(51,197,l),
(51,83,o),
(108,-6,o),
(298,-6,cs),
(488,-6,o),
(570,85,o),
(570,200,cs),
(570,290,o)
);
},
{
closed = 1;
nodes = (
(78,363,l),
(176,335,l),
(206,610,l),
(524,610,l),
(524,700,l),
(116,700,l)
);
}
);
width = 600;
},
{
layerId = m002;
shapes = (
{
closed = 1;
nodes = (
);
},
{
closed = 1;
nodes = (
(54,460,l),
(135,331,l),
(173,572,l),
(511,335,l),
(511,425,l),
(95,716,l)
);
},
{
closed = 1;
nodes = (
(227,388,o),
(175,407,o),
(117,405,c),
(135,331,l),
(185,326,o),
(235,292,o),
(285,257,cs),
(425,159,o),
(455,66,o),
(455,-29,cs),
(455,-124,o),
(385,-105,o),
(285,-35,cs),
(185,35,o),
(124,118,o),
(124,213,c),
(19,296,l),
(19,181,o),
(95,8,o),
(285,-125,cs),
(475,-258,o),
(560,-217,o),
(560,-102,cs),
(560,33,o),
(496,199,o),
(285,347,c)
);
}
);
width = 582;
},
{
associatedMasterId = m002;
layerId = "5A784614-E7C1-4636-AE9A-B474248EDB22";
name = "26. Jul 23, 18:50";
shapes = (
{
closed = 1;
nodes = (
(534,465,o),
(298,462,cs),
(235,461,o),
(176,444,o),
(135,396,c),
(176,335,l),
(203,359,o),
(251,371,o),
(298,372,cs),
(411,374,o),
(470,283,o),
(470,205,cs),
(470,118,o),
(398,84,o),
(298,84,cs),
(198,84,o),
(151,124,o),
(151,204,c),
(51,197,l),
(51,83,o),
(108,-6,o),
(298,-6,cs),
(488,-6,o),
(570,85,o),
(570,200,cs),
(570,290,o)
);
},
{
closed = 1;
nodes = (
(78,363,l),
(176,335,l),
(206,610,l),
(524,610,l),
(524,700,l),
(116,700,l)
);
}
);
width = 600;
},
{
layerId = m003;
shapes = (
{
closed = 1;
nodes = (
);
},
{
closed = 1;
nodes = (
(97,205,l),
(178,133,l),
(216,400,l),
(554,400,l),
(554,490,l),
(138,490,l)
);
},
{
closed = 1;
nodes = (
(270,254,o),
(218,237,o),
(160,194,c),
(178,133,l),
(228,163,o),
(278,164,o),
(328,164,cs),
(468,164,o),
(498,92,o),
(498,-3,cs),
(498,-98,o),
(428,-128,o),
(328,-128,cs),
(228,-128,o),
(167,-88,o),
(167,7,c),
(62,17,l),
(62,-98,o),
(138,-218,o),
(328,-218,cs),
(518,-218,o),
(603,-118,o),
(603,-3,cs),
(603,132,o),
(539,254,o),
(328,254,c)
);
}
);
width = 660;
},
{
associatedMasterId = m003;
layerId = "BF810F23-5AA6-473E-9B48-5D617AC927E9";
name = "26. Jul 23, 18:50";
shapes = (
{
closed = 1;
nodes = (
(534,465,o),
(298,462,cs),
(235,461,o),
(176,444,o),
(135,396,c),
(176,335,l),
(203,359,o),
(251,371,o),
(298,372,cs),
(411,374,o),
(470,283,o),
(470,205,cs),
(470,118,o),
(398,84,o),
(298,84,cs),
(198,84,o),
(151,124,o),
(151,204,c),
(51,197,l),
(51,83,o),
(108,-6,o),
(298,-6,cs),
(488,-6,o),
(570,85,o),
(570,200,cs),
(570,290,o)
);
},
{
closed = 1;
nodes = (
(78,363,l),
(176,335,l),
(206,610,l),
(524,610,l),
(524,700,l),
(116,700,l)
);
}
);
width = 600;
}
);
unicode = 53;
}
{
glyphname = six;
kernLeft = "0";
kernRight = "0";
layers = (
{
layerId = m01;
shapes = (
{
closed = 1;
nodes = (
(601,526,l),
(601,596,o),
(528,729,o),
(338,729,cs),
(148,729,o),
(53,586,o),
(53,371,cs),
(53,156,o),
(143,13,o),
(338,13,cs),
(533,13,o),
(604,120,o),
(604,241,cs),
(604,401,o),
(478,463,o),
(338,463,cs),
(259,463,o),
(181,443,o),
(153,394,c),
(166,593,o),
(238,639,o),
(338,639,cs),
(438,639,o),
(496,593,o),
(496,526,c)
);
},
{
closed = 1;
nodes = (
(504,146,o),
(438,103,o),
(338,103,cs),
(238,103,o),
(179,146,o),
(179,241,c),
(179,336,o),
(238,373,o),
(338,373,cs),
(438,373,o),
(504,336,o),
(504,241,cs)
);
}
);
width = 655;
},
{
layerId = m002;
shapes = (
{
closed = 1;
nodes = (
(577,195,l),
(577,265,o),
(504,449,o),
(314,582,cs),
(124,715,o),
(29,639,o),
(29,424,cs),
(29,209,o),
(119,3,o),
(314,-134,cs),
(509,-270,o),
(580,-213,o),
(580,-92,cs),
(580,68,o),
(454,218,o),
(314,316,cs),
(235,372,o),
(157,406,o),
(129,377,c),
(142,567,o),
(214,562,o),
(314,492,cs),
(414,422,o),
(472,336,o),
(472,269,c)
);
},
{
closed = 1;
nodes = (
(480,-117,o),
(414,-114,o),
(314,-44,cs),
(214,26,o),
(155,111,o),
(155,206,c),
(155,301,o),
(214,296,o),
(314,226,cs),
(414,156,o),
(480,73,o),
(480,-22,cs)
);
}
);
width = 609;
},
{
layerId = m003;
shapes = (
{
closed = 1;
nodes = (
(603,296,l),
(603,366,o),
(530,499,o),
(340,499,cs),
(150,499,o),
(55,356,o),
(55,141,cs),
(55,-74,o),
(145,-217,o),
(340,-217,cs),
(535,-217,o),
(606,-110,o),
(606,11,cs),
(606,171,o),
(480,233,o),
(340,233,cs),
(261,233,o),
(183,213,o),
(155,164,c),
(168,363,o),
(240,409,o),
(340,409,cs),
(440,409,o),
(498,363,o),
(498,296,c)
);
},
{
closed = 1;
nodes = (
(506,-84,o),
(440,-127,o),
(340,-127,cs),
(240,-127,o),
(181,-84,o),
(181,11,c),
(181,106,o),
(240,143,o),
(340,143,cs),
(440,143,o),
(506,106,o),
(506,11,cs)
);
}
);
width = 660;
}
);
unicode = 54;
}
{
glyphname = seven;
kernLeft = "1";
kernRight = "1";
layers = (
{
layerId = m01;
shapes = (
{
closed = 1;
nodes = (
(0,700,l),
(0,610,l),
(352,610,l),
(252,502,o),
(175,297,o),
(175,0,c),
(275,0,l),
(275,297,o),
(365,502,o),
(475,610,c),
(477,700,l)
);
}
);
width = 477;
},
{
layerId = m002;
shapes = (
{
closed = 1;
nodes = (
(0,687,l),
(0,597,l),
(352,351,l),
(252,313,o),
(175,161,o),
(175,-136,c),
(275,-206,l),
(275,91,o),
(365,233,o),
(475,264,c),
(477,353,l)
);
}
);
width = 477;
},
{
layerId = m003;
shapes = (
{
closed = 1;
nodes = (
(0,490,l),
(0,400,l),
(352,400,l),
(252,292,o),
(175,87,o),
(175,-210,c),
(275,-210,l),
(275,87,o),
(365,292,o),
(475,400,c),
(477,490,l)
);
}
);
width = 477;
}
);
metricLeft = "=0";
metricRight = "=0";
unicode = 55;
}
{
glyphname = eight;
kernLeft = "0";
kernRight = "3";
layers = (
{
layerId = m01;
shapes = (
{
closed = 1;
nodes = (
(506,-13,o),
(591,87,o),
(591,202,cs),
(591,292,o),
(534,347,o),
(463,379,c),
(514,413,o),
(553,463,o),
(553,524,cs),
(553,629,o),
(456,708,o),
(316,708,cs),
(176,708,o),
(78,629,o),
(78,524,cs),
(78,463,o),
(117,413,o),
(169,379,c),
(98,347,o),
(40,292,o),
(40,202,cs),
(40,87,o),
(126,-13,o),
(316,-13,cs)
);
},
{
closed = 1;
nodes = (
(216,77,o),
(145,107,o),
(145,202,cs),
(145,297,o),
(216,330,o),
(316,330,cs),
(416,330,o),
(486,297,o),
(486,202,cs),
(486,107,o),
(416,77,o),
(316,77,cs)
);
},
{
closed = 1;
nodes = (
(226,420,o),
(178,459,o),
(178,519,cs),
(178,579,o),
(226,618,o),
(316,618,cs),
(406,618,o),
(453,579,o),
(453,519,cs),
(453,459,o),
(406,420,o),
(316,420,cs)
);
}
);
width = 631;
},
{
associatedMasterId = m01;
layerId = "24DFDC30-582D-4DA1-AC78-67CF5F70040C";
name = "26. Jul 23, 17:03";
shapes = (
{
closed = 1;
nodes = (
(458,-13,o),
(535,81,o),
(535,196,cs),
(535,341,o),
(408,409,o),
(268,409,cs),
(128,409,o),
(0,341,o),
(0,196,cs),
(0,81,o),
(78,-13,o),
(268,-13,cs)
);
},
{
closed = 1;
nodes = (
(168,77,o),
(100,116,o),
(100,196,cs),
(100,276,o),
(178,319,o),
(268,319,cs),
(358,319,o),
(435,276,o),
(435,196,cs),
(435,116,o),
(368,77,o),
(268,77,cs)
);
},
{
closed = 1;
nodes = (
(408,341,o),
(495,420,o),
(495,525,cs),
(495,630,o),
(408,708,o),
(268,708,cs),
(128,708,o),
(40,630,o),
(40,525,cs),
(40,420,o),
(128,341,o),
(268,341,cs)
);
},
{
closed = 1;
nodes = (
(198,431,o),
(140,450,o),
(140,520,cs),
(140,590,o),
(198,618,o),
(268,618,cs),
(338,618,o),
(395,590,o),
(395,520,cs),
(395,450,o),
(338,431,o),
(268,431,cs)
);
}
);
width = 535;
},
{
layerId = m002;
shapes = (
{
closed = 1;
nodes = (
(506,-266,o),
(591,-226,o),
(591,-111,cs),
(591,-21,o),
(534,74,o),
(463,156,c),
(514,154,o),
(553,177,o),
(553,238,cs),
(553,343,o),
(456,490,o),
(316,588,cs),
(176,686,o),
(78,675,o),
(78,570,cs),
(78,509,o),
(117,432,o),
(169,362,c),
(98,379,o),
(40,365,o),
(40,275,cs),
(40,160,o),
(126,0,o),
(316,-133,cs)
);
},
{
closed = 1;
nodes = (
(216,27,o),
(145,106,o),
(145,201,cs),
(145,296,o),
(216,280,o),
(316,210,cs),
(416,140,o),
(486,58,o),
(486,-37,cs),
(486,-132,o),
(416,-113,o),
(316,-43,cs)
);
},
{
closed = 1;
nodes = (
(226,363,o),
(178,435,o),
(178,495,cs),
(178,555,o),
(226,561,o),
(316,498,cs),
(406,435,o),
(453,363,o),
(453,303,cs),
(453,243,o),
(406,237,o),
(316,300,cs)
);
}
);
width = 631;
},
{
associatedMasterId = m002;
layerId = "1E685221-494F-47FF-A7AC-F0D219D04D4E";
name = "26. Jul 23, 17:03";
shapes = (
{
closed = 1;
nodes = (
(458,-13,o),
(535,81,o),
(535,196,cs),
(535,341,o),
(408,409,o),
(268,409,cs),
(128,409,o),
(0,341,o),
(0,196,cs),
(0,81,o),
(78,-13,o),
(268,-13,cs)
);
},
{
closed = 1;
nodes = (
(168,77,o),
(100,116,o),
(100,196,cs),
(100,276,o),
(178,319,o),
(268,319,cs),
(358,319,o),
(435,276,o),
(435,196,cs),
(435,116,o),
(368,77,o),
(268,77,cs)
);
},
{
closed = 1;
nodes = (
(408,341,o),
(495,420,o),
(495,525,cs),
(495,630,o),
(408,708,o),
(268,708,cs),
(128,708,o),
(40,630,o),
(40,525,cs),
(40,420,o),
(128,341,o),
(268,341,cs)
);
},
{
closed = 1;
nodes = (
(198,431,o),
(140,450,o),
(140,520,cs),
(140,590,o),
(198,618,o),
(268,618,cs),
(338,618,o),
(395,590,o),
(395,520,cs),
(395,450,o),
(338,431,o),
(268,431,cs)
);
}
);
width = 535;
},
{
layerId = m003;
shapes = (
{
closed = 1;
nodes = (
(540,-217,o),
(625,-117,o),
(625,-2,cs),
(625,88,o),
(568,143,o),
(497,175,c),
(548,209,o),
(587,259,o),
(587,320,cs),
(587,425,o),
(490,504,o),
(350,504,cs),
(210,504,o),
(112,425,o),
(112,320,cs),
(112,259,o),
(151,209,o),
(203,175,c),
(132,143,o),
(74,88,o),
(74,-2,cs),
(74,-117,o),
(160,-217,o),
(350,-217,cs)
);
},
{
closed = 1;
nodes = (
(250,-127,o),
(179,-97,o),
(179,-2,cs),
(179,93,o),
(250,126,o),
(350,126,cs),
(450,126,o),
(520,93,o),
(520,-2,cs),
(520,-97,o),
(450,-127,o),
(350,-127,cs)
);
},
{
closed = 1;
nodes = (
(260,216,o),
(212,255,o),
(212,315,cs),
(212,375,o),
(260,414,o),
(350,414,cs),
(440,414,o),
(487,375,o),
(487,315,cs),
(487,255,o),
(440,216,o),
(350,216,cs)
);
}
);
width = 699;
},
{
associatedMasterId = m003;
layerId = "780E0C7E-2B5A-4E0C-B787-DEF61086209E";
name = "26. Jul 23, 17:03";
shapes = (
{
closed = 1;
nodes = (
(458,-13,o),
(535,81,o),
(535,196,cs),
(535,341,o),
(408,409,o),
(268,409,cs),
(128,409,o),
(0,341,o),
(0,196,cs),
(0,81,o),
(78,-13,o),
(268,-13,cs)
);
},
{
closed = 1;
nodes = (
(168,77,o),
(100,116,o),
(100,196,cs),
(100,276,o),
(178,319,o),
(268,319,cs),
(358,319,o),
(435,276,o),
(435,196,cs),
(435,116,o),
(368,77,o),
(268,77,cs)
);
},
{
closed = 1;
nodes = (
(408,341,o),
(495,420,o),
(495,525,cs),
(495,630,o),
(408,708,o),
(268,708,cs),
(128,708,o),
(40,630,o),
(40,525,cs),
(40,420,o),
(128,341,o),
(268,341,cs)
);
},
{
closed = 1;
nodes = (
(198,431,o),
(140,450,o),
(140,520,cs),
(140,590,o),
(198,618,o),
(268,618,cs),
(338,618,o),
(395,590,o),
(395,520,cs),
(395,450,o),
(338,431,o),
(268,431,cs)
);
}
);
width = 535;
}
);
metricLeft = "=O";
metricRight = "=O";
unicode = 56;
}
{
glyphname = nine;
kernLeft = "0";
kernRight = "0";
layers = (
{
layerId = m01;
shapes = (
{
closed = 1;
nodes = (
(54,195,l),
(54,125,o),
(127,-8,o),
(317,-8,cs),
(507,-8,o),
(602,135,o),
(602,350,cs),
(602,565,o),
(512,708,o),
(317,708,cs),
(122,708,o),
(51,601,o),
(51,480,cs),
(51,320,o),
(177,258,o),
(317,258,cs),
(396,258,o),
(474,278,o),
(502,327,c),
(489,128,o),
(417,82,o),
(317,82,cs),
(217,82,o),
(159,128,o),
(159,195,c)
);
},
{
closed = 1;
nodes = (
(151,575,o),
(217,618,o),
(317,618,cs),
(417,618,o),
(476,575,o),
(476,480,c),
(476,385,o),
(417,348,o),
(317,348,cs),
(217,348,o),
(151,385,o),
(151,480,cs)
);
}
);
width = 655;
},
{
associatedMasterId = m01;
layerId = "80F7266D-0794-4E93-AF05-85FC9D56801C";
name = "26. Jul 23, 19:32";
shapes = (
{
closed = 1;
nodes = (
(22,207,l),
(22,92,o),
(104,-8,o),
(294,-8,cs),
(489,-8,o),
(554,130,o),
(554,345,c),
(554,560,o),
(489,708,o),
(294,708,cs),
(99,708,o),
(22,641,o),
(22,480,cs),
(22,320,o),
(170,248,o),
(294,248,cs),
(410,248,o),
(490,296,o),
(490,461,c),
(446,474,l),
(446,361,o),
(384,341,o),
(294,341,cs),
(204,341,o),
(120,366,o),
(120,480,cs),
(120,576,o),
(154,618,o),
(294,618,cs),
(434,618,o),
(452,536,o),
(452,345,c),
(452,180,o),
(434,82,o),
(294,82,cs),
(154,82,o),
(130,160,o),
(130,207,c)
);
}
);
width = 600;
},
{
layerId = m002;
shapes = (
{
closed = 1;
nodes = (
(32,246,l),
(32,176,o),
(105,-8,o),
(295,-141,cs),
(485,-274,o),
(580,-198,o),
(580,17,cs),
(580,232,o),
(490,438,o),
(295,575,cs),
(100,711,o),
(29,654,o),
(29,533,cs),
(29,373,o),
(155,223,o),
(295,125,cs),
(374,69,o),
(452,35,o),
(480,64,c),
(467,-126,o),
(395,-121,o),
(295,-51,cs),
(195,19,o),
(137,105,o),
(137,172,c)
);
},
{
closed = 1;
nodes = (
(129,558,o),
(195,555,o),
(295,485,cs),
(395,415,o),
(454,330,o),
(454,235,c),
(454,140,o),
(395,145,o),
(295,215,cs),
(195,285,o),
(129,368,o),
(129,463,cs)
);
}
);
width = 609;
},
{
associatedMasterId = m002;
layerId = "F68B0AB2-ED31-4172-93D7-F146AEFD358C";
name = "26. Jul 23, 19:32";
shapes = (
{
closed = 1;
nodes = (
(22,207,l),
(22,92,o),
(104,-8,o),
(294,-8,cs),
(489,-8,o),
(554,130,o),
(554,345,c),
(554,560,o),
(489,708,o),
(294,708,cs),
(99,708,o),
(22,641,o),
(22,480,cs),
(22,320,o),
(170,248,o),
(294,248,cs),
(410,248,o),
(490,296,o),
(490,461,c),
(446,474,l),
(446,361,o),
(384,341,o),
(294,341,cs),
(204,341,o),
(120,366,o),
(120,480,cs),
(120,576,o),
(154,618,o),
(294,618,cs),
(434,618,o),
(452,536,o),
(452,345,c),
(452,180,o),
(434,82,o),
(294,82,cs),
(154,82,o),
(130,160,o),
(130,207,c)
);
}
);
width = 600;
},
{
layerId = m003;
shapes = (
{
closed = 1;
nodes = (
(55,-15,l),
(55,-85,o),
(128,-218,o),
(318,-218,cs),
(508,-218,o),
(603,-75,o),
(603,140,cs),
(603,355,o),
(513,498,o),
(318,498,cs),
(123,498,o),
(52,391,o),
(52,270,cs),
(52,110,o),
(178,48,o),
(318,48,cs),
(397,48,o),
(475,68,o),
(503,117,c),
(490,-82,o),
(418,-128,o),
(318,-128,cs),
(218,-128,o),
(160,-82,o),
(160,-15,c)
);
},
{
closed = 1;
nodes = (
(152,365,o),
(218,408,o),
(318,408,cs),
(418,408,o),
(477,365,o),
(477,270,c),
(477,175,o),
(418,138,o),
(318,138,cs),
(218,138,o),
(152,175,o),
(152,270,cs)
);
}
);
width = 660;
},
{
associatedMasterId = m003;
layerId = "6737D929-9E13-4F75-BAFB-CF23A682080C";
name = "26. Jul 23, 19:32";
shapes = (
{
closed = 1;
nodes = (
(22,207,l),
(22,92,o),
(104,-8,o),
(294,-8,cs),
(489,-8,o),
(554,130,o),
(554,345,c),
(554,560,o),
(489,708,o),
(294,708,cs),
(99,708,o),
(22,641,o),
(22,480,cs),
(22,320,o),
(170,248,o),
(294,248,cs),
(410,248,o),
(490,296,o),
(490,461,c),
(446,474,l),
(446,361,o),
(384,341,o),
(294,341,cs),
(204,341,o),
(120,366,o),
(120,480,cs),
(120,576,o),
(154,618,o),
(294,618,cs),
(434,618,o),
(452,536,o),
(452,345,c),
(452,180,o),
(434,82,o),
(294,82,cs),
(154,82,o),
(130,160,o),
(130,207,c)
);
}
);
width = 600;
}
);
unicode = 57;
}
{
glyphname = A;
kernLeft = A;
kernRight = A;
layers = (
{
layerId = m01;
shapes = (
{
closed = 1;
nodes = (
(195,0,l),
(424,591,l),
(655,0,l),
(760,0,l),
(496,701,l),
(356,701,l),
(90,0,l)
);
},
{
closed = 1;
nodes = (
(612,210,l),
(612,300,l),
(232,300,l),
(232,210,l)
);
}
);
userData = {
com.hugojourdan.ColorFlow = {
"0" = 0;
"1" = 0;
"10" = 0;
"11" = 0;
"2" = 0;
"3" = 0;
"4" = 0;
"5" = 0;
"6" = 0;
"7" = 0;
"8" = 0;
"9" = 0;
};
};
width = 850;
},
{
layerId = m002;
shapes = (
{
closed = 1;
nodes = (
(175,0,l),
(404,591,l),
(635,0,l),
(740,0,l),
(476,701,l),
(336,701,l),
(70,0,l)
);
},
{
closed = 1;
nodes = (
(212,210,l),
(592,210,l),
(592,300,l),
(212,300,l)
);
}
);
userData = {
com.hugojourdan.ColorFlow = {
"0" = 0;
"1" = 0;
"10" = 0;
"11" = 0;
"2" = 0;
"3" = 0;
"4" = 0;
"5" = 0;
"6" = 0;
"7" = 0;
"8" = 0;
"9" = 0;
};
};
width = 810;
},
{
layerId = m003;
shapes = (
{
closed = 1;
nodes = (
(155,0,l),
(384,591,l),
(615,0,l),
(720,0,l),
(456,701,l),
(316,701,l),
(50,0,l)
);
},
{
closed = 1;
nodes = (
(192,210,l),
(572,210,l),
(572,300,l),
(192,300,l)
);
}
);
userData = {
com.hugojourdan.ColorFlow = {
"0" = 0;
"1" = 0;
"10" = 0;
"11" = 0;
"2" = 0;
"3" = 0;
"4" = 0;
"5" = 0;
"6" = 0;
"7" = 0;
"8" = 0;
"9" = 0;
};
};
width = 770;
}
);
metricLeft = "=H";
metricRight = "=H";
unicode = 65;
}
{
glyphname = B;
kernLeft = H;
kernRight = B;
layers = (
{
layerId = m01;
shapes = (
{
closed = 1;
nodes = (
(347,0,ls),
(523,0,o),
(608,67,o),
(608,212,cs),
(608,276,o),
(581,334,o),
(506,373,c),
(554,409,o),
(581,456,o),
(581,524,cs),
(581,640,o),
(489,700,o),
(347,700,cs),
(90,700,l),
(90,0,l)
);
},
{
closed = 1;
nodes = (
(195,327,l),
(347,327,ls),
(443,327,o),
(503,277,o),
(503,212,cs),
(503,136,o),
(458,91,o),
(347,90,cs),
(195,89,l)
);
},
{
closed = 1;
nodes = (
(195,610,l),
(347,610,ls),
(419,610,o),
(476,580,o),
(476,524,cs),
(476,452,o),
(436,417,o),
(347,417,cs),
(195,417,l)
);
}
);
userData = {
com.hugojourdan.ColorFlow = {
"0" = 0;
"1" = 0;
"10" = 0;
"11" = 0;
"2" = 0;
"3" = 0;
"4" = 0;
"5" = 0;
"6" = 0;
"7" = 0;
"8" = 0;
"9" = 0;
};
};
width = 633;
},
{
layerId = m002;
shapes = (
{
closed = 1;
nodes = (
(327,0,ls),
(503,0,o),
(588,67,o),
(588,212,cs),
(588,276,o),
(561,334,o),
(486,373,c),
(534,409,o),
(561,456,o),
(561,524,cs),
(561,640,o),
(469,700,o),
(327,700,cs),
(70,700,l),
(70,0,l)
);
},
{
closed = 1;
nodes = (
(175,327,l),
(327,327,ls),
(423,327,o),
(483,277,o),
(483,212,cs),
(483,136,o),
(438,91,o),
(327,90,cs),
(175,89,l)
);
},
{
closed = 1;
nodes = (
(175,610,l),
(327,610,ls),
(399,610,o),
(456,580,o),
(456,524,cs),
(456,452,o),
(416,417,o),
(327,417,cs),
(175,417,l)
);
}
);
userData = {
com.hugojourdan.ColorFlow = {
"0" = 0;
"1" = 0;
"10" = 0;
"11" = 0;
"2" = 0;
"3" = 0;
"4" = 0;
"5" = 0;
"6" = 0;
"7" = 0;
"8" = 0;
"9" = 0;
};
};
width = 631;
},
{
layerId = m003;
shapes = (
{
closed = 1;
nodes = (
(307,0,ls),
(483,0,o),
(568,67,o),
(568,212,cs),
(568,276,o),
(541,334,o),
(466,373,c),
(514,409,o),
(541,456,o),
(541,524,cs),
(541,640,o),
(449,700,o),
(307,700,cs),
(50,700,l),
(50,0,l)
);
},
{
closed = 1;
nodes = (
(155,327,l),
(307,327,ls),
(403,327,o),
(463,277,o),
(463,212,cs),
(463,136,o),
(418,91,o),
(307,90,cs),
(155,89,l)
);
},
{
closed = 1;
nodes = (
(155,610,l),
(307,610,ls),
(379,610,o),
(436,580,o),
(436,524,cs),
(436,452,o),
(396,417,o),
(307,417,cs),
(155,417,l)
);
}
);
userData = {
com.hugojourdan.ColorFlow = {
"0" = 0;
"1" = 0;
"10" = 0;
"11" = 0;
"2" = 0;
"3" = 0;
"4" = 0;
"5" = 0;
"6" = 0;
"7" = 0;
"8" = 0;
"9" = 0;
};
};
width = 598;
}
);
metricLeft = "=H";
metricRight = "=R";
unicode = 66;
}
{
glyphname = C;
kernLeft = O;
kernRight = O;
layers = (
{
layerId = m01;
shapes = (
{
closed = 1;
nodes = (
(596,260,l),
(580,187,o),
(512,82,o),
(372,82,cs),
(232,82,o),
(155,185,o),
(155,350,cs),
(155,515,o),
(232,618,o),
(372,618,cs),
(512,618,o),
(583,517,o),
(596,435,c),
(701,452,l),
(661,610,o),
(567,708,o),
(372,708,cs),
(177,708,o),
(50,565,o),
(50,350,cs),
(50,135,o),
(177,-8,o),
(372,-8,cs),
(567,-8,o),
(661,97,o),
(701,243,c)
);
}
);
userData = {
com.hugojourdan.ColorFlow = {
"0" = 0;
"1" = 0;
"10" = 0;
"11" = 0;
"2" = 0;
"3" = 0;
"4" = 0;
"5" = 0;
"6" = 0;
"7" = 0;
"8" = 0;
"9" = 0;
};
};
width = 751;
},
{
layerId = m002;
shapes = (
{
closed = 1;
nodes = (
(596,260,l),
(580,187,o),
(512,82,o),
(372,82,cs),
(232,82,o),
(155,185,o),
(155,350,cs),
(155,515,o),
(232,618,o),
(372,618,cs),
(512,618,o),
(583,517,o),
(596,435,c),
(701,452,l),
(661,610,o),
(567,708,o),
(372,708,cs),
(177,708,o),
(50,565,o),
(50,350,cs),
(50,135,o),
(177,-8,o),
(372,-8,cs),
(567,-8,o),
(661,97,o),
(701,243,c)
);
}
);
userData = {
com.hugojourdan.ColorFlow = {
"0" = 0;
"1" = 0;
"10" = 0;
"11" = 0;
"2" = 0;
"3" = 0;
"4" = 0;
"5" = 0;
"6" = 0;
"7" = 0;
"8" = 0;
"9" = 0;
};
};
width = 751;
},
{
layerId = m003;
shapes = (
{
closed = 1;
nodes = (
(596,260,l),
(580,187,o),
(512,82,o),
(372,82,cs),
(232,82,o),
(155,185,o),
(155,350,cs),
(155,515,o),
(232,618,o),
(372,618,cs),
(512,618,o),
(583,517,o),
(596,435,c),
(701,452,l),
(661,610,o),
(567,708,o),
(372,708,cs),
(177,708,o),
(50,565,o),
(50,350,cs),
(50,135,o),
(177,-8,o),
(372,-8,cs),
(567,-8,o),
(661,97,o),
(701,243,c)
);
}
);
userData = {
com.hugojourdan.ColorFlow = {
"0" = 0;
"1" = 0;
"10" = 0;
"11" = 0;
"2" = 0;
"3" = 0;
"4" = 0;
"5" = 0;
"6" = 0;
"7" = 0;
"8" = 0;
"9" = 0;
};
};
width = 751;
}
);
metricLeft = "=O";
metricRight = "=O";
unicode = 67;
}
{
glyphname = D;
kernLeft = H;
kernRight = D;
layers = (
{
layerId = m01;
shapes = (
{
closed = 1;
nodes = (
(58,0,l),
(287,0,ls),
(482,0,o),
(624,140,o),
(624,350,cs),
(624,560,o),
(483,700,o),
(288,700,cs),
(58,700,l)
);
},
{
closed = 1;
nodes = (
(163,610,l),
(288,610,ls),
(421,610,o),
(519,510,o),
(519,350,cs),
(519,190,o),
(420,90,o),
(287,90,cs),
(163,90,l)
);
}
);
userData = {
com.hugojourdan.ColorFlow = {
"0" = 0;
"1" = 0;
"10" = 0;
"11" = 0;
"2" = 0;
"3" = 0;
"4" = 0;
"5" = 0;
"6" = 0;
"7" = 0;
"8" = 0;
"9" = 0;
};
};
width = 664;
},
{
layerId = m002;
shapes = (
{
closed = 1;
nodes = (
(58,0,l),
(287,0,ls),
(482,0,o),
(624,140,o),
(624,350,cs),
(624,560,o),
(483,700,o),
(288,700,cs),
(58,700,l)
);
},
{
closed = 1;
nodes = (
(163,610,l),
(288,610,ls),
(421,610,o),
(519,510,o),
(519,350,cs),
(519,190,o),
(420,90,o),
(287,90,cs),
(163,90,l)
);
}
);
userData = {
com.hugojourdan.ColorFlow = {
"0" = 0;
"1" = 0;
"10" = 0;
"11" = 0;
"2" = 0;
"3" = 0;
"4" = 0;
"5" = 0;
"6" = 0;
"7" = 0;
"8" = 0;
"9" = 0;
};
};
width = 664;
},
{
layerId = m003;
shapes = (
{
closed = 1;
nodes = (
(100,0,l),
(329,0,ls),
(524,0,o),
(666,140,o),
(666,350,cs),
(666,560,o),
(525,700,o),
(330,700,cs),
(100,700,l)
);
},
{
closed = 1;
nodes = (
(205,610,l),
(330,610,ls),
(463,610,o),
(561,510,o),
(561,350,cs),
(561,190,o),
(462,90,o),
(329,90,cs),
(205,90,l)
);
}
);
userData = {
com.hugojourdan.ColorFlow = {
"0" = 0;
"1" = 0;
"10" = 0;
"11" = 0;
"2" = 0;
"3" = 0;
"4" = 0;
"5" = 0;
"6" = 0;
"7" = 0;
"8" = 0;
"9" = 0;
};
};
width = 748;
}
);
unicode = 68;
}
{
glyphname = E;
kernLeft = H;
kernRight = E;
layers = (
{
layerId = m01;
shapes = (
{
closed = 1;
nodes = (
(90,0,l),
(195,0,l),
(195,700,l),
(90,700,l)
);
},
{
closed = 1;
nodes = (
(195,319,l),
(502,319,l),
(502,409,l),
(195,409,l)
);
},
{
closed = 1;
nodes = (
(195,610,l),
(522,610,l),
(522,700,l),
(195,700,l)
);
},
{
closed = 1;
nodes = (
(195,0,l),
(522,0,l),
(522,90,l),
(195,90,l)
);
}
);
userData = {
com.hugojourdan.ColorFlow = {
"0" = 0;
"1" = 0;
"10" = 0;
"11" = 0;
"2" = 0;
"3" = 0;
"4" = 0;
"5" = 0;
"6" = 0;
"7" = 0;
"8" = 0;
"9" = 0;
};
};
width = 612;
},
{
layerId = m002;
shapes = (
{
closed = 1;
nodes = (
(70,0,l),
(175,0,l),
(175,700,l),
(70,700,l)
);
},
{
closed = 1;
nodes = (
(175,319,l),
(482,319,l),
(482,409,l),
(175,409,l)
);
},
{
closed = 1;
nodes = (
(175,610,l),
(502,610,l),
(502,700,l),
(175,700,l)
);
},
{
closed = 1;
nodes = (
(175,0,l),
(502,0,l),
(502,90,l),
(175,90,l)
);
}
);
userData = {
com.hugojourdan.ColorFlow = {
"0" = 0;
"1" = 0;
"10" = 0;
"11" = 0;
"2" = 0;
"3" = 0;
"4" = 0;
"5" = 0;
"6" = 0;
"7" = 0;
"8" = 0;
"9" = 0;
};
};
width = 572;
},
{
layerId = m003;
shapes = (
{
closed = 1;
nodes = (
(50,0,l),
(155,0,l),
(155,700,l),
(50,700,l)
);
},
{
closed = 1;
nodes = (
(155,319,l),
(462,319,l),
(462,409,l),
(155,409,l)
);
},
{
closed = 1;
nodes = (
(155,610,l),
(482,610,l),
(482,700,l),
(155,700,l)
);
},
{
closed = 1;
nodes = (
(155,0,l),
(482,0,l),
(482,90,l),
(155,90,l)
);
}
);
userData = {
com.hugojourdan.ColorFlow = {
"0" = 0;
"1" = 0;
"10" = 0;
"11" = 0;
"2" = 0;
"3" = 0;
"4" = 0;
"5" = 0;
"6" = 0;
"7" = 0;
"8" = 0;
"9" = 0;
};
};
width = 532;
}
);
metricLeft = "=H";
metricRight = "=H";
unicode = 69;
}
{
glyphname = F;
kernLeft = H;
kernRight = F;
layers = (
{
layerId = m01;
shapes = (
{
closed = 1;
nodes = (
(60,0,l),
(165,0,l),
(165,700,l),
(60,700,l)
);
},
{
closed = 1;
nodes = (
(165,328,l),
(412,328,l),
(412,418,l),
(165,418,l)
);
},
{
closed = 1;
nodes = (
(165,610,l),
(472,610,l),
(472,700,l),
(165,700,l)
);
}
);
userData = {
com.hugojourdan.ColorFlow = {
"0" = 0;
"1" = 0;
"10" = 0;
"11" = 0;
"2" = 0;
"3" = 0;
"4" = 0;
"5" = 0;
"6" = 0;
"7" = 0;
"8" = 0;
"9" = 0;
};
};
width = 532;
},
{
layerId = m002;
shapes = (
{
closed = 1;
nodes = (
(56,0,l),
(161,0,l),
(161,700,l),
(56,700,l)
);
},
{
closed = 1;
nodes = (
(161,328,l),
(408,328,l),
(408,418,l),
(161,418,l)
);
},
{
closed = 1;
nodes = (
(161,610,l),
(468,610,l),
(468,700,l),
(161,700,l)
);
}
);
userData = {
com.hugojourdan.ColorFlow = {
"0" = 0;
"1" = 0;
"10" = 0;
"11" = 0;
"2" = 0;
"3" = 0;
"4" = 0;
"5" = 0;
"6" = 0;
"7" = 0;
"8" = 0;
"9" = 0;
};
};
width = 524;
},
{
layerId = m003;
shapes = (
{
closed = 1;
nodes = (
(90,0,l),
(195,0,l),
(195,700,l),
(90,700,l)
);
},
{
closed = 1;
nodes = (
(195,328,l),
(442,328,l),
(442,418,l),
(195,418,l)
);
},
{
closed = 1;
nodes = (
(195,610,l),
(502,610,l),
(502,700,l),
(195,700,l)
);
}
);
userData = {
com.hugojourdan.ColorFlow = {
"0" = 0;
"1" = 0;
"10" = 0;
"11" = 0;
"2" = 0;
"3" = 0;
"4" = 0;
"5" = 0;
"6" = 0;
"7" = 0;
"8" = 0;
"9" = 0;
};
};
width = 592;
}
);
metricLeft = "=H";
metricRight = "=H";
unicode = 70;
}
{
glyphname = G;
kernLeft = O;
kernRight = G;
layers = (
{
layerId = m01;
shapes = (
{
closed = 1;
nodes = (
(676,370,l),
(334,369,l),
(334,279,l),
(555,279,l),
(554,184,o),
(487,82,o),
(347,82,cs),
(207,82,o),
(130,185,o),
(130,350,cs),
(130,515,o),
(207,618,o),
(347,618,cs),
(466,618,o),
(557,543,o),
(575,461,c),
(676,478,l),
(631,636,o),
(488,708,o),
(347,708,cs),
(152,708,o),
(25,565,o),
(25,350,cs),
(25,135,o),
(152,-8,o),
(347,-8,cs),
(542,-8,o),
(595,136,o),
(585,279,c),
(585,0,l),
(676,0,l)
);
}
);
userData = {
com.hugojourdan.ColorFlow = {
"0" = 0;
"1" = 0;
"10" = 0;
"11" = 0;
"2" = 0;
"3" = 0;
"4" = 0;
"5" = 0;
"6" = 0;
"7" = 0;
"8" = 0;
"9" = 0;
};
};
width = 701;
},
{
associatedMasterId = m01;
layerId = "6CD58B4D-0AF9-4DBA-A6FE-9DFBAF1342F0";
name = "19. Jul 23, 16:08";
shapes = (
{
closed = 1;
nodes = (
(571,280,l),
(571,185,o),
(487,82,o),
(347,82,cs),
(207,82,o),
(130,185,o),
(130,350,cs),
(130,515,o),
(207,618,o),
(347,618,cs),
(487,618,o),
(558,537,o),
(571,455,c),
(676,472,l),
(636,630,o),
(542,708,o),
(347,708,cs),
(152,708,o),
(25,565,o),
(25,350,cs),
(25,135,o),
(152,-8,o),
(347,-8,cs),
(542,-8,o),
(676,135,o),
(676,279,c)
);
},
{
closed = 1;
nodes = (
(354,279,l),
(676,279,l),
(676,379,l),
(354,379,l)
);
}
);
userData = {
com.hugojourdan.ColorFlow = {
"0" = 0;
"1" = 0;
"10" = 0;
"11" = 0;
"2" = 0;
"3" = 0;
"4" = 0;
"5" = 0;
"6" = 0;
"7" = 0;
"8" = 0;
"9" = 0;
};
};
width = 701;
},
{
associatedMasterId = m01;
layerId = "41AD4F1E-CF02-4B4E-83B1-0D201332BC78";
name = "19. Jul 23, 16:24";
shapes = (
{
closed = 1;
nodes = (
(676,369,l),
(334,369,l),
(334,279,l),
(571,279,l),
(570,184,o),
(487,82,o),
(347,82,cs),
(207,82,o),
(130,185,o),
(130,350,cs),
(130,515,o),
(207,618,o),
(347,618,cs),
(466,618,o),
(557,543,o),
(575,461,c),
(676,478,l),
(631,636,o),
(488,708,o),
(347,708,cs),
(152,708,o),
(25,565,o),
(25,350,cs),
(25,135,o),
(152,-8,o),
(347,-8,cs),
(542,-8,o),
(676,135,o),
(676,279,cs)
);
}
);
userData = {
com.hugojourdan.ColorFlow = {
"0" = 0;
"1" = 0;
"10" = 0;
"11" = 0;
"2" = 0;
"3" = 0;
"4" = 0;
"5" = 0;
"6" = 0;
"7" = 0;
"8" = 0;
"9" = 0;
};
};
width = 701;
},
{
layerId = m002;
shapes = (
{
closed = 1;
nodes = (
(694,370,l),
(352,369,l),
(352,279,l),
(573,279,l),
(572,184,o),
(505,82,o),
(365,82,cs),
(225,82,o),
(148,185,o),
(148,350,cs),
(148,515,o),
(225,618,o),
(365,618,cs),
(484,618,o),
(575,543,o),
(593,461,c),
(694,478,l),
(649,636,o),
(506,708,o),
(365,708,cs),
(170,708,o),
(43,565,o),
(43,350,cs),
(43,135,o),
(170,-8,o),
(365,-8,cs),
(560,-8,o),
(613,136,o),
(603,279,c),
(603,0,l),
(694,0,l)
);
}
);
userData = {
com.hugojourdan.ColorFlow = {
"0" = 0;
"1" = 0;
"10" = 0;
"11" = 0;
"2" = 0;
"3" = 0;
"4" = 0;
"5" = 0;
"6" = 0;
"7" = 0;
"8" = 0;
"9" = 0;
};
};
width = 737;
},
{
associatedMasterId = m002;
layerId = "48FE7010-71DA-48E8-B752-A58A091291FF";
name = "19. Jul 23, 16:08";
shapes = (
{
closed = 1;
nodes = (
(571,280,l),
(571,185,o),
(487,82,o),
(347,82,cs),
(207,82,o),
(130,185,o),
(130,350,cs),
(130,515,o),
(207,618,o),
(347,618,cs),
(487,618,o),
(558,537,o),
(571,455,c),
(676,472,l),
(636,630,o),
(542,708,o),
(347,708,cs),
(152,708,o),
(25,565,o),
(25,350,cs),
(25,135,o),
(152,-8,o),
(347,-8,cs),
(542,-8,o),
(676,135,o),
(676,279,c)
);
},
{
closed = 1;
nodes = (
(354,279,l),
(676,279,l),
(676,379,l),
(354,379,l)
);
}
);
userData = {
com.hugojourdan.ColorFlow = {
"0" = 0;
"1" = 0;
"10" = 0;
"11" = 0;
"2" = 0;
"3" = 0;
"4" = 0;
"5" = 0;
"6" = 0;
"7" = 0;
"8" = 0;
"9" = 0;
};
};
width = 701;
},
{
associatedMasterId = m002;
layerId = "2B2E4C5F-21E6-4F4D-A0EE-7CA68E19DFF6";
name = "19. Jul 23, 16:24";
shapes = (
{
closed = 1;
nodes = (
(676,369,l),
(334,369,l),
(334,279,l),
(571,279,l),
(570,184,o),
(487,82,o),
(347,82,cs),
(207,82,o),
(130,185,o),
(130,350,cs),
(130,515,o),
(207,618,o),
(347,618,cs),
(466,618,o),
(557,543,o),
(575,461,c),
(676,478,l),
(631,636,o),
(488,708,o),
(347,708,cs),
(152,708,o),
(25,565,o),
(25,350,cs),
(25,135,o),
(152,-8,o),
(347,-8,cs),
(542,-8,o),
(676,135,o),
(676,279,cs)
);
}
);
userData = {
com.hugojourdan.ColorFlow = {
"0" = 0;
"1" = 0;
"10" = 0;
"11" = 0;
"2" = 0;
"3" = 0;
"4" = 0;
"5" = 0;
"6" = 0;
"7" = 0;
"8" = 0;
"9" = 0;
};
};
width = 701;
},
{
layerId = m003;
shapes = (
{
closed = 1;
nodes = (
(681,370,l),
(339,369,l),
(339,279,l),
(560,279,l),
(559,184,o),
(492,82,o),
(352,82,cs),
(212,82,o),
(135,185,o),
(135,350,cs),
(135,515,o),
(212,618,o),
(352,618,cs),
(471,618,o),
(562,543,o),
(580,461,c),
(681,478,l),
(636,636,o),
(493,708,o),
(352,708,cs),
(157,708,o),
(30,565,o),
(30,350,cs),
(30,135,o),
(157,-8,o),
(352,-8,cs),
(547,-8,o),
(600,136,o),
(590,279,c),
(590,0,l),
(681,0,l)
);
}
);
userData = {
com.hugojourdan.ColorFlow = {
"0" = 0;
"1" = 0;
"10" = 0;
"11" = 0;
"2" = 0;
"3" = 0;
"4" = 0;
"5" = 0;
"6" = 0;
"7" = 0;
"8" = 0;
"9" = 0;
};
};
width = 711;
},
{
associatedMasterId = m003;
layerId = "49C96D89-2035-45A5-9B48-B3F9061A9CA7";
name = "19. Jul 23, 16:08";
shapes = (
{
closed = 1;
nodes = (
(571,280,l),
(571,185,o),
(487,82,o),
(347,82,cs),
(207,82,o),
(130,185,o),
(130,350,cs),
(130,515,o),
(207,618,o),
(347,618,cs),
(487,618,o),
(558,537,o),
(571,455,c),
(676,472,l),
(636,630,o),
(542,708,o),
(347,708,cs),
(152,708,o),
(25,565,o),
(25,350,cs),
(25,135,o),
(152,-8,o),
(347,-8,cs),
(542,-8,o),
(676,135,o),
(676,279,c)
);
},
{
closed = 1;
nodes = (
(354,279,l),
(676,279,l),
(676,379,l),
(354,379,l)
);
}
);
userData = {
com.hugojourdan.ColorFlow = {
"0" = 0;
"1" = 0;
"10" = 0;
"11" = 0;
"2" = 0;
"3" = 0;
"4" = 0;
"5" = 0;
"6" = 0;
"7" = 0;
"8" = 0;
"9" = 0;
};
};
width = 701;
},
{
associatedMasterId = m003;
layerId = "D052AF65-7E73-46C4-96B1-154FB495053B";
name = "19. Jul 23, 16:24";
shapes = (
{
closed = 1;
nodes = (
(676,369,l),
(334,369,l),
(334,279,l),
(571,279,l),
(570,184,o),
(487,82,o),
(347,82,cs),
(207,82,o),
(130,185,o),
(130,350,cs),
(130,515,o),
(207,618,o),
(347,618,cs),
(466,618,o),
(557,543,o),
(575,461,c),
(676,478,l),
(631,636,o),
(488,708,o),
(347,708,cs),
(152,708,o),
(25,565,o),
(25,350,cs),
(25,135,o),
(152,-8,o),
(347,-8,cs),
(542,-8,o),
(676,135,o),
(676,279,cs)
);
}
);
userData = {
com.hugojourdan.ColorFlow = {
"0" = 0;
"1" = 0;
"10" = 0;
"11" = 0;
"2" = 0;
"3" = 0;
"4" = 0;
"5" = 0;
"6" = 0;
"7" = 0;
"8" = 0;
"9" = 0;
};
};
width = 701;
}
);
metricLeft = "=O";
metricRight = "=O";
unicode = 71;
}
{
glyphname = H;
kernLeft = H;
kernRight = H;
layers = (
{
layerId = m01;
shapes = (
{
closed = 1;
nodes = (
(476,0,l),
(581,0,l),
(581,700,l),
(476,700,l)
);
},
{
closed = 1;
nodes = (
(60,0,l),
(165,0,l),
(165,700,l),
(60,700,l)
);
},
{
closed = 1;
nodes = (
(160,328,l),
(482,328,l),
(482,418,l),
(160,418,l)
);
}
);
userData = {
com.hugojourdan.ColorFlow = {
"0" = 0;
"1" = 0;
"10" = 0;
"11" = 0;
"2" = 0;
"3" = 0;
"4" = 0;
"5" = 0;
"6" = 0;
"7" = 0;
"8" = 0;
"9" = 0;
};
};
width = 641;
},
{
layerId = m002;
shapes = (
{
closed = 1;
nodes = (
(472,0,l),
(577,0,l),
(577,700,l),
(472,700,l)
);
},
{
closed = 1;
nodes = (
(56,0,l),
(161,0,l),
(161,700,l),
(56,700,l)
);
},
{
closed = 1;
nodes = (
(156,328,l),
(478,328,l),
(478,418,l),
(156,418,l)
);
}
);
userData = {
com.hugojourdan.ColorFlow = {
"0" = 0;
"1" = 0;
"10" = 0;
"11" = 0;
"2" = 0;
"3" = 0;
"4" = 0;
"5" = 0;
"6" = 0;
"7" = 0;
"8" = 0;
"9" = 0;
};
};
width = 633;
},
{
layerId = m003;
shapes = (
{
closed = 1;
nodes = (
(506,0,l),
(611,0,l),
(611,700,l),
(506,700,l)
);
},
{
closed = 1;
nodes = (
(90,0,l),
(195,0,l),
(195,700,l),
(90,700,l)
);
},
{
closed = 1;
nodes = (
(190,328,l),
(512,328,l),
(512,418,l),
(190,418,l)
);
}
);
userData = {
com.hugojourdan.ColorFlow = {
"0" = 0;
"1" = 0;
"10" = 0;
"11" = 0;
"2" = 0;
"3" = 0;
"4" = 0;
"5" = 0;
"6" = 0;
"7" = 0;
"8" = 0;
"9" = 0;
};
};
width = 701;
}
);
metricLeft = "=I";
metricRight = "=I";
unicode = 72;
}
{
glyphname = I;
kernLeft = I;
kernRight = I;
layers = (
{
layerId = m01;
shapes = (
{
closed = 1;
nodes = (
(90,0,l),
(195,0,l),
(195,700,l),
(90,700,l)
);
}
);
userData = {
com.hugojourdan.ColorFlow = {
"0" = 0;
"1" = 0;
"10" = 0;
"11" = 0;
"2" = 0;
"3" = 0;
"4" = 0;
"5" = 0;
"6" = 0;
"7" = 0;
"8" = 0;
"9" = 0;
};
};
width = 285;
},
{
layerId = m002;
shapes = (
{
closed = 1;
nodes = (
(70,0,l),
(175,0,l),
(175,700,l),
(70,700,l)
);
}
);
userData = {
com.hugojourdan.ColorFlow = {
"0" = 0;
"1" = 0;
"10" = 0;
"11" = 0;
"2" = 0;
"3" = 0;
"4" = 0;
"5" = 0;
"6" = 0;
"7" = 0;
"8" = 0;
"9" = 0;
};
};
width = 245;
},
{
layerId = m003;
shapes = (
{
closed = 1;
nodes = (
(50,0,l),
(155,0,l),
(155,700,l),
(50,700,l)
);
}
);
userData = {
com.hugojourdan.ColorFlow = {
"0" = 0;
"1" = 0;
"10" = 0;
"11" = 0;
"2" = 0;
"3" = 0;
"4" = 0;
"5" = 0;
"6" = 0;
"7" = 0;
"8" = 0;
"9" = 0;
};
};
width = 205;
}
);
metricLeft = "=i+10";
metricRight = "=i+10";
unicode = 73;
}
{
glyphname = J;
kernLeft = J;
kernRight = I;
layers = (
{
layerId = m01;
shapes = (
{
closed = 1;
nodes = (
(385,260,l),
(385,132,o),
(340,92,o),
(275,92,c),
(209,92,o),
(145,133,o),
(145,225,c),
(40,225,l),
(40,88,o),
(123,-8,o),
(283,-8,c),
(487,-8,o),
(490,151,o),
(490,240,c),
(490,700,l),
(385,700,l)
);
}
);
userData = {
com.hugojourdan.ColorFlow = {
"0" = 0;
"1" = 0;
"10" = 0;
"11" = 0;
"2" = 0;
"3" = 0;
"4" = 0;
"5" = 0;
"6" = 0;
"7" = 0;
"8" = 0;
"9" = 0;
};
};
width = 563;
},
{
layerId = m002;
shapes = (
{
closed = 1;
nodes = (
(365,260,l),
(365,132,o),
(320,92,o),
(255,92,c),
(189,92,o),
(125,133,o),
(125,225,c),
(20,225,l),
(20,88,o),
(103,-8,o),
(263,-8,c),
(467,-8,o),
(470,151,o),
(470,240,c),
(470,700,l),
(365,700,l)
);
}
);
userData = {
com.hugojourdan.ColorFlow = {
"0" = 0;
"1" = 0;
"10" = 0;
"11" = 0;
"2" = 0;
"3" = 0;
"4" = 0;
"5" = 0;
"6" = 0;
"7" = 0;
"8" = 0;
"9" = 0;
};
};
width = 523;
},
{
layerId = m003;
shapes = (
{
closed = 1;
nodes = (
(486,260,l),
(486,132,o),
(441,92,o),
(376,92,c),
(310,92,o),
(246,133,o),
(246,225,c),
(141,225,l),
(141,88,o),
(224,-8,o),
(384,-8,c),
(588,-8,o),
(591,151,o),
(591,240,c),
(591,700,l),
(486,700,l)
);
}
);
userData = {
com.hugojourdan.ColorFlow = {
"0" = 0;
"1" = 0;
"10" = 0;
"11" = 0;
"2" = 0;
"3" = 0;
"4" = 0;
"5" = 0;
"6" = 0;
"7" = 0;
"8" = 0;
"9" = 0;
};
};
width = 660;
}
);
unicode = 74;
}
{
glyphname = K;
kernLeft = H;
kernRight = K;
layers = (
{
layerId = m01;
shapes = (
{
closed = 1;
nodes = (
(431,0,l),
(554,0,l),
(281,348,l),
(574,707,l),
(449,707,l),
(161,348,l)
);
},
{
closed = 1;
nodes = (
(80,0,l),
(185,0,l),
(185,700,l),
(80,700,l)
);
}
);
userData = {
com.hugojourdan.ColorFlow = {
"0" = 0;
"1" = 0;
"10" = 0;
"11" = 0;
"2" = 0;
"3" = 0;
"4" = 0;
"5" = 0;
"6" = 0;
"7" = 0;
"8" = 0;
"9" = 0;
};
};
width = 608;
},
{
layerId = m002;
shapes = (
{
closed = 1;
nodes = (
(411,0,l),
(534,0,l),
(261,348,l),
(554,707,l),
(429,707,l),
(141,348,l)
);
},
{
closed = 1;
nodes = (
(60,0,l),
(165,0,l),
(165,700,l),
(60,700,l)
);
}
);
userData = {
com.hugojourdan.ColorFlow = {
"0" = 0;
"1" = 0;
"10" = 0;
"11" = 0;
"2" = 0;
"3" = 0;
"4" = 0;
"5" = 0;
"6" = 0;
"7" = 0;
"8" = 0;
"9" = 0;
};
};
width = 568;
},
{
layerId = m003;
shapes = (
{
closed = 1;
nodes = (
(446,0,l),
(569,0,l),
(296,348,l),
(589,707,l),
(464,707,l),
(176,348,l)
);
},
{
closed = 1;
nodes = (
(95,0,l),
(200,0,l),
(200,700,l),
(95,700,l)
);
}
);
userData = {
com.hugojourdan.ColorFlow = {
"0" = 0;
"1" = 0;
"10" = 0;
"11" = 0;
"2" = 0;
"3" = 0;
"4" = 0;
"5" = 0;
"6" = 0;
"7" = 0;
"8" = 0;
"9" = 0;
};
};
width = 660;
}
);
unicode = 75;
}
{
glyphname = L;
kernLeft = H;
kernRight = L;
layers = (
{
layerId = m01;
shapes = (
{
closed = 1;
nodes = (
(45,0,l),
(150,0,l),
(150,700,l),
(45,700,l)
);
},
{
closed = 1;
nodes = (
(150,0,l),
(477,0,l),
(477,90,l),
(150,90,l)
);
}
);
userData = {
com.hugojourdan.ColorFlow = {
"0" = 0;
"1" = 0;
"10" = 0;
"11" = 0;
"2" = 0;
"3" = 0;
"4" = 0;
"5" = 0;
"6" = 0;
"7" = 0;
"8" = 0;
"9" = 0;
};
};
width = 522;
},
{
layerId = m002;
shapes = (
{
closed = 1;
nodes = (
(52,0,l),
(157,0,l),
(157,700,l),
(52,700,l)
);
},
{
closed = 1;
nodes = (
(157,0,l),
(484,0,l),
(484,90,l),
(157,90,l)
);
}
);
userData = {
com.hugojourdan.ColorFlow = {
"0" = 0;
"1" = 0;
"10" = 0;
"11" = 0;
"2" = 0;
"3" = 0;
"4" = 0;
"5" = 0;
"6" = 0;
"7" = 0;
"8" = 0;
"9" = 0;
};
};
width = 536;
},
{
layerId = m003;
shapes = (
{
closed = 1;
nodes = (
(50,0,l),
(155,0,l),
(155,700,l),
(50,700,l)
);
},
{
closed = 1;
nodes = (
(155,0,l),
(482,0,l),
(482,90,l),
(155,90,l)
);
}
);
userData = {
com.hugojourdan.ColorFlow = {
"0" = 0;
"1" = 0;
"10" = 0;
"11" = 0;
"2" = 0;
"3" = 0;
"4" = 0;
"5" = 0;
"6" = 0;
"7" = 0;
"8" = 0;
"9" = 0;
};
};
width = 532;
}
);
metricLeft = "=H";
metricRight = "=H";
unicode = 76;
}
{
glyphname = M;
kernLeft = H;
kernRight = H;
layers = (
{
layerId = m01;
shapes = (
{
closed = 1;
nodes = (
(443,0,l),
(631,528,l),
(631,0,l),
(736,0,l),
(736,700,l),
(579,698,l),
(391,142,l),
(197,700,l),
(45,700,l),
(45,0,l),
(150,0,l),
(150,528,l),
(338,0,l)
);
}
);
userData = {
com.hugojourdan.ColorFlow = {
"0" = 0;
"1" = 0;
"10" = 0;
"11" = 0;
"2" = 0;
"3" = 0;
"4" = 0;
"5" = 0;
"6" = 0;
"7" = 0;
"8" = 0;
"9" = 0;
};
};
width = 781;
},
{
layerId = m002;
shapes = (
{
closed = 1;
nodes = (
(450,0,l),
(638,528,l),
(638,0,l),
(743,0,l),
(743,700,l),
(586,698,l),
(398,142,l),
(204,700,l),
(52,700,l),
(52,0,l),
(157,0,l),
(157,528,l),
(345,0,l)
);
}
);
userData = {
com.hugojourdan.ColorFlow = {
"0" = 0;
"1" = 0;
"10" = 0;
"11" = 0;
"2" = 0;
"3" = 0;
"4" = 0;
"5" = 0;
"6" = 0;
"7" = 0;
"8" = 0;
"9" = 0;
};
};
width = 795;
},
{
layerId = m003;
shapes = (
{
closed = 1;
nodes = (
(448,0,l),
(636,528,l),
(636,0,l),
(741,0,l),
(741,700,l),
(584,698,l),
(396,142,l),
(202,700,l),
(50,700,l),
(50,0,l),
(155,0,l),
(155,528,l),
(343,0,l)
);
}
);
userData = {
com.hugojourdan.ColorFlow = {
"0" = 0;
"1" = 0;
"10" = 0;
"11" = 0;
"2" = 0;
"3" = 0;
"4" = 0;
"5" = 0;
"6" = 0;
"7" = 0;
"8" = 0;
"9" = 0;
};
};
width = 791;
}
);
metricLeft = "=H";
metricRight = "=H";
unicode = 77;
}
{
glyphname = N;
kernLeft = H;
kernRight = H;
layers = (
{
layerId = m01;
shapes = (
{
closed = 1;
nodes = (
(502,109,l),
(214,700,l),
(56,700,l),
(56,0,l),
(161,0,l),
(161,571,l),
(449,0,l),
(607,0,l),
(607,700,l),
(502,700,l)
);
}
);
userData = {
com.hugojourdan.ColorFlow = {
"0" = 0;
"1" = 0;
"10" = 0;
"11" = 0;
"2" = 0;
"3" = 0;
"4" = 0;
"5" = 0;
"6" = 0;
"7" = 0;
"8" = 0;
"9" = 0;
};
};
width = 663;
},
{
layerId = m002;
shapes = (
{
closed = 1;
nodes = (
(502,109,l),
(214,700,l),
(56,700,l),
(56,0,l),
(161,0,l),
(161,571,l),
(449,0,l),
(607,0,l),
(607,700,l),
(502,700,l)
);
}
);
userData = {
com.hugojourdan.ColorFlow = {
"0" = 0;
"1" = 0;
"10" = 0;
"11" = 0;
"2" = 0;
"3" = 0;
"4" = 0;
"5" = 0;
"6" = 0;
"7" = 0;
"8" = 0;
"9" = 0;
};
};
width = 663;
},
{
layerId = m003;
shapes = (
{
closed = 1;
nodes = (
(536,109,l),
(248,700,l),
(90,700,l),
(90,0,l),
(195,0,l),
(195,571,l),
(483,0,l),
(641,0,l),
(641,700,l),
(536,700,l)
);
}
);
userData = {
com.hugojourdan.ColorFlow = {
"0" = 0;
"1" = 0;
"10" = 0;
"11" = 0;
"2" = 0;
"3" = 0;
"4" = 0;
"5" = 0;
"6" = 0;
"7" = 0;
"8" = 0;
"9" = 0;
};
};
width = 731;
}
);
metricLeft = "=H";
metricRight = "=H";
unicode = 78;
}
{
glyphname = O;
kernLeft = O;
kernRight = O;
layers = (
{
layerId = m01;
shapes = (
{
closed = 1;
nodes = (
(542,-8,o),
(676,135,o),
(676,350,cs),
(676,565,o),
(542,708,o),
(347,708,cs),
(152,708,o),
(25,565,o),
(25,350,cs),
(25,135,o),
(152,-8,o),
(347,-8,cs)
);
},
{
closed = 1;
nodes = (
(207,82,o),
(130,185,o),
(130,350,cs),
(130,515,o),
(207,618,o),
(347,618,cs),
(487,618,o),
(571,515,o),
(571,350,cs),
(571,185,o),
(487,82,o),
(347,82,cs)
);
}
);
userData = {
com.hugojourdan.ColorFlow = {
"0" = 0;
"1" = 0;
"10" = 0;
"11" = 0;
"2" = 0;
"3" = 0;
"4" = 0;
"5" = 0;
"6" = 0;
"7" = 0;
"8" = 0;
"9" = 0;
};
};
width = 701;
},
{
layerId = m002;
shapes = (
{
closed = 1;
nodes = (
(560,-8,o),
(694,135,o),
(694,350,cs),
(694,565,o),
(560,708,o),
(365,708,cs),
(170,708,o),
(43,565,o),
(43,350,cs),
(43,135,o),
(170,-8,o),
(365,-8,cs)
);
},
{
closed = 1;
nodes = (
(225,82,o),
(148,185,o),
(148,350,cs),
(148,515,o),
(225,618,o),
(365,618,cs),
(505,618,o),
(589,515,o),
(589,350,cs),
(589,185,o),
(505,82,o),
(365,82,cs)
);
}
);
userData = {
com.hugojourdan.ColorFlow = {
"0" = 0;
"1" = 0;
"10" = 0;
"11" = 0;
"2" = 0;
"3" = 0;
"4" = 0;
"5" = 0;
"6" = 0;
"7" = 0;
"8" = 0;
"9" = 0;
};
};
width = 737;
},
{
layerId = m003;
shapes = (
{
closed = 1;
nodes = (
(547,-8,o),
(681,135,o),
(681,350,cs),
(681,565,o),
(547,708,o),
(352,708,cs),
(157,708,o),
(30,565,o),
(30,350,cs),
(30,135,o),
(157,-8,o),
(352,-8,cs)
);
},
{
closed = 1;
nodes = (
(212,82,o),
(135,185,o),
(135,350,cs),
(135,515,o),
(212,618,o),
(352,618,cs),
(492,618,o),
(576,515,o),
(576,350,cs),
(576,185,o),
(492,82,o),
(352,82,cs)
);
}
);
userData = {
com.hugojourdan.ColorFlow = {
"0" = 0;
"1" = 0;
"10" = 0;
"11" = 0;
"2" = 0;
"3" = 0;
"4" = 0;
"5" = 0;
"6" = 0;
"7" = 0;
"8" = 0;
"9" = 0;
};
};
width = 711;
}
);
metricLeft = "=o+10";
metricRight = "=o+10";
unicode = 79;
}
{
glyphname = P;
kernLeft = H;
kernRight = P;
layers = (
{
layerId = m01;
shapes = (
{
closed = 1;
nodes = (
(90,0,l),
(195,0,l),
(195,700,l),
(90,700,l)
);
},
{
closed = 1;
nodes = (
(195,288,l),
(357,288,l),
(357,378,l),
(195,378,l)
);
},
{
closed = 1;
nodes = (
(195,610,l),
(357,610,l),
(357,700,l),
(195,700,l)
);
},
{
closed = 1;
nodes = (
(357,610,l),
(423,610,o),
(481,566,o),
(481,495,c),
(481,425,o),
(424,380,o),
(357,378,c),
(357,288,l),
(476,290,o),
(581,344,o),
(581,495,cs),
(581,646,o),
(476,700,o),
(357,700,c)
);
}
);
userData = {
com.hugojourdan.ColorFlow = {
"0" = 0;
"1" = 0;
"10" = 0;
"11" = 0;
"2" = 0;
"3" = 0;
"4" = 0;
"5" = 0;
"6" = 0;
"7" = 0;
"8" = 0;
"9" = 0;
};
};
width = 606;
},
{
associatedMasterId = m01;
layerId = "767DA48E-15D8-4720-A877-93C1F22FA51D";
name = "19. Jul 23, 15:23";
shapes = (
{
closed = 1;
nodes = (
(40,0,l),
(145,0,l),
(145,700,l),
(40,700,l)
);
},
{
closed = 1;
nodes = (
(145,288,l),
(307,288,l),
(307,378,l),
(145,378,l)
);
},
{
closed = 1;
nodes = (
(145,610,l),
(307,610,l),
(307,700,l),
(145,700,l)
);
},
{
closed = 1;
nodes = (
(307,610,l),
(373,610,o),
(431,569,o),
(431,486,c),
(431,409,o),
(374,380,o),
(307,378,c),
(307,288,l),
(426,290,o),
(531,335,o),
(531,486,cs),
(531,637,o),
(426,700,o),
(307,700,c)
);
}
);
userData = {
com.hugojourdan.ColorFlow = {
"0" = 0;
"1" = 0;
"10" = 0;
"11" = 0;
"2" = 0;
"3" = 0;
"4" = 0;
"5" = 0;
"6" = 0;
"7" = 0;
"8" = 0;
"9" = 0;
};
};
width = 556;
},
{
layerId = m002;
shapes = (
{
closed = 1;
nodes = (
(70,0,l),
(175,0,l),
(175,700,l),
(70,700,l)
);
},
{
closed = 1;
nodes = (
(175,288,l),
(337,288,l),
(337,378,l),
(175,378,l)
);
},
{
closed = 1;
nodes = (
(175,610,l),
(337,610,l),
(337,700,l),
(175,700,l)
);
},
{
closed = 1;
nodes = (
(337,610,l),
(403,610,o),
(461,566,o),
(461,495,c),
(461,425,o),
(404,380,o),
(337,378,c),
(337,288,l),
(456,290,o),
(561,344,o),
(561,495,cs),
(561,646,o),
(456,700,o),
(337,700,c)
);
}
);
userData = {
com.hugojourdan.ColorFlow = {
"0" = 0;
"1" = 0;
"10" = 0;
"11" = 0;
"2" = 0;
"3" = 0;
"4" = 0;
"5" = 0;
"6" = 0;
"7" = 0;
"8" = 0;
"9" = 0;
};
};
width = 604;
},
{
associatedMasterId = m002;
layerId = "4F1877E2-C10F-4519-B0C4-86CABB08FCFF";
name = "19. Jul 23, 15:23";
shapes = (
{
closed = 1;
nodes = (
(40,0,l),
(145,0,l),
(145,700,l),
(40,700,l)
);
},
{
closed = 1;
nodes = (
(145,288,l),
(307,288,l),
(307,378,l),
(145,378,l)
);
},
{
closed = 1;
nodes = (
(145,610,l),
(307,610,l),
(307,700,l),
(145,700,l)
);
},
{
closed = 1;
nodes = (
(307,610,l),
(373,610,o),
(431,569,o),
(431,486,c),
(431,409,o),
(374,380,o),
(307,378,c),
(307,288,l),
(426,290,o),
(531,335,o),
(531,486,cs),
(531,637,o),
(426,700,o),
(307,700,c)
);
}
);
userData = {
com.hugojourdan.ColorFlow = {
"0" = 0;
"1" = 0;
"10" = 0;
"11" = 0;
"2" = 0;
"3" = 0;
"4" = 0;
"5" = 0;
"6" = 0;
"7" = 0;
"8" = 0;
"9" = 0;
};
};
width = 556;
},
{
layerId = m003;
shapes = (
{
closed = 1;
nodes = (
(50,0,l),
(155,0,l),
(155,700,l),
(50,700,l)
);
},
{
closed = 1;
nodes = (
(155,288,l),
(317,288,l),
(317,378,l),
(155,378,l)
);
},
{
closed = 1;
nodes = (
(155,610,l),
(317,610,l),
(317,700,l),
(155,700,l)
);
},
{
closed = 1;
nodes = (
(317,610,l),
(383,610,o),
(441,566,o),
(441,495,c),
(441,425,o),
(384,380,o),
(317,378,c),
(317,288,l),
(436,290,o),
(541,344,o),
(541,495,cs),
(541,646,o),
(436,700,o),
(317,700,c)
);
}
);
userData = {
com.hugojourdan.ColorFlow = {
"0" = 0;
"1" = 0;
"10" = 0;
"11" = 0;
"2" = 0;
"3" = 0;
"4" = 0;
"5" = 0;
"6" = 0;
"7" = 0;
"8" = 0;
"9" = 0;
};
};
width = 571;
},
{
associatedMasterId = m003;
layerId = "DC565858-836A-446C-A2DA-BB744FBB2B33";
name = "19. Jul 23, 15:23";
shapes = (
{
closed = 1;
nodes = (
(40,0,l),
(145,0,l),
(145,700,l),
(40,700,l)
);
},
{
closed = 1;
nodes = (
(145,288,l),
(307,288,l),
(307,378,l),
(145,378,l)
);
},
{
closed = 1;
nodes = (
(145,610,l),
(307,610,l),
(307,700,l),
(145,700,l)
);
},
{
closed = 1;
nodes = (
(307,610,l),
(373,610,o),
(431,569,o),
(431,486,c),
(431,409,o),
(374,380,o),
(307,378,c),
(307,288,l),
(426,290,o),
(531,335,o),
(531,486,cs),
(531,637,o),
(426,700,o),
(307,700,c)
);
}
);
userData = {
com.hugojourdan.ColorFlow = {
"0" = 0;
"1" = 0;
"10" = 0;
"11" = 0;
"2" = 0;
"3" = 0;
"4" = 0;
"5" = 0;
"6" = 0;
"7" = 0;
"8" = 0;
"9" = 0;
};
};
width = 556;
}
);
metricLeft = "=H";
metricRight = "=O";
unicode = 80;
}
{
glyphname = Q;
kernLeft = O;
kernRight = Q;
layers = (
{
layerId = m01;
shapes = (
{
closed = 1;
nodes = (
(568,-8,o),
(700,135,o),
(700,350,cs),
(700,566,o),
(568,710,o),
(371,710,cs),
(178,710,o),
(49,566,o),
(49,350,cs),
(49,135,o),
(178,-8,o),
(371,-8,cs)
);
},
{
closed = 1;
nodes = (
(239,82,o),
(154,181,o),
(154,350,cs),
(154,513,o),
(235,620,o),
(371,620,cs),
(506,620,o),
(595,519,o),
(595,350,cs),
(595,188,o),
(512,82,o),
(371,82,cs)
);
},
{
closed = 1;
nodes = (
(386,168,l),
(630,-75,l),
(700,-3,l),
(456,241,l)
);
}
);
userData = {
com.hugojourdan.ColorFlow = {
"0" = 0;
"1" = 0;
"10" = 0;
"11" = 0;
"2" = 0;
"3" = 0;
"4" = 0;
"5" = 0;
"6" = 0;
"7" = 0;
"8" = 0;
"9" = 0;
};
};
width = 725;
},
{
layerId = m002;
shapes = (
{
closed = 1;
nodes = (
(548,-8,o),
(680,135,o),
(680,350,cs),
(680,566,o),
(548,710,o),
(351,710,cs),
(158,710,o),
(29,566,o),
(29,350,cs),
(29,135,o),
(158,-8,o),
(351,-8,cs)
);
},
{
closed = 1;
nodes = (
(219,82,o),
(134,181,o),
(134,350,cs),
(134,513,o),
(215,620,o),
(351,620,cs),
(486,620,o),
(575,519,o),
(575,350,cs),
(575,188,o),
(492,82,o),
(351,82,cs)
);
},
{
closed = 1;
nodes = (
(366,168,l),
(610,-75,l),
(680,-3,l),
(436,241,l)
);
}
);
userData = {
com.hugojourdan.ColorFlow = {
"0" = 0;
"1" = 0;
"10" = 0;
"11" = 0;
"2" = 0;
"3" = 0;
"4" = 0;
"5" = 0;
"6" = 0;
"7" = 0;
"8" = 0;
"9" = 0;
};
};
width = 723;
},
{
layerId = m003;
shapes = (
{
closed = 1;
nodes = (
(574,-8,o),
(706,135,o),
(706,350,cs),
(706,566,o),
(574,710,o),
(377,710,cs),
(184,710,o),
(55,566,o),
(55,350,cs),
(55,135,o),
(184,-8,o),
(377,-8,cs)
);
},
{
closed = 1;
nodes = (
(245,82,o),
(160,181,o),
(160,350,cs),
(160,513,o),
(241,620,o),
(377,620,cs),
(512,620,o),
(601,519,o),
(601,350,cs),
(601,188,o),
(518,82,o),
(377,82,cs)
);
},
{
closed = 1;
nodes = (
(392,168,l),
(636,-75,l),
(706,-3,l),
(462,241,l)
);
}
);
userData = {
com.hugojourdan.ColorFlow = {
"0" = 0;
"1" = 0;
"10" = 0;
"11" = 0;
"2" = 0;
"3" = 0;
"4" = 0;
"5" = 0;
"6" = 0;
"7" = 0;
"8" = 0;
"9" = 0;
};
};
width = 736;
}
);
metricRight = "=O";
unicode = 81;
}
{
glyphname = R;
kernLeft = H;
kernRight = R;
layers = (
{
layerId = m01;
shapes = (
{
closed = 1;
nodes = (
(90,0,l),
(195,0,l),
(195,700,l),
(90,700,l)
);
},
{
closed = 1;
nodes = (
(195,288,l),
(357,288,l),
(357,378,l),
(195,378,l)
);
},
{
closed = 1;
nodes = (
(195,610,l),
(357,610,l),
(357,700,l),
(195,700,l)
);
},
{
closed = 1;
nodes = (
(357,610,l),
(423,610,o),
(481,569,o),
(481,486,c),
(481,409,o),
(424,380,o),
(357,378,c),
(357,288,l),
(476,290,o),
(581,335,o),
(581,486,cs),
(581,637,o),
(476,700,o),
(357,700,c)
);
},
{
closed = 1;
nodes = (
(457,1,l),
(582,0,l),
(399,305,l),
(284,306,l)
);
}
);
userData = {
com.hugojourdan.ColorFlow = {
"0" = 0;
"1" = 0;
"10" = 0;
"11" = 0;
"2" = 0;
"3" = 0;
"4" = 0;
"5" = 0;
"6" = 0;
"7" = 0;
"8" = 0;
"9" = 0;
};
};
width = 607;
},
{
layerId = m002;
shapes = (
{
closed = 1;
nodes = (
(70,0,l),
(175,0,l),
(175,700,l),
(70,700,l)
);
},
{
closed = 1;
nodes = (
(175,288,l),
(337,288,l),
(337,378,l),
(175,378,l)
);
},
{
closed = 1;
nodes = (
(175,610,l),
(337,610,l),
(337,700,l),
(175,700,l)
);
},
{
closed = 1;
nodes = (
(337,610,l),
(403,610,o),
(461,569,o),
(461,486,c),
(461,409,o),
(404,380,o),
(337,378,c),
(337,288,l),
(456,290,o),
(561,335,o),
(561,486,cs),
(561,637,o),
(456,700,o),
(337,700,c)
);
},
{
closed = 1;
nodes = (
(437,1,l),
(562,0,l),
(379,305,l),
(264,306,l)
);
}
);
userData = {
com.hugojourdan.ColorFlow = {
"0" = 0;
"1" = 0;
"10" = 0;
"11" = 0;
"2" = 0;
"3" = 0;
"4" = 0;
"5" = 0;
"6" = 0;
"7" = 0;
"8" = 0;
"9" = 0;
};
};
width = 605;
},
{
layerId = m003;
shapes = (
{
closed = 1;
nodes = (
(50,0,l),
(155,0,l),
(155,700,l),
(50,700,l)
);
},
{
closed = 1;
nodes = (
(155,288,l),
(317,288,l),
(317,378,l),
(155,378,l)
);
},
{
closed = 1;
nodes = (
(155,610,l),
(317,610,l),
(317,700,l),
(155,700,l)
);
},
{
closed = 1;
nodes = (
(317,610,l),
(383,610,o),
(441,569,o),
(441,486,c),
(441,409,o),
(384,380,o),
(317,378,c),
(317,288,l),
(436,290,o),
(541,335,o),
(541,486,cs),
(541,637,o),
(436,700,o),
(317,700,c)
);
},
{
closed = 1;
nodes = (
(417,1,l),
(542,0,l),
(359,305,l),
(244,306,l)
);
}
);
userData = {
com.hugojourdan.ColorFlow = {
"0" = 0;
"1" = 0;
"10" = 0;
"11" = 0;
"2" = 0;
"3" = 0;
"4" = 0;
"5" = 0;
"6" = 0;
"7" = 0;
"8" = 0;
"9" = 0;
};
};
width = 572;
}
);
metricLeft = "=P";
metricRight = "=P";
unicode = 82;
}
{
glyphname = S;
kernLeft = S;
kernRight = S;
layers = (
{
layerId = m01;
shapes = (
{
closed = 1;
nodes = (
(20,242,o),
(448,361,o),
(448,195,c),
(448,134,o),
(381,93,o),
(275,93,cs),
(185,93,o),
(120,137,o),
(120,206,c),
(15,199,l),
(15,74,o),
(108,3,o),
(275,3,cs),
(448,3,o),
(553,88,o),
(553,209,cs),
(553,451,o),
(125,361,o),
(125,513,c),
(126,578,o),
(202,608,o),
(275,608,cs),
(364,608,o),
(446,562,o),
(446,493,c),
(551,500,l),
(551,624,o),
(448,698,o),
(275,698,cs),
(101,698,o),
(20,618,o),
(20,499,c)
);
}
);
userData = {
com.hugojourdan.ColorFlow = {
"0" = 0;
"1" = 0;
"10" = 0;
"11" = 0;
"2" = 0;
"3" = 0;
"4" = 0;
"5" = 0;
"6" = 0;
"7" = 0;
"8" = 0;
"9" = 0;
};
};
width = 568;
},
{
layerId = m002;
shapes = (
{
closed = 1;
nodes = (
(38,242,o),
(466,361,o),
(466,195,c),
(466,134,o),
(399,93,o),
(293,93,cs),
(203,93,o),
(138,137,o),
(138,206,c),
(33,199,l),
(33,74,o),
(126,3,o),
(293,3,cs),
(466,3,o),
(571,88,o),
(571,209,cs),
(571,451,o),
(143,361,o),
(143,513,c),
(144,578,o),
(220,608,o),
(293,608,cs),
(382,608,o),
(464,562,o),
(464,493,c),
(569,500,l),
(569,624,o),
(466,698,o),
(293,698,cs),
(119,698,o),
(38,618,o),
(38,499,c)
);
}
);
userData = {
com.hugojourdan.ColorFlow = {
"0" = 0;
"1" = 0;
"10" = 0;
"11" = 0;
"2" = 0;
"3" = 0;
"4" = 0;
"5" = 0;
"6" = 0;
"7" = 0;
"8" = 0;
"9" = 0;
};
};
width = 604;
},
{
layerId = m003;
shapes = (
{
closed = 1;
nodes = (
(25,242,o),
(453,361,o),
(453,195,c),
(453,134,o),
(386,93,o),
(280,93,cs),
(190,93,o),
(125,137,o),
(125,206,c),
(20,199,l),
(20,74,o),
(113,3,o),
(280,3,cs),
(453,3,o),
(558,88,o),
(558,209,cs),
(558,451,o),
(130,361,o),
(130,513,c),
(131,578,o),
(207,608,o),
(280,608,cs),
(369,608,o),
(451,562,o),
(451,493,c),
(556,500,l),
(556,624,o),
(453,698,o),
(280,698,cs),
(106,698,o),
(25,618,o),
(25,499,c)
);
}
);
userData = {
com.hugojourdan.ColorFlow = {
"0" = 0;
"1" = 0;
"10" = 0;
"11" = 0;
"2" = 0;
"3" = 0;
"4" = 0;
"5" = 0;
"6" = 0;
"7" = 0;
"8" = 0;
"9" = 0;
};
};
width = 578;
}
);
metricLeft = "=s";
metricRight = "=s";
unicode = 83;
}
{
glyphname = T;
kernLeft = T;
kernRight = T;
layers = (
{
layerId = m01;
shapes = (
{
closed = 1;
nodes = (
(195,0,l),
(300,0,l),
(300,700,l),
(195,700,l)
);
},
{
closed = 1;
nodes = (
(20,610,l),
(195,610,l),
(195,700,l),
(20,700,l)
);
},
{
closed = 1;
nodes = (
(300,610,l),
(474,610,l),
(474,700,l),
(300,700,l)
);
}
);
userData = {
com.hugojourdan.ColorFlow = {
"0" = 0;
"1" = 0;
"10" = 0;
"11" = 0;
"2" = 0;
"3" = 0;
"4" = 0;
"5" = 0;
"6" = 0;
"7" = 0;
"8" = 0;
"9" = 0;
};
};
width = 494;
},
{
layerId = m002;
shapes = (
{
closed = 1;
nodes = (
(195,0,l),
(300,0,l),
(300,700,l),
(195,700,l)
);
},
{
closed = 1;
nodes = (
(20,610,l),
(195,610,l),
(195,700,l),
(20,700,l)
);
},
{
closed = 1;
nodes = (
(300,610,l),
(474,610,l),
(474,700,l),
(300,700,l)
);
}
);
userData = {
com.hugojourdan.ColorFlow = {
"0" = 0;
"1" = 0;
"10" = 0;
"11" = 0;
"2" = 0;
"3" = 0;
"4" = 0;
"5" = 0;
"6" = 0;
"7" = 0;
"8" = 0;
"9" = 0;
};
};
width = 494;
},
{
layerId = m003;
shapes = (
{
closed = 1;
nodes = (
(195,0,l),
(300,0,l),
(300,700,l),
(195,700,l)
);
},
{
closed = 1;
nodes = (
(20,610,l),
(195,610,l),
(195,700,l),
(20,700,l)
);
},
{
closed = 1;
nodes = (
(300,610,l),
(474,610,l),
(474,700,l),
(300,700,l)
);
}
);
userData = {
com.hugojourdan.ColorFlow = {
"0" = 0;
"1" = 0;
"10" = 0;
"11" = 0;
"2" = 0;
"3" = 0;
"4" = 0;
"5" = 0;
"6" = 0;
"7" = 0;
"8" = 0;
"9" = 0;
};
};
width = 494;
}
);
metricLeft = "=20";
metricRight = "=20";
unicode = 84;
}
{
glyphname = U;
kernLeft = U;
kernRight = U;
layers = (
{
layerId = m01;
shapes = (
{
closed = 1;
nodes = (
(486,260,l),
(486,133,o),
(403,92,o),
(328,92,c),
(253,92,o),
(175,133,o),
(175,260,c),
(175,700,l),
(70,700,l),
(70,240,l),
(70,103,o),
(171,-8,o),
(326,-8,c),
(481,-8,o),
(591,101,o),
(591,240,c),
(591,700,l),
(486,700,l)
);
}
);
userData = {
com.hugojourdan.ColorFlow = {
"0" = 0;
"1" = 0;
"10" = 0;
"11" = 0;
"2" = 0;
"3" = 0;
"4" = 0;
"5" = 0;
"6" = 0;
"7" = 0;
"8" = 0;
"9" = 0;
};
};
width = 661;
},
{
layerId = m002;
shapes = (
{
closed = 1;
nodes = (
(466,260,l),
(466,133,o),
(383,92,o),
(308,92,c),
(233,92,o),
(155,133,o),
(155,260,c),
(155,700,l),
(50,700,l),
(50,240,l),
(50,103,o),
(151,-8,o),
(306,-8,c),
(461,-8,o),
(571,101,o),
(571,240,c),
(571,700,l),
(466,700,l)
);
}
);
userData = {
com.hugojourdan.ColorFlow = {
"0" = 0;
"1" = 0;
"10" = 0;
"11" = 0;
"2" = 0;
"3" = 0;
"4" = 0;
"5" = 0;
"6" = 0;
"7" = 0;
"8" = 0;
"9" = 0;
};
};
width = 621;
},
{
layerId = m003;
shapes = (
{
closed = 1;
nodes = (
(486,260,l),
(486,133,o),
(403,92,o),
(328,92,c),
(253,92,o),
(175,133,o),
(175,260,c),
(175,700,l),
(70,700,l),
(70,240,l),
(70,103,o),
(171,-8,o),
(326,-8,c),
(481,-8,o),
(591,101,o),
(591,240,c),
(591,700,l),
(486,700,l)
);
}
);
userData = {
com.hugojourdan.ColorFlow = {
"0" = 0;
"1" = 0;
"10" = 0;
"11" = 0;
"2" = 0;
"3" = 0;
"4" = 0;
"5" = 0;
"6" = 0;
"7" = 0;
"8" = 0;
"9" = 0;
};
};
width = 660;
}
);
unicode = 85;
}
{
glyphname = V;
kernLeft = V;
kernRight = V;
layers = (
{
layerId = m01;
shapes = (
{
closed = 1;
nodes = (
(303,0,l),
(443,0,l),
(707,700,l),
(602,700,l),
(371,110,l),
(142,701,l),
(37,701,l)
);
}
);
userData = {
com.hugojourdan.ColorFlow = {
"0" = 0;
"1" = 0;
"10" = 0;
"11" = 0;
"2" = 0;
"3" = 0;
"4" = 0;
"5" = 0;
"6" = 0;
"7" = 0;
"8" = 0;
"9" = 0;
};
};
width = 744;
},
{
layerId = m002;
shapes = (
{
closed = 1;
nodes = (
(283,0,l),
(423,0,l),
(687,700,l),
(582,700,l),
(351,110,l),
(122,701,l),
(17,701,l)
);
}
);
userData = {
com.hugojourdan.ColorFlow = {
"0" = 0;
"1" = 0;
"10" = 0;
"11" = 0;
"2" = 0;
"3" = 0;
"4" = 0;
"5" = 0;
"6" = 0;
"7" = 0;
"8" = 0;
"9" = 0;
};
};
width = 704;
},
{
layerId = m003;
shapes = (
{
closed = 1;
nodes = (
(296,0,l),
(436,0,l),
(700,700,l),
(595,700,l),
(364,110,l),
(135,700,l),
(30,700,l)
);
}
);
userData = {
com.hugojourdan.ColorFlow = {
"0" = 0;
"1" = 0;
"10" = 0;
"11" = 0;
"2" = 0;
"3" = 0;
"4" = 0;
"5" = 0;
"6" = 0;
"7" = 0;
"8" = 0;
"9" = 0;
};
};
width = 730;
}
);
metricLeft = "=v";
metricRight = "=v";
unicode = 86;
}
{
glyphname = W;
kernLeft = V;
kernRight = V;
layers = (
{
layerId = m01;
shapes = (
{
closed = 1;
nodes = (
(192,0,l),
(332,0,l),
(469,548,l),
(587,0,l),
(727,0,l),
(913,700,l),
(808,700,l),
(655,110,l),
(541,700,l),
(411,700,l),
(272,110,l),
(144,700,l),
(39,700,l)
);
}
);
userData = {
com.hugojourdan.ColorFlow = {
"0" = 0;
"1" = 0;
"10" = 0;
"11" = 0;
"2" = 0;
"3" = 0;
"4" = 0;
"5" = 0;
"6" = 0;
"7" = 0;
"8" = 0;
"9" = 0;
};
};
width = 950;
},
{
associatedMasterId = m01;
layerId = "0084DC26-9980-463B-9F41-BEB6D52AE52E";
name = "14. Jun 23, 11:30";
shapes = (
{
closed = 1;
nodes = (
(252,0,l),
(391,0,l),
(503,570,l),
(637,0,l),
(776,0,l),
(989,700,l),
(884,700,l),
(715,110,l),
(569,700,l),
(430,700,l),
(315,110,l),
(115,701,l),
(10,701,l)
);
}
);
userData = {
com.hugojourdan.ColorFlow = {
"0" = 0;
"1" = 0;
"10" = 0;
"11" = 0;
"2" = 0;
"3" = 0;
"4" = 0;
"5" = 0;
"6" = 0;
"7" = 0;
"8" = 0;
"9" = 0;
};
};
width = 999;
},
{
layerId = m002;
shapes = (
{
closed = 1;
nodes = (
(172,0,l),
(312,0,l),
(449,548,l),
(567,0,l),
(707,0,l),
(893,700,l),
(788,700,l),
(635,110,l),
(521,700,l),
(391,700,l),
(252,110,l),
(124,700,l),
(19,700,l)
);
}
);
userData = {
com.hugojourdan.ColorFlow = {
"0" = 0;
"1" = 0;
"10" = 0;
"11" = 0;
"2" = 0;
"3" = 0;
"4" = 0;
"5" = 0;
"6" = 0;
"7" = 0;
"8" = 0;
"9" = 0;
};
};
width = 910;
},
{
associatedMasterId = m002;
layerId = "F2570CF6-2BB4-4EC7-9029-223169ADAC98";
name = "14. Jun 23, 11:30";
shapes = (
{
closed = 1;
nodes = (
(252,0,l),
(391,0,l),
(503,570,l),
(637,0,l),
(776,0,l),
(989,700,l),
(884,700,l),
(715,110,l),
(569,700,l),
(430,700,l),
(315,110,l),
(115,701,l),
(10,701,l)
);
}
);
userData = {
com.hugojourdan.ColorFlow = {
"0" = 0;
"1" = 0;
"10" = 0;
"11" = 0;
"2" = 0;
"3" = 0;
"4" = 0;
"5" = 0;
"6" = 0;
"7" = 0;
"8" = 0;
"9" = 0;
};
};
width = 999;
},
{
layerId = m003;
shapes = (
{
closed = 1;
nodes = (
(183,0,l),
(323,0,l),
(460,548,l),
(578,0,l),
(718,0,l),
(904,700,l),
(799,700,l),
(646,110,l),
(532,700,l),
(402,700,l),
(263,110,l),
(135,700,l),
(30,700,l)
);
}
);
userData = {
com.hugojourdan.ColorFlow = {
"0" = 0;
"1" = 0;
"10" = 0;
"11" = 0;
"2" = 0;
"3" = 0;
"4" = 0;
"5" = 0;
"6" = 0;
"7" = 0;
"8" = 0;
"9" = 0;
};
};
width = 934;
},
{
associatedMasterId = m003;
layerId = "B153EBBB-0B9E-4A6B-B76D-1112A21CED66";
name = "14. Jun 23, 11:30";
shapes = (
{
closed = 1;
nodes = (
(252,0,l),
(391,0,l),
(503,570,l),
(637,0,l),
(776,0,l),
(989,700,l),
(884,700,l),
(715,110,l),
(569,700,l),
(430,700,l),
(315,110,l),
(115,701,l),
(10,701,l)
);
}
);
userData = {
com.hugojourdan.ColorFlow = {
"0" = 0;
"1" = 0;
"10" = 0;
"11" = 0;
"2" = 0;
"3" = 0;
"4" = 0;
"5" = 0;
"6" = 0;
"7" = 0;
"8" = 0;
"9" = 0;
};
};
width = 999;
}
);
unicode = 87;
}
{
glyphname = X;
kernLeft = X;
kernRight = X;
layers = (
{
layerId = m01;
shapes = (
{
closed = 1;
nodes = (
(284,351,l),
(40,0,l),
(163,0,l),
(347,256,l),
(528,0,l),
(645,0,l),
(408,351,l),
(642,700,l),
(521,700,l),
(347,432,l),
(159,700,l),
(37,700,l)
);
}
);
userData = {
com.hugojourdan.ColorFlow = {
"0" = 0;
"1" = 0;
"10" = 0;
"11" = 0;
"2" = 0;
"3" = 0;
"4" = 0;
"5" = 0;
"6" = 0;
"7" = 0;
"8" = 0;
"9" = 0;
};
};
width = 682;
},
{
layerId = m002;
shapes = (
{
closed = 1;
nodes = (
(250,351,l),
(6,0,l),
(129,0,l),
(313,256,l),
(494,0,l),
(611,0,l),
(374,351,l),
(608,700,l),
(487,700,l),
(313,432,l),
(125,700,l),
(3,700,l)
);
}
);
userData = {
com.hugojourdan.ColorFlow = {
"0" = 0;
"1" = 0;
"10" = 0;
"11" = 0;
"2" = 0;
"3" = 0;
"4" = 0;
"5" = 0;
"6" = 0;
"7" = 0;
"8" = 0;
"9" = 0;
};
};
width = 614;
},
{
layerId = m003;
shapes = (
{
closed = 1;
nodes = (
(304,351,l),
(60,0,l),
(183,0,l),
(367,256,l),
(548,0,l),
(665,0,l),
(428,351,l),
(662,700,l),
(541,700,l),
(367,432,l),
(179,700,l),
(57,700,l)
);
}
);
userData = {
com.hugojourdan.ColorFlow = {
"0" = 0;
"1" = 0;
"10" = 0;
"11" = 0;
"2" = 0;
"3" = 0;
"4" = 0;
"5" = 0;
"6" = 0;
"7" = 0;
"8" = 0;
"9" = 0;
};
};
width = 722;
}
);
metricLeft = "=V";
metricRight = "=V";
unicode = 88;
}
{
glyphname = Y;
kernLeft = Y;
kernRight = Y;
layers = (
{
layerId = m01;
shapes = (
{
closed = 1;
nodes = (
(254,260,l),
(255,260,l),
(255,0,l),
(360,0,l),
(360,260,l),
(630,700,l),
(525,700,l),
(306,351,l),
(105,701,l),
(0,701,l)
);
}
);
userData = {
com.hugojourdan.ColorFlow = {
"0" = 0;
"1" = 0;
"10" = 0;
"11" = 0;
"2" = 0;
"3" = 0;
"4" = 0;
"5" = 0;
"6" = 0;
"7" = 0;
"8" = 0;
"9" = 0;
};
};
width = 630;
},
{
layerId = m002;
shapes = (
{
closed = 1;
nodes = (
(271,260,l),
(272,260,l),
(272,0,l),
(377,0,l),
(377,260,l),
(647,700,l),
(542,700,l),
(323,351,l),
(122,701,l),
(17,701,l)
);
}
);
userData = {
com.hugojourdan.ColorFlow = {
"0" = 0;
"1" = 0;
"10" = 0;
"11" = 0;
"2" = 0;
"3" = 0;
"4" = 0;
"5" = 0;
"6" = 0;
"7" = 0;
"8" = 0;
"9" = 0;
};
};
width = 664;
},
{
layerId = m003;
shapes = (
{
closed = 1;
nodes = (
(284,260,l),
(285,260,l),
(285,0,l),
(390,0,l),
(390,260,l),
(660,700,l),
(555,700,l),
(336,351,l),
(135,700,l),
(30,700,l)
);
}
);
userData = {
com.hugojourdan.ColorFlow = {
"0" = 0;
"1" = 0;
"10" = 0;
"11" = 0;
"2" = 0;
"3" = 0;
"4" = 0;
"5" = 0;
"6" = 0;
"7" = 0;
"8" = 0;
"9" = 0;
};
};
width = 690;
}
);
metricLeft = "=V";
metricRight = "=V";
unicode = 89;
}
{
glyphname = Z;
kernLeft = Z;
kernRight = Z;
layers = (
{
layerId = m01;
shapes = (
{
closed = 1;
nodes = (
(164,90,l),
(578,617,l),
(578,699,l),
(47,699,l),
(47,609,l),
(456,609,l),
(47,90,l),
(48,0,l),
(560,0,l),
(560,90,l)
);
}
);
userData = {
com.hugojourdan.ColorFlow = {
"0" = 0;
"1" = 0;
"10" = 0;
"11" = 0;
"2" = 0;
"3" = 0;
"4" = 0;
"5" = 0;
"6" = 0;
"7" = 0;
"8" = 0;
"9" = 0;
};
};
width = 621;
},
{
layerId = m002;
shapes = (
{
closed = 1;
nodes = (
(144,90,l),
(558,617,l),
(558,699,l),
(27,699,l),
(27,609,l),
(436,609,l),
(27,90,l),
(28,0,l),
(540,0,l),
(540,90,l)
);
}
);
userData = {
com.hugojourdan.ColorFlow = {
"0" = 0;
"1" = 0;
"10" = 0;
"11" = 0;
"2" = 0;
"3" = 0;
"4" = 0;
"5" = 0;
"6" = 0;
"7" = 0;
"8" = 0;
"9" = 0;
};
};
width = 581;
},
{
layerId = m003;
shapes = (
{
closed = 1;
nodes = (
(198,90,l),
(612,617,l),
(612,699,l),
(81,699,l),
(81,609,l),
(490,609,l),
(81,90,l),
(82,0,l),
(594,0,l),
(594,90,l)
);
}
);
userData = {
com.hugojourdan.ColorFlow = {
"0" = 0;
"1" = 0;
"10" = 0;
"11" = 0;
"2" = 0;
"3" = 0;
"4" = 0;
"5" = 0;
"6" = 0;
"7" = 0;
"8" = 0;
"9" = 0;
};
};
width = 660;
}
);
unicode = 90;
}
{
glyphname = a;
kernLeft = a;
kernRight = u;
layers = (
{
layerId = m01;
shapes = (
{
closed = 1;
nodes = (
(357,0,l),
(457,0,l),
(457,338,ls),
(457,434,o),
(378,508,o),
(249,508,cs),
(131,508,o),
(40,448,o),
(40,324,c),
(140,324,l),
(140,383,o),
(189,425,o),
(249,425,cs),
(309,425,o),
(357,383,o),
(357,333,c)
);
},
{
closed = 1;
nodes = (
(133,308,o),
(41,236,o),
(41,128,cs),
(41,27,o),
(131,-8,o),
(198,-8,cs),
(301,-8,o),
(371,43,o),
(371,205,c),
(357,192,l),
(357,149,o),
(320,88,o),
(265,70,cs),
(186,44,o),
(122,81,o),
(122,139,cs),
(122,216,o),
(255,229,o),
(374,229,c),
(374,308,l)
);
}
);
userData = {
com.hugojourdan.ColorFlow = {
"0" = 0;
"1" = 0;
"10" = 0;
"11" = 0;
"2" = 0;
"3" = 0;
"4" = 0;
"5" = 0;
"6" = 0;
"7" = 0;
"8" = 0;
"9" = 0;
};
};
width = 507;
},
{
layerId = m002;
shapes = (
{
closed = 1;
nodes = (
(357,0,l),
(457,0,l),
(457,338,ls),
(457,434,o),
(378,508,o),
(249,508,cs),
(131,508,o),
(40,448,o),
(40,324,c),
(140,324,l),
(140,383,o),
(189,425,o),
(249,425,cs),
(309,425,o),
(357,383,o),
(357,333,c)
);
},
{
closed = 1;
nodes = (
(133,308,o),
(41,236,o),
(41,128,cs),
(41,27,o),
(131,-8,o),
(198,-8,cs),
(301,-8,o),
(371,43,o),
(371,205,c),
(357,192,l),
(357,149,o),
(320,88,o),
(265,70,cs),
(186,44,o),
(122,81,o),
(122,139,cs),
(122,216,o),
(255,229,o),
(374,229,c),
(374,308,l)
);
}
);
userData = {
com.hugojourdan.ColorFlow = {
"0" = 0;
"1" = 0;
"10" = 0;
"11" = 0;
"2" = 0;
"3" = 0;
"4" = 0;
"5" = 0;
"6" = 0;
"7" = 0;
"8" = 0;
"9" = 0;
};
};
width = 507;
},
{
layerId = m003;
shapes = (
{
closed = 1;
nodes = (
(367,0,l),
(467,0,l),
(467,338,ls),
(467,434,o),
(388,508,o),
(259,508,cs),
(141,508,o),
(50,448,o),
(50,324,c),
(150,324,l),
(150,383,o),
(199,425,o),
(259,425,cs),
(319,425,o),
(367,383,o),
(367,333,c)
);
},
{
closed = 1;
nodes = (
(143,308,o),
(51,236,o),
(51,128,cs),
(51,27,o),
(141,-8,o),
(208,-8,cs),
(311,-8,o),
(381,43,o),
(381,205,c),
(367,192,l),
(367,149,o),
(330,88,o),
(275,70,cs),
(196,44,o),
(132,81,o),
(132,139,cs),
(132,216,o),
(265,229,o),
(384,229,c),
(384,308,l)
);
}
);
width = 517;
}
);
metricLeft = "=s";
metricRight = "=n";
unicode = 97;
}
{
glyphname = b;
kernLeft = l;
kernRight = o;
layers = (
{
layerId = m01;
shapes = (
{
closed = 1;
nodes = (
(46,0,l),
(146,0,l),
(146,800,l),
(46,800,l)
);
},
{
closed = 1;
nodes = (
(440,-8,o),
(508,92,o),
(508,250,cs),
(508,400,o),
(440,508,o),
(300,508,cs),
(170,508,o),
(128,411,o),
(128,250,cs),
(128,104,o),
(151,-8,o),
(300,-8,cs)
);
},
{
closed = 1;
nodes = (
(185,72,o),
(146,146,o),
(146,250,cs),
(146,353,o),
(185,428,o),
(280,428,cs),
(370,428,o),
(408,360,o),
(408,250,cs),
(408,140,o),
(370,72,o),
(280,72,cs)
);
}
);
userData = {
com.hugojourdan.ColorFlow = {
"0" = 0;
"1" = 0;
"10" = 0;
"11" = 0;
"2" = 0;
"3" = 0;
"4" = 0;
"5" = 0;
"6" = 0;
"7" = 0;
"8" = 0;
"9" = 0;
};
};
width = 538;
},
{
layerId = m002;
shapes = (
{
closed = 1;
nodes = (
(46,0,l),
(146,0,l),
(146,800,l),
(46,800,l)
);
},
{
closed = 1;
nodes = (
(440,-8,o),
(508,92,o),
(508,250,cs),
(508,400,o),
(440,508,o),
(300,508,cs),
(170,508,o),
(128,411,o),
(128,250,cs),
(128,104,o),
(151,-8,o),
(300,-8,cs)
);
},
{
closed = 1;
nodes = (
(185,72,o),
(146,146,o),
(146,250,cs),
(146,353,o),
(185,428,o),
(280,428,cs),
(370,428,o),
(408,360,o),
(408,250,cs),
(408,140,o),
(370,72,o),
(280,72,cs)
);
}
);
userData = {
com.hugojourdan.ColorFlow = {
"0" = 0;
"1" = 0;
"10" = 0;
"11" = 0;
"2" = 0;
"3" = 0;
"4" = 0;
"5" = 0;
"6" = 0;
"7" = 0;
"8" = 0;
"9" = 0;
};
};
width = 538;
},
{
layerId = m003;
shapes = (
{
closed = 1;
nodes = (
(80,0,l),
(180,0,l),
(180,800,l),
(80,800,l)
);
},
{
closed = 1;
nodes = (
(474,-8,o),
(542,92,o),
(542,250,cs),
(542,400,o),
(474,508,o),
(334,508,cs),
(204,508,o),
(162,411,o),
(162,250,cs),
(162,104,o),
(185,-8,o),
(334,-8,cs)
);
},
{
closed = 1;
nodes = (
(219,72,o),
(180,146,o),
(180,250,cs),
(180,353,o),
(219,428,o),
(314,428,cs),
(404,428,o),
(442,360,o),
(442,250,cs),
(442,140,o),
(404,72,o),
(314,72,cs)
);
}
);
userData = {
com.hugojourdan.ColorFlow = {
"0" = 0;
"1" = 0;
"10" = 0;
"11" = 0;
"2" = 0;
"3" = 0;
"4" = 0;
"5" = 0;
"6" = 0;
"7" = 0;
"8" = 0;
"9" = 0;
};
};
width = 606;
}
);
metricLeft = "=n";
metricRight = "=o";
unicode = 98;
}
{
glyphname = c;
kernLeft = o;
kernRight = o;
layers = (
{
layerId = m01;
shapes = (
{
closed = 1;
nodes = (
(387,193,l),
(378,146,o),
(343,72,o),
(253,72,cs),
(163,72,o),
(115,145,o),
(115,249,cs),
(115,352,o),
(163,428,o),
(253,428,cs),
(343,428,o),
(384,354,o),
(388,291,c),
(488,304,l),
(472,420,o),
(393,508,o),
(253,508,cs),
(113,508,o),
(15,410,o),
(15,249,cs),
(15,103,o),
(110,-8,o),
(253,-8,cs),
(377,-8,o),
(467,73,o),
(487,181,c)
);
}
);
userData = {
com.hugojourdan.ColorFlow = {
"0" = 0;
"1" = 0;
"10" = 0;
"11" = 0;
"2" = 0;
"3" = 0;
"4" = 0;
"5" = 0;
"6" = 0;
"7" = 0;
"8" = 0;
"9" = 0;
};
};
width = 503;
},
{
layerId = m002;
shapes = (
{
closed = 1;
nodes = (
(405,193,l),
(396,146,o),
(361,72,o),
(271,72,cs),
(181,72,o),
(133,145,o),
(133,249,cs),
(133,352,o),
(181,428,o),
(271,428,cs),
(361,428,o),
(402,354,o),
(406,291,c),
(506,304,l),
(490,420,o),
(411,508,o),
(271,508,cs),
(131,508,o),
(33,410,o),
(33,249,cs),
(33,103,o),
(128,-8,o),
(271,-8,cs),
(395,-8,o),
(485,73,o),
(505,181,c)
);
}
);
userData = {
com.hugojourdan.ColorFlow = {
"0" = 0;
"1" = 0;
"10" = 0;
"11" = 0;
"2" = 0;
"3" = 0;
"4" = 0;
"5" = 0;
"6" = 0;
"7" = 0;
"8" = 0;
"9" = 0;
};
};
width = 539;
},
{
layerId = m003;
shapes = (
{
closed = 1;
nodes = (
(392,193,l),
(383,146,o),
(348,72,o),
(258,72,cs),
(168,72,o),
(120,145,o),
(120,249,cs),
(120,352,o),
(168,428,o),
(258,428,cs),
(348,428,o),
(389,354,o),
(393,291,c),
(493,304,l),
(477,420,o),
(398,508,o),
(258,508,cs),
(118,508,o),
(20,410,o),
(20,249,cs),
(20,103,o),
(115,-8,o),
(258,-8,cs),
(382,-8,o),
(472,73,o),
(492,181,c)
);
}
);
userData = {
com.hugojourdan.ColorFlow = {
"0" = 0;
"1" = 0;
"10" = 0;
"11" = 0;
"2" = 0;
"3" = 0;
"4" = 0;
"5" = 0;
"6" = 0;
"7" = 0;
"8" = 0;
"9" = 0;
};
};
width = 513;
}
);
metricLeft = "=o";
metricRight = "=o";
unicode = 99;
}
{
glyphname = d;
kernLeft = o;
kernRight = l;
layers = (
{
layerId = m01;
shapes = (
{
closed = 1;
nodes = (
(402,800,l),
(402,0,l),
(502,0,l),
(502,800,l)
);
},
{
closed = 1;
nodes = (
(397,-8,o),
(420,104,o),
(420,250,cs),
(420,411,o),
(378,508,o),
(248,508,cs),
(108,508,o),
(40,400,o),
(40,250,cs),
(40,92,o),
(108,-8,o),
(248,-8,cs)
);
},
{
closed = 1;
nodes = (
(178,72,o),
(140,140,o),
(140,250,cs),
(140,360,o),
(178,428,o),
(268,428,cs),
(363,428,o),
(402,353,o),
(402,250,cs),
(402,146,o),
(363,72,o),
(268,72,cs)
);
}
);
userData = {
com.hugojourdan.ColorFlow = {
"0" = 0;
"1" = 0;
"10" = 0;
"11" = 0;
"2" = 0;
"3" = 0;
"4" = 0;
"5" = 0;
"6" = 0;
"7" = 0;
"8" = 0;
"9" = 0;
};
};
width = 552;
},
{
layerId = m002;
shapes = (
{
closed = 1;
nodes = (
(402,800,l),
(402,0,l),
(502,0,l),
(502,800,l)
);
},
{
closed = 1;
nodes = (
(397,-8,o),
(420,104,o),
(420,250,cs),
(420,411,o),
(378,508,o),
(248,508,cs),
(108,508,o),
(40,400,o),
(40,250,cs),
(40,92,o),
(108,-8,o),
(248,-8,cs)
);
},
{
closed = 1;
nodes = (
(178,72,o),
(140,140,o),
(140,250,cs),
(140,360,o),
(178,428,o),
(268,428,cs),
(363,428,o),
(402,353,o),
(402,250,cs),
(402,146,o),
(363,72,o),
(268,72,cs)
);
}
);
userData = {
com.hugojourdan.ColorFlow = {
"0" = 0;
"1" = 0;
"10" = 0;
"11" = 0;
"2" = 0;
"3" = 0;
"4" = 0;
"5" = 0;
"6" = 0;
"7" = 0;
"8" = 0;
"9" = 0;
};
};
width = 548;
},
{
layerId = m003;
shapes = (
{
closed = 1;
nodes = (
(412,800,l),
(412,0,l),
(512,0,l),
(512,800,l)
);
},
{
closed = 1;
nodes = (
(407,-8,o),
(430,104,o),
(430,250,cs),
(430,411,o),
(388,508,o),
(258,508,cs),
(118,508,o),
(50,400,o),
(50,250,cs),
(50,92,o),
(118,-8,o),
(258,-8,cs)
);
},
{
closed = 1;
nodes = (
(188,72,o),
(150,140,o),
(150,250,cs),
(150,360,o),
(188,428,o),
(278,428,cs),
(373,428,o),
(412,353,o),
(412,250,cs),
(412,146,o),
(373,72,o),
(278,72,cs)
);
}
);
userData = {
com.hugojourdan.ColorFlow = {
"0" = 0;
"1" = 0;
"10" = 0;
"11" = 0;
"2" = 0;
"3" = 0;
"4" = 0;
"5" = 0;
"6" = 0;
"7" = 0;
"8" = 0;
"9" = 0;
};
};
width = 592;
}
);
metricLeft = "=o";
metricRight = "=l";
unicode = 100;
}
{
glyphname = e;
kernLeft = o;
kernRight = o;
layers = (
{
layerId = m01;
shapes = (
{
closed = 1;
nodes = (
(405,182,l),
(390,104,o),
(329,69,o),
(266,72,cs),
(206,75,o),
(130,113,o),
(130,256,cs),
(130,386,o),
(186,428,o),
(269,428,cs),
(344,428,o),
(383,389,o),
(396,316,c),
(109,316,l),
(109,236,l),
(495,236,l),
(499,259,o),
(499,280,o),
(498,295,cs),
(490,420,o),
(395,508,o),
(269,508,cs),
(127,508,o),
(30,417,o),
(30,256,cs),
(30,110,o),
(123,-8,o),
(266,-8,cs),
(382,-8,o),
(475,66,o),
(495,170,c)
);
}
);
userData = {
com.hugojourdan.ColorFlow = {
"0" = 0;
"1" = 0;
"10" = 0;
"11" = 0;
"2" = 0;
"3" = 0;
"4" = 0;
"5" = 0;
"6" = 0;
"7" = 0;
"8" = 0;
"9" = 0;
};
};
width = 529;
},
{
layerId = m002;
shapes = (
{
closed = 1;
nodes = (
(405,182,l),
(390,104,o),
(329,69,o),
(266,72,cs),
(206,75,o),
(130,113,o),
(130,256,cs),
(130,386,o),
(186,428,o),
(269,428,cs),
(344,428,o),
(383,389,o),
(396,316,c),
(109,316,l),
(109,236,l),
(495,236,l),
(499,259,o),
(499,280,o),
(498,295,cs),
(490,420,o),
(395,508,o),
(269,508,c),
(127,508,o),
(30,417,o),
(30,256,cs),
(30,110,o),
(123,-8,o),
(266,-8,cs),
(382,-8,o),
(475,66,o),
(495,170,c)
);
}
);
userData = {
com.hugojourdan.ColorFlow = {
"0" = 0;
"1" = 0;
"10" = 0;
"11" = 0;
"2" = 0;
"3" = 0;
"4" = 0;
"5" = 0;
"6" = 0;
"7" = 0;
"8" = 0;
"9" = 0;
};
};
width = 529;
},
{
layerId = m003;
shapes = (
{
closed = 1;
nodes = (
(439,182,l),
(424,104,o),
(363,69,o),
(300,72,cs),
(240,75,o),
(164,113,o),
(164,256,cs),
(164,386,o),
(220,428,o),
(303,428,cs),
(378,428,o),
(417,389,o),
(430,316,c),
(143,316,l),
(143,236,l),
(529,236,l),
(533,259,o),
(533,280,o),
(532,295,cs),
(524,420,o),
(429,508,o),
(303,508,cs),
(161,508,o),
(64,417,o),
(64,256,cs),
(64,110,o),
(157,-8,o),
(300,-8,cs),
(416,-8,o),
(509,66,o),
(529,170,c)
);
}
);
width = 597;
}
);
metricLeft = "=o";
metricRight = "=o";
unicode = 101;
}
{
glyphname = f;
kernLeft = f;
kernRight = f;
layers = (
{
layerId = m01;
shapes = (
{
closed = 1;
nodes = (
(335,782,o),
(297,793,o),
(258,793,cs),
(141,793,o),
(84,742,o),
(84,626,cs),
(84,-1,l),
(184,-1,l),
(184,621,l),
(184,695,o),
(223,713,o),
(258,713,cs),
(288,713,o),
(326,700,o),
(357,675,c),
(357,755,l)
);
},
{
closed = 1;
nodes = (
(350,416,l),
(350,496,l),
(0,496,l),
(0,416,l)
);
}
);
userData = {
com.hugojourdan.ColorFlow = {
"0" = 0;
"1" = 0;
"10" = 0;
"11" = 0;
"2" = 0;
"3" = 0;
"4" = 0;
"5" = 0;
"6" = 0;
"7" = 0;
"8" = 0;
"9" = 0;
};
};
width = 357;
},
{
layerId = m002;
shapes = (
{
closed = 1;
nodes = (
(352,782,o),
(314,793,o),
(275,793,cs),
(158,793,o),
(101,742,o),
(101,626,cs),
(101,-1,l),
(201,-1,l),
(201,621,l),
(201,695,o),
(240,713,o),
(275,713,cs),
(305,713,o),
(343,700,o),
(374,675,c),
(374,755,l)
);
},
{
closed = 1;
nodes = (
(367,416,l),
(367,496,l),
(17,496,l),
(17,416,l)
);
}
);
userData = {
com.hugojourdan.ColorFlow = {
"0" = 0;
"1" = 0;
"10" = 0;
"11" = 0;
"2" = 0;
"3" = 0;
"4" = 0;
"5" = 0;
"6" = 0;
"7" = 0;
"8" = 0;
"9" = 0;
};
};
width = 391;
},
{
layerId = m003;
shapes = (
{
closed = 1;
nodes = (
(365,782,o),
(327,793,o),
(288,793,cs),
(171,793,o),
(114,742,o),
(114,626,cs),
(114,-1,l),
(214,-1,l),
(214,621,l),
(214,695,o),
(253,713,o),
(288,713,cs),
(318,713,o),
(356,700,o),
(387,675,c),
(387,755,l)
);
},
{
closed = 1;
nodes = (
(380,416,l),
(380,496,l),
(30,496,l),
(30,416,l)
);
}
);
userData = {
com.hugojourdan.ColorFlow = {
"0" = 0;
"1" = 0;
"10" = 0;
"11" = 0;
"2" = 0;
"3" = 0;
"4" = 0;
"5" = 0;
"6" = 0;
"7" = 0;
"8" = 0;
"9" = 0;
};
};
width = 417;
}
);
metricLeft = "=v";
metricRight = "=v";
unicode = 102;
}
{
glyphname = g;
kernLeft = g;
kernRight = g;
layers = (
{
layerId = m01;
shapes = (
{
closed = 1;
nodes = (
(402,500,l),
(402,0,l),
(502,0,l),
(502,500,l)
);
},
{
closed = 1;
nodes = (
(388,-8,o),
(420,88,o),
(420,250,cs),
(420,411,o),
(378,508,o),
(248,508,cs),
(108,508,o),
(40,398,o),
(40,248,cs),
(40,90,o),
(108,-8,o),
(248,-8,cs)
);
},
{
closed = 1;
nodes = (
(178,72,o),
(140,138,o),
(140,248,cs),
(140,358,o),
(178,428,o),
(268,428,cs),
(363,428,o),
(402,353,o),
(402,250,cs),
(402,146,o),
(363,72,o),
(268,72,cs)
);
},
{
closed = 1;
nodes = (
(402,0,l),
(402,-82,o),
(351,-128,o),
(266,-128,cs),
(196,-128,o),
(159,-97,o),
(149,-54,c),
(57,-66,l),
(77,-170,o),
(157,-208,o),
(266,-208,cs),
(416,-208,o),
(502,-136,o),
(502,0,c)
);
}
);
userData = {
com.hugojourdan.ColorFlow = {
"0" = 0;
"1" = 0;
"10" = 0;
"11" = 0;
"2" = 0;
"3" = 0;
"4" = 0;
"5" = 0;
"6" = 0;
"7" = 0;
"8" = 0;
"9" = 0;
};
};
width = 552;
},
{
layerId = m002;
shapes = (
{
closed = 1;
nodes = (
(402,500,l),
(402,0,l),
(502,0,l),
(502,500,l)
);
},
{
closed = 1;
nodes = (
(388,-8,o),
(420,88,o),
(420,250,cs),
(420,411,o),
(378,508,o),
(248,508,cs),
(108,508,o),
(40,398,o),
(40,248,cs),
(40,90,o),
(108,-8,o),
(248,-8,cs)
);
},
{
closed = 1;
nodes = (
(178,72,o),
(140,138,o),
(140,248,cs),
(140,358,o),
(178,428,o),
(268,428,cs),
(363,428,o),
(402,353,o),
(402,250,cs),
(402,146,o),
(363,72,o),
(268,72,cs)
);
},
{
closed = 1;
nodes = (
(402,0,l),
(402,-82,o),
(351,-128,o),
(266,-128,cs),
(196,-128,o),
(159,-97,o),
(149,-54,c),
(57,-66,l),
(77,-170,o),
(157,-208,o),
(266,-208,cs),
(416,-208,o),
(502,-136,o),
(502,0,c)
);
}
);
userData = {
com.hugojourdan.ColorFlow = {
"0" = 0;
"1" = 0;
"10" = 0;
"11" = 0;
"2" = 0;
"3" = 0;
"4" = 0;
"5" = 0;
"6" = 0;
"7" = 0;
"8" = 0;
"9" = 0;
};
};
width = 552;
},
{
layerId = m003;
shapes = (
{
closed = 1;
nodes = (
(402,500,l),
(402,0,l),
(502,0,l),
(502,500,l)
);
},
{
closed = 1;
nodes = (
(388,-8,o),
(420,88,o),
(420,250,cs),
(420,411,o),
(378,508,o),
(248,508,cs),
(108,508,o),
(40,398,o),
(40,248,cs),
(40,90,o),
(108,-8,o),
(248,-8,cs)
);
},
{
closed = 1;
nodes = (
(178,72,o),
(140,138,o),
(140,248,cs),
(140,358,o),
(178,428,o),
(268,428,cs),
(363,428,o),
(402,353,o),
(402,250,cs),
(402,146,o),
(363,72,o),
(268,72,cs)
);
},
{
closed = 1;
nodes = (
(402,0,l),
(402,-82,o),
(351,-128,o),
(266,-128,cs),
(196,-128,o),
(159,-97,o),
(149,-54,c),
(57,-66,l),
(77,-170,o),
(157,-208,o),
(266,-208,cs),
(416,-208,o),
(502,-136,o),
(502,0,c)
);
}
);
userData = {
com.hugojourdan.ColorFlow = {
"0" = 0;
"1" = 0;
"10" = 0;
"11" = 0;
"2" = 0;
"3" = 0;
"4" = 0;
"5" = 0;
"6" = 0;
"7" = 0;
"8" = 0;
"9" = 0;
};
};
width = 552;
}
);
metricLeft = "=o";
metricRight = "=n";
unicode = 103;
}
{
glyphname = h;
kernLeft = l;
kernRight = n;
layers = (
{
layerId = m01;
shapes = (
{
closed = 1;
nodes = (
(35,0,l),
(135,0,l),
(135,399,l),
(135,800,l),
(35,800,l)
);
},
{
closed = 1;
nodes = (
(359,0,l),
(459,0,l),
(459,313,ls),
(459,409,o),
(429,508,o),
(289,508,cs),
(151,508,o),
(117,411,o),
(117,250,c),
(135,250,l),
(135,374,o),
(185,428,o),
(255,428,cs),
(328,428,o),
(359,369,o),
(359,313,c)
);
}
);
userData = {
com.hugojourdan.ColorFlow = {
"0" = 0;
"1" = 0;
"10" = 0;
"11" = 0;
"2" = 0;
"3" = 0;
"4" = 0;
"5" = 0;
"6" = 0;
"7" = 0;
"8" = 0;
"9" = 0;
};
};
width = 494;
},
{
associatedMasterId = m01;
layerId = "0275EC6F-A43E-4437-BC1D-02FA63395B1E";
name = "19. Jul 23, 15:18";
shapes = (
{
closed = 1;
nodes = (
(30,0,l),
(130,0,l),
(130,800,l),
(30,800,l)
);
},
{
closed = 1;
nodes = (
(354,0,l),
(454,0,l),
(454,338,ls),
(454,434,o),
(371,505,o),
(280,505,cs),
(193,505,o),
(120,412,o),
(120,294,c),
(130,301,l),
(130,354,o),
(186,425,o),
(241,425,cs),
(304,425,o),
(354,385,o),
(354,333,c)
);
}
);
userData = {
com.hugojourdan.ColorFlow = {
"0" = 0;
"1" = 0;
"10" = 0;
"11" = 0;
"2" = 0;
"3" = 0;
"4" = 0;
"5" = 0;
"6" = 0;
"7" = 0;
"8" = 0;
"9" = 0;
};
};
width = 480;
},
{
layerId = m002;
shapes = (
{
closed = 1;
nodes = (
(60,0,l),
(160,0,l),
(160,399,l),
(160,800,l),
(60,800,l)
);
},
{
closed = 1;
nodes = (
(384,0,l),
(484,0,l),
(484,313,ls),
(484,409,o),
(454,508,o),
(314,508,cs),
(176,508,o),
(142,411,o),
(142,250,c),
(160,250,l),
(160,374,o),
(210,428,o),
(280,428,cs),
(353,428,o),
(384,369,o),
(384,313,c)
);
}
);
userData = {
com.hugojourdan.ColorFlow = {
"0" = 0;
"1" = 0;
"10" = 0;
"11" = 0;
"2" = 0;
"3" = 0;
"4" = 0;
"5" = 0;
"6" = 0;
"7" = 0;
"8" = 0;
"9" = 0;
};
};
width = 544;
},
{
associatedMasterId = m002;
layerId = "C66A1F63-0BB1-4CFD-B1EE-F7EFCA5273B2";
name = "19. Jul 23, 15:18";
shapes = (
{
closed = 1;
nodes = (
(30,0,l),
(130,0,l),
(130,800,l),
(30,800,l)
);
},
{
closed = 1;
nodes = (
(354,0,l),
(454,0,l),
(454,338,ls),
(454,434,o),
(371,505,o),
(280,505,cs),
(193,505,o),
(120,412,o),
(120,294,c),
(130,301,l),
(130,354,o),
(186,425,o),
(241,425,cs),
(304,425,o),
(354,385,o),
(354,333,c)
);
}
);
userData = {
com.hugojourdan.ColorFlow = {
"0" = 0;
"1" = 0;
"10" = 0;
"11" = 0;
"2" = 0;
"3" = 0;
"4" = 0;
"5" = 0;
"6" = 0;
"7" = 0;
"8" = 0;
"9" = 0;
};
};
width = 480;
},
{
layerId = m003;
shapes = (
{
closed = 1;
nodes = (
(40,0,l),
(140,0,l),
(140,399,l),
(140,800,l),
(40,800,l)
);
},
{
closed = 1;
nodes = (
(364,0,l),
(464,0,l),
(464,313,ls),
(464,409,o),
(434,508,o),
(294,508,cs),
(156,508,o),
(122,411,o),
(122,250,c),
(140,250,l),
(140,374,o),
(190,428,o),
(260,428,cs),
(333,428,o),
(364,369,o),
(364,313,c)
);
}
);
userData = {
com.hugojourdan.ColorFlow = {
"0" = 0;
"1" = 0;
"10" = 0;
"11" = 0;
"2" = 0;
"3" = 0;
"4" = 0;
"5" = 0;
"6" = 0;
"7" = 0;
"8" = 0;
"9" = 0;
};
};
width = 504;
},
{
associatedMasterId = m003;
layerId = "A3C119AF-78ED-4805-8811-1C871F1713F7";
name = "19. Jul 23, 15:18";
shapes = (
{
closed = 1;
nodes = (
(30,0,l),
(130,0,l),
(130,800,l),
(30,800,l)
);
},
{
closed = 1;
nodes = (
(354,0,l),
(454,0,l),
(454,338,ls),
(454,434,o),
(371,505,o),
(280,505,cs),
(193,505,o),
(120,412,o),
(120,294,c),
(130,301,l),
(130,354,o),
(186,425,o),
(241,425,cs),
(304,425,o),
(354,385,o),
(354,333,c)
);
}
);
userData = {
com.hugojourdan.ColorFlow = {
"0" = 0;
"1" = 0;
"10" = 0;
"11" = 0;
"2" = 0;
"3" = 0;
"4" = 0;
"5" = 0;
"6" = 0;
"7" = 0;
"8" = 0;
"9" = 0;
};
};
width = 480;
}
);
metricLeft = "=n";
metricRight = "=n";
unicode = 104;
}
{
glyphname = i;
kernLeft = l;
kernRight = l;
layers = (
{
layerId = m01;
shapes = (
{
closed = 1;
nodes = (
(59,0,l),
(159,0,l),
(159,500,l),
(59,500,l)
);
},
{
closed = 1;
nodes = (
(148,552,o),
(170,578,o),
(170,615,cs),
(170,652,o),
(148,677,o),
(111,677,cs),
(74,677,o),
(50,652,o),
(50,615,cs),
(50,578,o),
(74,552,o),
(111,552,cs)
);
}
);
userData = {
com.hugojourdan.ColorFlow = {
"0" = 0;
"1" = 0;
"10" = 0;
"11" = 0;
"2" = 0;
"3" = 0;
"4" = 0;
"5" = 0;
"6" = 0;
"7" = 0;
"8" = 0;
"9" = 0;
};
};
width = 220;
},
{
layerId = m002;
shapes = (
{
closed = 1;
nodes = (
(55,0,l),
(155,0,l),
(155,500,l),
(55,500,l)
);
},
{
closed = 1;
nodes = (
(144,552,o),
(166,578,o),
(166,615,cs),
(166,652,o),
(144,677,o),
(107,677,cs),
(70,677,o),
(46,652,o),
(46,615,cs),
(46,578,o),
(70,552,o),
(107,552,cs)
);
}
);
userData = {
com.hugojourdan.ColorFlow = {
"0" = 0;
"1" = 0;
"10" = 0;
"11" = 0;
"2" = 0;
"3" = 0;
"4" = 0;
"5" = 0;
"6" = 0;
"7" = 0;
"8" = 0;
"9" = 0;
};
};
width = 212;
},
{
layerId = m003;
shapes = (
{
closed = 1;
nodes = (
(89,0,l),
(189,0,l),
(189,500,l),
(89,500,l)
);
},
{
closed = 1;
nodes = (
(178,552,o),
(200,578,o),
(200,615,cs),
(200,652,o),
(178,677,o),
(141,677,cs),
(104,677,o),
(80,652,o),
(80,615,cs),
(80,578,o),
(104,552,o),
(141,552,cs)
);
}
);
userData = {
com.hugojourdan.ColorFlow = {
"0" = 0;
"1" = 0;
"10" = 0;
"11" = 0;
"2" = 0;
"3" = 0;
"4" = 0;
"5" = 0;
"6" = 0;
"7" = 0;
"8" = 0;
"9" = 0;
};
};
width = 280;
}
);
metricLeft = "=l";
metricRight = "=l";
unicode = 105;
}
{
glyphname = j;
kernLeft = j;
kernRight = l;
layers = (
{
layerId = m01;
shapes = (
{
closed = 1;
nodes = (
(131,0,ls),
(131,-66,o),
(135,-123,o),
(74,-123,cs),
(60,-123,o),
(35,-120,o),
(10,-103,c),
(10,-183,l),
(30,-200,o),
(74,-208,o),
(106,-208,cs),
(227,-208,o),
(231,-95,o),
(231,0,cs),
(231,500,l),
(131,500,l)
);
},
{
closed = 1;
nodes = (
(217,552,o),
(241,577,o),
(241,615,cs),
(241,652,o),
(219,677,o),
(183,677,cs),
(147,677,o),
(122,653,o),
(122,615,cs),
(122,577,o),
(145,552,o),
(183,552,cs)
);
}
);
userData = {
com.hugojourdan.ColorFlow = {
"0" = 0;
"1" = 0;
"10" = 0;
"11" = 0;
"2" = 0;
"3" = 0;
"4" = 0;
"5" = 0;
"6" = 0;
"7" = 0;
"8" = 0;
"9" = 0;
};
};
width = 321;
},
{
layerId = m002;
shapes = (
{
closed = 1;
nodes = (
(111,0,ls),
(111,-66,o),
(115,-123,o),
(54,-123,cs),
(40,-123,o),
(15,-120,o),
(-10,-103,c),
(-10,-183,l),
(10,-200,o),
(54,-208,o),
(86,-208,cs),
(207,-208,o),
(211,-95,o),
(211,0,cs),
(211,500,l),
(111,500,l)
);
},
{
closed = 1;
nodes = (
(197,552,o),
(221,577,o),
(221,615,cs),
(221,652,o),
(199,677,o),
(163,677,cs),
(127,677,o),
(102,653,o),
(102,615,cs),
(102,577,o),
(125,552,o),
(163,552,cs)
);
}
);
userData = {
com.hugojourdan.ColorFlow = {
"0" = 0;
"1" = 0;
"10" = 0;
"11" = 0;
"2" = 0;
"3" = 0;
"4" = 0;
"5" = 0;
"6" = 0;
"7" = 0;
"8" = 0;
"9" = 0;
};
};
width = 281;
},
{
layerId = m003;
shapes = (
{
closed = 1;
nodes = (
(91,0,ls),
(91,-66,o),
(95,-123,o),
(34,-123,cs),
(20,-123,o),
(-5,-120,o),
(-30,-103,c),
(-30,-183,l),
(-10,-200,o),
(34,-208,o),
(66,-208,cs),
(187,-208,o),
(191,-95,o),
(191,0,cs),
(191,500,l),
(91,500,l)
);
},
{
closed = 1;
nodes = (
(177,552,o),
(201,577,o),
(201,615,cs),
(201,652,o),
(179,677,o),
(143,677,cs),
(107,677,o),
(82,653,o),
(82,615,cs),
(82,577,o),
(105,552,o),
(143,552,cs)
);
}
);
userData = {
com.hugojourdan.ColorFlow = {
"0" = 0;
"1" = 0;
"10" = 0;
"11" = 0;
"2" = 0;
"3" = 0;
"4" = 0;
"5" = 0;
"6" = 0;
"7" = 0;
"8" = 0;
"9" = 0;
};
};
width = 241;
}
);
metricLeft = "=i-70";
metricRight = "=i";
unicode = 106;
}
{
glyphname = k;
kernLeft = l;
kernRight = k;
layers = (
{
layerId = m01;
shapes = (
{
closed = 1;
nodes = (
(326,0,l),
(429,0,l),
(240,270,l),
(430,499,l),
(324,499,l),
(133,270,l)
);
},
{
closed = 1;
nodes = (
(50,0,l),
(150,0,l),
(150,800,l),
(50,800,l)
);
}
);
userData = {
com.hugojourdan.ColorFlow = {
"0" = 0;
"1" = 0;
"10" = 0;
"11" = 0;
"2" = 0;
"3" = 0;
"4" = 0;
"5" = 0;
"6" = 0;
"7" = 0;
"8" = 0;
"9" = 0;
};
};
width = 467;
},
{
layerId = m002;
shapes = (
{
closed = 1;
nodes = (
(322,0,l),
(425,0,l),
(236,270,l),
(426,499,l),
(320,499,l),
(129,270,l)
);
},
{
closed = 1;
nodes = (
(46,0,l),
(146,0,l),
(146,800,l),
(46,800,l)
);
}
);
userData = {
com.hugojourdan.ColorFlow = {
"0" = 0;
"1" = 0;
"10" = 0;
"11" = 0;
"2" = 0;
"3" = 0;
"4" = 0;
"5" = 0;
"6" = 0;
"7" = 0;
"8" = 0;
"9" = 0;
};
};
width = 429;
},
{
layerId = m003;
shapes = (
{
closed = 1;
nodes = (
(356,0,l),
(459,0,l),
(270,270,l),
(460,499,l),
(354,499,l),
(163,270,l)
);
},
{
closed = 1;
nodes = (
(80,0,l),
(180,0,l),
(180,800,l),
(80,800,l)
);
}
);
userData = {
com.hugojourdan.ColorFlow = {
"0" = 0;
"1" = 0;
"10" = 0;
"11" = 0;
"2" = 0;
"3" = 0;
"4" = 0;
"5" = 0;
"6" = 0;
"7" = 0;
"8" = 0;
"9" = 0;
};
};
width = 517;
}
);
metricLeft = "=l";
metricRight = "=x";
unicode = 107;
}
{
glyphname = l;
kernLeft = l;
kernRight = l;
layers = (
{
layerId = m01;
shapes = (
{
closed = 1;
nodes = (
(80,0,l),
(180,0,l),
(180,800,l),
(80,800,l)
);
}
);
userData = {
com.hugojourdan.ColorFlow = {
"0" = 0;
"1" = 0;
"10" = 0;
"11" = 0;
"2" = 0;
"3" = 0;
"4" = 0;
"5" = 0;
"6" = 0;
"7" = 0;
"8" = 0;
"9" = 0;
};
};
width = 260;
},
{
layerId = m002;
shapes = (
{
closed = 1;
nodes = (
(60,0,l),
(160,0,l),
(160,800,l),
(60,800,l)
);
}
);
userData = {
com.hugojourdan.ColorFlow = {
"0" = 0;
"1" = 0;
"10" = 0;
"11" = 0;
"2" = 0;
"3" = 0;
"4" = 0;
"5" = 0;
"6" = 0;
"7" = 0;
"8" = 0;
"9" = 0;
};
};
width = 220;
},
{
layerId = m003;
shapes = (
{
closed = 1;
nodes = (
(40,0,l),
(140,0,l),
(140,800,l),
(40,800,l)
);
}
);
userData = {
com.hugojourdan.ColorFlow = {
"0" = 0;
"1" = 0;
"10" = 0;
"11" = 0;
"2" = 0;
"3" = 0;
"4" = 0;
"5" = 0;
"6" = 0;
"7" = 0;
"8" = 0;
"9" = 0;
};
};
width = 180;
}
);
unicode = 108;
}
{
glyphname = m;
kernLeft = n;
kernRight = n;
layers = (
{
layerId = m01;
shapes = (
{
closed = 1;
nodes = (
(50,0,l),
(150,0,l),
(150,399,l),
(150,500,l),
(50,500,l)
);
},
{
closed = 1;
nodes = (
(317,0,l),
(417,0,l),
(417,336,ls),
(417,432,o),
(373,508,o),
(277,508,cs),
(182,508,o),
(132,433,o),
(132,280,c),
(150,280,l),
(150,349,o),
(160,428,o),
(240,428,cs),
(297,428,o),
(317,388,o),
(317,336,c)
);
},
{
closed = 1;
nodes = (
(580,0,l),
(680,0,l),
(680,336,ls),
(680,432,o),
(642,508,o),
(546,508,cs),
(451,508,o),
(399,433,o),
(399,280,c),
(417,280,l),
(417,349,o),
(423,428,o),
(503,428,cs),
(560,428,o),
(580,388,o),
(580,336,c)
);
}
);
userData = {
com.hugojourdan.ColorFlow = {
"0" = 0;
"1" = 0;
"10" = 0;
"11" = 0;
"2" = 0;
"3" = 0;
"4" = 0;
"5" = 0;
"6" = 0;
"7" = 0;
"8" = 0;
"9" = 0;
};
};
width = 730;
},
{
layerId = m002;
shapes = (
{
closed = 1;
nodes = (
(50,0,l),
(150,0,l),
(150,399,l),
(150,500,l),
(50,500,l)
);
},
{
closed = 1;
nodes = (
(317,0,l),
(417,0,l),
(417,336,ls),
(417,432,o),
(373,508,o),
(277,508,cs),
(182,508,o),
(132,433,o),
(132,280,c),
(150,280,l),
(150,349,o),
(160,428,o),
(240,428,cs),
(297,428,o),
(317,388,o),
(317,336,c)
);
},
{
closed = 1;
nodes = (
(580,0,l),
(680,0,l),
(680,336,ls),
(680,432,o),
(642,508,o),
(546,508,cs),
(451,508,o),
(399,433,o),
(399,280,c),
(417,280,l),
(417,349,o),
(423,428,o),
(503,428,cs),
(560,428,o),
(580,388,o),
(580,336,c)
);
}
);
userData = {
com.hugojourdan.ColorFlow = {
"0" = 0;
"1" = 0;
"10" = 0;
"11" = 0;
"2" = 0;
"3" = 0;
"4" = 0;
"5" = 0;
"6" = 0;
"7" = 0;
"8" = 0;
"9" = 0;
};
};
width = 730;
},
{
layerId = m003;
shapes = (
{
closed = 1;
nodes = (
(50,0,l),
(150,0,l),
(150,399,l),
(150,500,l),
(50,500,l)
);
},
{
closed = 1;
nodes = (
(317,0,l),
(417,0,l),
(417,336,ls),
(417,432,o),
(373,508,o),
(277,508,cs),
(182,508,o),
(132,433,o),
(132,280,c),
(150,280,l),
(150,349,o),
(160,428,o),
(240,428,cs),
(297,428,o),
(317,388,o),
(317,336,c)
);
},
{
closed = 1;
nodes = (
(580,0,l),
(680,0,l),
(680,336,ls),
(680,432,o),
(642,508,o),
(546,508,cs),
(451,508,o),
(399,433,o),
(399,280,c),
(417,280,l),
(417,349,o),
(423,428,o),
(503,428,cs),
(560,428,o),
(580,388,o),
(580,336,c)
);
}
);
userData = {
com.hugojourdan.ColorFlow = {
"0" = 0;
"1" = 0;
"10" = 0;
"11" = 0;
"2" = 0;
"3" = 0;
"4" = 0;
"5" = 0;
"6" = 0;
"7" = 0;
"8" = 0;
"9" = 0;
};
};
width = 730;
}
);
metricLeft = "=n";
metricRight = "=n";
unicode = 109;
}
{
glyphname = n;
kernLeft = n;
kernRight = n;
layers = (
{
layerId = m01;
shapes = (
{
closed = 1;
nodes = (
(80,0,l),
(180,0,l),
(180,399,l),
(180,500,l),
(80,500,l)
);
},
{
closed = 1;
nodes = (
(404,0,l),
(504,0,l),
(504,313,ls),
(504,409,o),
(474,508,o),
(334,508,cs),
(196,508,o),
(162,411,o),
(162,250,c),
(180,250,l),
(180,374,o),
(230,428,o),
(300,428,cs),
(373,428,o),
(404,369,o),
(404,313,c)
);
}
);
userData = {
com.hugojourdan.ColorFlow = {
"0" = 0;
"1" = 0;
"10" = 0;
"11" = 0;
"2" = 0;
"3" = 0;
"4" = 0;
"5" = 0;
"6" = 0;
"7" = 0;
"8" = 0;
"9" = 0;
};
};
width = 584;
},
{
layerId = m002;
shapes = (
{
closed = 1;
nodes = (
(60,0,l),
(160,0,l),
(160,399,l),
(160,500,l),
(60,500,l)
);
},
{
closed = 1;
nodes = (
(384,0,l),
(484,0,l),
(484,313,ls),
(484,409,o),
(454,508,o),
(314,508,cs),
(176,508,o),
(142,411,o),
(142,250,c),
(160,250,l),
(160,374,o),
(210,428,o),
(280,428,cs),
(353,428,o),
(384,369,o),
(384,313,c)
);
}
);
userData = {
com.hugojourdan.ColorFlow = {
"0" = 0;
"1" = 0;
"10" = 0;
"11" = 0;
"2" = 0;
"3" = 0;
"4" = 0;
"5" = 0;
"6" = 0;
"7" = 0;
"8" = 0;
"9" = 0;
};
};
width = 544;
},
{
layerId = m003;
shapes = (
{
closed = 1;
nodes = (
(40,0,l),
(140,0,l),
(140,399,l),
(140,500,l),
(40,500,l)
);
},
{
closed = 1;
nodes = (
(364,0,l),
(464,0,l),
(464,313,ls),
(464,409,o),
(434,508,o),
(294,508,cs),
(156,508,o),
(122,411,o),
(122,250,c),
(140,250,l),
(140,374,o),
(190,428,o),
(260,428,cs),
(333,428,o),
(364,369,o),
(364,313,c)
);
}
);
userData = {
com.hugojourdan.ColorFlow = {
"0" = 0;
"1" = 0;
"10" = 0;
"11" = 0;
"2" = 0;
"3" = 0;
"4" = 0;
"5" = 0;
"6" = 0;
"7" = 0;
"8" = 0;
"9" = 0;
};
};
width = 504;
}
);
metricLeft = "=l";
metricRight = "=l";
unicode = 110;
}
{
glyphname = o;
kernLeft = o;
kernRight = o;
layers = (
{
layerId = m01;
shapes = (
{
closed = 1;
nodes = (
(393,-8,o),
(490,94,o),
(490,249,cs),
(490,404,o),
(393,508,o),
(253,508,cs),
(113,508,o),
(15,404,o),
(15,249,cs),
(15,94,o),
(113,-8,o),
(253,-8,cs)
);
},
{
closed = 1;
nodes = (
(163,72,o),
(115,139,o),
(115,249,cs),
(115,359,o),
(163,428,o),
(253,428,cs),
(343,428,o),
(390,359,o),
(390,249,cs),
(390,139,o),
(343,72,o),
(253,72,cs)
);
}
);
userData = {
com.hugojourdan.ColorFlow = {
"0" = 0;
"1" = 0;
"10" = 0;
"11" = 0;
"2" = 0;
"3" = 0;
"4" = 0;
"5" = 0;
"6" = 0;
"7" = 0;
"8" = 0;
"9" = 0;
};
};
width = 505;
},
{
layerId = m002;
shapes = (
{
closed = 1;
nodes = (
(411,-8,o),
(508,94,o),
(508,249,cs),
(508,404,o),
(411,508,o),
(271,508,cs),
(131,508,o),
(33,404,o),
(33,249,cs),
(33,94,o),
(131,-8,o),
(271,-8,cs)
);
},
{
closed = 1;
nodes = (
(181,72,o),
(133,139,o),
(133,249,cs),
(133,359,o),
(181,428,o),
(271,428,cs),
(361,428,o),
(408,359,o),
(408,249,cs),
(408,139,o),
(361,72,o),
(271,72,cs)
);
}
);
userData = {
com.hugojourdan.ColorFlow = {
"0" = 0;
"1" = 0;
"10" = 0;
"11" = 0;
"2" = 0;
"3" = 0;
"4" = 0;
"5" = 0;
"6" = 0;
"7" = 0;
"8" = 0;
"9" = 0;
};
};
width = 541;
},
{
layerId = m003;
shapes = (
{
closed = 1;
nodes = (
(398,-8,o),
(495,94,o),
(495,249,cs),
(495,404,o),
(398,508,o),
(258,508,cs),
(118,508,o),
(20,404,o),
(20,249,cs),
(20,94,o),
(118,-8,o),
(258,-8,cs)
);
},
{
closed = 1;
nodes = (
(168,72,o),
(120,139,o),
(120,249,cs),
(120,359,o),
(168,428,o),
(258,428,cs),
(348,428,o),
(395,359,o),
(395,249,cs),
(395,139,o),
(348,72,o),
(258,72,cs)
);
}
);
userData = {
com.hugojourdan.ColorFlow = {
"0" = 0;
"1" = 0;
"10" = 0;
"11" = 0;
"2" = 0;
"3" = 0;
"4" = 0;
"5" = 0;
"6" = 0;
"7" = 0;
"8" = 0;
"9" = 0;
};
};
width = 515;
}
);
unicode = 111;
}
{
glyphname = p;
kernLeft = n;
kernRight = o;
layers = (
{
layerId = m01;
shapes = (
{
closed = 1;
nodes = (
(50,-200,l),
(150,-200,l),
(150,95,l),
(171,32,o),
(215,-8,o),
(304,-8,cs),
(444,-8,o),
(512,92,o),
(512,250,cs),
(512,400,o),
(444,508,o),
(304,508,cs),
(219,508,o),
(173,469,o),
(150,399,c),
(150,500,l),
(50,500,l)
);
},
{
closed = 1;
nodes = (
(189,72,o),
(150,140,o),
(150,250,cs),
(150,360,o),
(189,428,o),
(284,428,cs),
(378,428,o),
(412,360,o),
(412,250,cs),
(412,140,o),
(378,72,o),
(284,72,cs)
);
}
);
userData = {
com.hugojourdan.ColorFlow = {
"0" = 0;
"1" = 0;
"10" = 0;
"11" = 0;
"2" = 0;
"3" = 0;
"4" = 0;
"5" = 0;
"6" = 0;
"7" = 0;
"8" = 0;
"9" = 0;
};
};
width = 552;
},
{
associatedMasterId = m01;
layerId = "3D2BB551-E5C0-4B06-9C25-36BD45297131";
name = "19. Jul 23, 14:20";
shapes = (
{
closed = 1;
nodes = (
(30,-200,l),
(130,-200,l),
(130,500,l),
(30,500,l)
);
},
{
closed = 1;
nodes = (
(424,-8,o),
(492,92,o),
(492,250,cs),
(492,400,o),
(424,508,o),
(284,508,cs),
(150,508,o),
(112,411,o),
(112,250,cs),
(112,104,o),
(135,-8,o),
(284,-8,cs)
);
},
{
closed = 1;
nodes = (
(169,72,o),
(130,140,o),
(130,250,cs),
(130,360,o),
(169,428,o),
(264,428,cs),
(358,428,o),
(392,360,o),
(392,250,cs),
(392,140,o),
(358,72,o),
(264,72,cs)
);
}
);
userData = {
com.hugojourdan.ColorFlow = {
"0" = 0;
"1" = 0;
"10" = 0;
"11" = 0;
"2" = 0;
"3" = 0;
"4" = 0;
"5" = 0;
"6" = 0;
"7" = 0;
"8" = 0;
"9" = 0;
};
};
width = 507;
},
{
layerId = m002;
shapes = (
{
closed = 1;
nodes = (
(50,-200,l),
(150,-200,l),
(150,95,l),
(171,32,o),
(215,-8,o),
(304,-8,cs),
(444,-8,o),
(512,92,o),
(512,250,cs),
(512,400,o),
(444,508,o),
(304,508,cs),
(219,508,o),
(173,469,o),
(150,399,c),
(150,500,l),
(50,500,l)
);
},
{
closed = 1;
nodes = (
(189,72,o),
(150,140,o),
(150,250,cs),
(150,360,o),
(189,428,o),
(284,428,cs),
(378,428,o),
(412,360,o),
(412,250,cs),
(412,140,o),
(378,72,o),
(284,72,cs)
);
}
);
userData = {
com.hugojourdan.ColorFlow = {
"0" = 0;
"1" = 0;
"10" = 0;
"11" = 0;
"2" = 0;
"3" = 0;
"4" = 0;
"5" = 0;
"6" = 0;
"7" = 0;
"8" = 0;
"9" = 0;
};
};
width = 552;
},
{
associatedMasterId = m002;
layerId = "7540C7CA-CA0A-4FEE-8707-3FE4A3ACF197";
name = "19. Jul 23, 14:20";
shapes = (
{
closed = 1;
nodes = (
(30,-200,l),
(130,-200,l),
(130,500,l),
(30,500,l)
);
},
{
closed = 1;
nodes = (
(424,-8,o),
(492,92,o),
(492,250,cs),
(492,400,o),
(424,508,o),
(284,508,cs),
(150,508,o),
(112,411,o),
(112,250,cs),
(112,104,o),
(135,-8,o),
(284,-8,cs)
);
},
{
closed = 1;
nodes = (
(169,72,o),
(130,140,o),
(130,250,cs),
(130,360,o),
(169,428,o),
(264,428,cs),
(358,428,o),
(392,360,o),
(392,250,cs),
(392,140,o),
(358,72,o),
(264,72,cs)
);
}
);
userData = {
com.hugojourdan.ColorFlow = {
"0" = 0;
"1" = 0;
"10" = 0;
"11" = 0;
"2" = 0;
"3" = 0;
"4" = 0;
"5" = 0;
"6" = 0;
"7" = 0;
"8" = 0;
"9" = 0;
};
};
width = 507;
},
{
layerId = m003;
shapes = (
{
closed = 1;
nodes = (
(50,-200,l),
(150,-200,l),
(150,95,l),
(171,32,o),
(215,-8,o),
(304,-8,cs),
(444,-8,o),
(512,92,o),
(512,250,cs),
(512,400,o),
(444,508,o),
(304,508,cs),
(219,508,o),
(173,469,o),
(150,399,c),
(150,500,l),
(50,500,l)
);
},
{
closed = 1;
nodes = (
(189,72,o),
(150,140,o),
(150,250,cs),
(150,360,o),
(189,428,o),
(284,428,cs),
(378,428,o),
(412,360,o),
(412,250,cs),
(412,140,o),
(378,72,o),
(284,72,cs)
);
}
);
userData = {
com.hugojourdan.ColorFlow = {
"0" = 0;
"1" = 0;
"10" = 0;
"11" = 0;
"2" = 0;
"3" = 0;
"4" = 0;
"5" = 0;
"6" = 0;
"7" = 0;
"8" = 0;
"9" = 0;
};
};
width = 562;
},
{
associatedMasterId = m003;
layerId = "47B92803-CCA7-4674-9EB6-2591A8535FEB";
name = "19. Jul 23, 14:20";
shapes = (
{
closed = 1;
nodes = (
(30,-200,l),
(130,-200,l),
(130,500,l),
(30,500,l)
);
},
{
closed = 1;
nodes = (
(424,-8,o),
(492,92,o),
(492,250,cs),
(492,400,o),
(424,508,o),
(284,508,cs),
(150,508,o),
(112,411,o),
(112,250,cs),
(112,104,o),
(135,-8,o),
(284,-8,cs)
);
},
{
closed = 1;
nodes = (
(169,72,o),
(130,140,o),
(130,250,cs),
(130,360,o),
(169,428,o),
(264,428,cs),
(358,428,o),
(392,360,o),
(392,250,cs),
(392,140,o),
(358,72,o),
(264,72,cs)
);
}
);
userData = {
com.hugojourdan.ColorFlow = {
"0" = 0;
"1" = 0;
"10" = 0;
"11" = 0;
"2" = 0;
"3" = 0;
"4" = 0;
"5" = 0;
"6" = 0;
"7" = 0;
"8" = 0;
"9" = 0;
};
};
width = 507;
}
);
metricLeft = "=n";
metricRight = "=o";
unicode = 112;
}
{
glyphname = q;
kernLeft = o;
kernRight = u;
layers = (
{
layerId = m01;
shapes = (
{
closed = 1;
nodes = (
(402,500,l),
(402,-200,l),
(502,-200,l),
(502,500,l)
);
},
{
closed = 1;
nodes = (
(382,-8,o),
(420,104,o),
(420,250,cs),
(420,411,o),
(400,508,o),
(248,508,cs),
(118,508,o),
(40,398,o),
(40,248,cs),
(40,90,o),
(98,-8,o),
(248,-8,cs)
);
},
{
closed = 1;
nodes = (
(179,72,o),
(141,140,o),
(140,248,cs),
(141,361,o),
(194,428,o),
(281,428,cs),
(358,428,o),
(402,353,o),
(402,250,cs),
(402,146,o),
(347,72,o),
(269,72,cs)
);
}
);
userData = {
com.hugojourdan.ColorFlow = {
"0" = 0;
"1" = 0;
"10" = 0;
"11" = 0;
"2" = 0;
"3" = 0;
"4" = 0;
"5" = 0;
"6" = 0;
"7" = 0;
"8" = 0;
"9" = 0;
};
};
width = 552;
},
{
layerId = m002;
shapes = (
{
closed = 1;
nodes = (
(402,500,l),
(402,-200,l),
(502,-200,l),
(502,500,l)
);
},
{
closed = 1;
nodes = (
(382,-8,o),
(420,104,o),
(420,250,cs),
(420,411,o),
(400,508,o),
(248,508,cs),
(118,508,o),
(40,398,o),
(40,248,cs),
(40,90,o),
(98,-8,o),
(248,-8,cs)
);
},
{
closed = 1;
nodes = (
(179,72,o),
(141,140,o),
(140,248,cs),
(141,361,o),
(194,428,o),
(281,428,cs),
(358,428,o),
(402,353,o),
(402,250,cs),
(402,146,o),
(347,72,o),
(269,72,cs)
);
}
);
userData = {
com.hugojourdan.ColorFlow = {
"0" = 0;
"1" = 0;
"10" = 0;
"11" = 0;
"2" = 0;
"3" = 0;
"4" = 0;
"5" = 0;
"6" = 0;
"7" = 0;
"8" = 0;
"9" = 0;
};
};
width = 552;
},
{
layerId = m003;
shapes = (
{
closed = 1;
nodes = (
(402,500,l),
(402,-200,l),
(502,-200,l),
(502,500,l)
);
},
{
closed = 1;
nodes = (
(382,-8,o),
(420,104,o),
(420,250,cs),
(420,411,o),
(400,508,o),
(248,508,cs),
(118,508,o),
(40,398,o),
(40,248,cs),
(40,90,o),
(98,-8,o),
(248,-8,cs)
);
},
{
closed = 1;
nodes = (
(179,72,o),
(141,140,o),
(140,248,cs),
(141,361,o),
(194,428,o),
(281,428,cs),
(358,428,o),
(402,353,o),
(402,250,cs),
(402,146,o),
(347,72,o),
(269,72,cs)
);
}
);
userData = {
com.hugojourdan.ColorFlow = {
"0" = 0;
"1" = 0;
"10" = 0;
"11" = 0;
"2" = 0;
"3" = 0;
"4" = 0;
"5" = 0;
"6" = 0;
"7" = 0;
"8" = 0;
"9" = 0;
};
};
width = 552;
}
);
metricLeft = "=o";
metricRight = "=n";
unicode = 113;
}
{
glyphname = r;
kernLeft = n;
kernRight = r;
layers = (
{
layerId = m01;
shapes = (
{
closed = 1;
nodes = (
(50,0,l),
(150,0,l),
(150,399,l),
(150,500,l),
(50,500,l)
);
},
{
closed = 1;
nodes = (
(329,508,l),
(304,508,l),
(166,508,o),
(132,411,o),
(132,250,c),
(150,250,l),
(150,374,o),
(200,428,o),
(300,428,c),
(312,428,l)
);
}
);
userData = {
com.hugojourdan.ColorFlow = {
"0" = 0;
"1" = 0;
"10" = 0;
"11" = 0;
"2" = 0;
"3" = 0;
"4" = 0;
"5" = 0;
"6" = 0;
"7" = 0;
"8" = 0;
"9" = 0;
};
};
width = 349;
},
{
associatedMasterId = m01;
layerId = "1BFC2A20-F60C-4DA7-8854-ED9741222C6E";
name = "19. Jul 23, 15:32";
shapes = (
{
closed = 1;
nodes = (
(30,0,l),
(130,0,l),
(130,500,l),
(30,500,l)
);
},
{
closed = 1;
nodes = (
(300,505,l),
(193,505,o),
(120,412,o),
(120,294,c),
(130,301,l),
(130,354,o),
(225,405,o),
(300,405,c)
);
}
);
userData = {
com.hugojourdan.ColorFlow = {
"0" = 0;
"1" = 0;
"10" = 0;
"11" = 0;
"2" = 0;
"3" = 0;
"4" = 0;
"5" = 0;
"6" = 0;
"7" = 0;
"8" = 0;
"9" = 0;
};
};
width = 315;
},
{
layerId = m002;
shapes = (
{
closed = 1;
nodes = (
(50,0,l),
(150,0,l),
(150,399,l),
(150,500,l),
(50,500,l)
);
},
{
closed = 1;
nodes = (
(329,508,l),
(304,508,l),
(166,508,o),
(132,411,o),
(132,250,c),
(150,250,l),
(150,374,o),
(200,428,o),
(300,428,c),
(312,428,l)
);
}
);
userData = {
com.hugojourdan.ColorFlow = {
"0" = 0;
"1" = 0;
"10" = 0;
"11" = 0;
"2" = 0;
"3" = 0;
"4" = 0;
"5" = 0;
"6" = 0;
"7" = 0;
"8" = 0;
"9" = 0;
};
};
width = 329;
},
{
associatedMasterId = m002;
layerId = "081A0DE7-16F4-47D1-B0EA-45306758C6EB";
name = "19. Jul 23, 15:32";
shapes = (
{
closed = 1;
nodes = (
(30,0,l),
(130,0,l),
(130,500,l),
(30,500,l)
);
},
{
closed = 1;
nodes = (
(300,505,l),
(193,505,o),
(120,412,o),
(120,294,c),
(130,301,l),
(130,354,o),
(225,405,o),
(300,405,c)
);
}
);
userData = {
com.hugojourdan.ColorFlow = {
"0" = 0;
"1" = 0;
"10" = 0;
"11" = 0;
"2" = 0;
"3" = 0;
"4" = 0;
"5" = 0;
"6" = 0;
"7" = 0;
"8" = 0;
"9" = 0;
};
};
width = 315;
},
{
layerId = m003;
shapes = (
{
closed = 1;
nodes = (
(50,0,l),
(150,0,l),
(150,399,l),
(150,500,l),
(50,500,l)
);
},
{
closed = 1;
nodes = (
(329,508,l),
(304,508,l),
(166,508,o),
(132,411,o),
(132,250,c),
(150,250,l),
(150,374,o),
(200,428,o),
(300,428,c),
(312,428,l)
);
}
);
userData = {
com.hugojourdan.ColorFlow = {
"0" = 0;
"1" = 0;
"10" = 0;
"11" = 0;
"2" = 0;
"3" = 0;
"4" = 0;
"5" = 0;
"6" = 0;
"7" = 0;
"8" = 0;
"9" = 0;
};
};
width = 329;
},
{
associatedMasterId = m003;
layerId = "EF5C0CCD-8B14-4926-A358-666F414FC66C";
name = "19. Jul 23, 15:32";
shapes = (
{
closed = 1;
nodes = (
(30,0,l),
(130,0,l),
(130,500,l),
(30,500,l)
);
},
{
closed = 1;
nodes = (
(300,505,l),
(193,505,o),
(120,412,o),
(120,294,c),
(130,301,l),
(130,354,o),
(225,405,o),
(300,405,c)
);
}
);
userData = {
com.hugojourdan.ColorFlow = {
"0" = 0;
"1" = 0;
"10" = 0;
"11" = 0;
"2" = 0;
"3" = 0;
"4" = 0;
"5" = 0;
"6" = 0;
"7" = 0;
"8" = 0;
"9" = 0;
};
};
width = 315;
}
);
metricLeft = "=n";
unicode = 114;
}
{
glyphname = s;
kernLeft = s;
kernRight = s;
layers = (
{
layerId = m01;
shapes = (
{
closed = 1;
nodes = (
(53,172,o),
(362,243,o),
(362,138,c),
(362,102,o),
(326,72,o),
(249,72,cs),
(184,72,o),
(145,96,o),
(145,146,c),
(54,141,l),
(54,51,o),
(129,-8,o),
(249,-8,cs),
(374,-8,o),
(462,61,o),
(462,148,cs),
(462,323,o),
(153,272,o),
(153,367,c),
(153,403,o),
(197,428,o),
(249,428,cs),
(319,428,o),
(367,381,o),
(367,331,c),
(458,336,l),
(458,426,o),
(374,508,o),
(249,508,cs),
(124,508,o),
(53,443,o),
(53,357,c)
);
}
);
userData = {
com.hugojourdan.ColorFlow = {
"0" = 0;
"1" = 0;
"10" = 0;
"11" = 0;
"2" = 0;
"3" = 0;
"4" = 0;
"5" = 0;
"6" = 0;
"7" = 0;
"8" = 0;
"9" = 0;
};
};
width = 515;
},
{
layerId = m002;
shapes = (
{
closed = 1;
nodes = (
(33,172,o),
(342,243,o),
(342,138,c),
(342,102,o),
(306,72,o),
(229,72,cs),
(164,72,o),
(125,96,o),
(125,146,c),
(34,141,l),
(34,51,o),
(109,-8,o),
(229,-8,cs),
(354,-8,o),
(442,61,o),
(442,148,cs),
(442,323,o),
(133,272,o),
(133,367,c),
(133,403,o),
(177,428,o),
(229,428,cs),
(299,428,o),
(347,381,o),
(347,331,c),
(438,336,l),
(438,426,o),
(354,508,o),
(229,508,cs),
(104,508,o),
(33,443,o),
(33,357,c)
);
}
);
userData = {
com.hugojourdan.ColorFlow = {
"0" = 0;
"1" = 0;
"10" = 0;
"11" = 0;
"2" = 0;
"3" = 0;
"4" = 0;
"5" = 0;
"6" = 0;
"7" = 0;
"8" = 0;
"9" = 0;
};
};
width = 475;
},
{
layerId = m003;
shapes = (
{
closed = 1;
nodes = (
(20,172,o),
(329,243,o),
(329,138,c),
(329,102,o),
(293,72,o),
(216,72,cs),
(151,72,o),
(112,96,o),
(112,146,c),
(21,141,l),
(21,51,o),
(96,-8,o),
(216,-8,cs),
(341,-8,o),
(429,61,o),
(429,148,cs),
(429,323,o),
(120,272,o),
(120,367,c),
(120,403,o),
(164,428,o),
(216,428,cs),
(286,428,o),
(334,381,o),
(334,331,c),
(425,336,l),
(425,426,o),
(341,508,o),
(216,508,cs),
(91,508,o),
(20,443,o),
(20,357,c)
);
}
);
userData = {
com.hugojourdan.ColorFlow = {
"0" = 0;
"1" = 0;
"10" = 0;
"11" = 0;
"2" = 0;
"3" = 0;
"4" = 0;
"5" = 0;
"6" = 0;
"7" = 0;
"8" = 0;
"9" = 0;
};
};
width = 449;
}
);
metricLeft = "=o";
metricRight = "=o";
unicode = 115;
}
{
glyphname = t;
kernLeft = t;
kernRight = t;
layers = (
{
layerId = m01;
shapes = (
{
closed = 1;
nodes = (
(387,112,l),
(366,95,o),
(337,71,o),
(291,71,cs),
(237,71,o),
(208,104,o),
(208,163,c),
(208,605,l),
(108,605,l),
(108,158,ls),
(108,34,o),
(210,-9,o),
(282,-9,cs),
(332,-9,o),
(362,12,o),
(387,32,c)
);
},
{
closed = 1;
nodes = (
(30,416,l),
(372,416,l),
(372,496,l),
(30,496,l)
);
}
);
userData = {
com.hugojourdan.ColorFlow = {
"0" = 0;
"1" = 0;
"10" = 0;
"11" = 0;
"2" = 0;
"3" = 0;
"4" = 0;
"5" = 0;
"6" = 0;
"7" = 0;
"8" = 0;
"9" = 0;
};
};
width = 417;
},
{
layerId = m002;
shapes = (
{
closed = 1;
nodes = (
(387,112,l),
(366,95,o),
(337,71,o),
(291,71,cs),
(237,71,o),
(208,104,o),
(208,163,c),
(208,605,l),
(108,605,l),
(108,158,ls),
(108,34,o),
(210,-9,o),
(282,-9,cs),
(332,-9,o),
(362,12,o),
(387,32,c)
);
},
{
closed = 1;
nodes = (
(30,416,l),
(372,416,l),
(372,496,l),
(30,496,l)
);
}
);
userData = {
com.hugojourdan.ColorFlow = {
"0" = 0;
"1" = 0;
"10" = 0;
"11" = 0;
"2" = 0;
"3" = 0;
"4" = 0;
"5" = 0;
"6" = 0;
"7" = 0;
"8" = 0;
"9" = 0;
};
};
width = 417;
},
{
layerId = m003;
shapes = (
{
closed = 1;
nodes = (
(421,112,l),
(400,95,o),
(371,71,o),
(325,71,cs),
(271,71,o),
(242,104,o),
(242,163,c),
(242,605,l),
(142,605,l),
(142,158,ls),
(142,34,o),
(244,-9,o),
(316,-9,cs),
(366,-9,o),
(396,12,o),
(421,32,c)
);
},
{
closed = 1;
nodes = (
(64,416,l),
(406,416,l),
(406,496,l),
(64,496,l)
);
}
);
userData = {
com.hugojourdan.ColorFlow = {
"0" = 0;
"1" = 0;
"10" = 0;
"11" = 0;
"2" = 0;
"3" = 0;
"4" = 0;
"5" = 0;
"6" = 0;
"7" = 0;
"8" = 0;
"9" = 0;
};
};
width = 485;
}
);
metricLeft = "=o";
metricRight = "=o";
unicode = 116;
}
{
glyphname = u;
kernLeft = u;
kernRight = u;
layers = (
{
layerId = m01;
shapes = (
{
closed = 1;
nodes = (
(464,500,l),
(364,500,l),
(364,101,l),
(364,0,l),
(464,0,l)
);
},
{
closed = 1;
nodes = (
(150,500,l),
(50,500,l),
(50,187,ls),
(50,91,o),
(80,-8,o),
(220,-8,cs),
(358,-8,o),
(382,89,o),
(382,250,c),
(364,250,l),
(364,126,o),
(323,72,o),
(253,72,cs),
(180,72,o),
(150,131,o),
(150,187,c)
);
}
);
userData = {
com.hugojourdan.ColorFlow = {
"0" = 0;
"1" = 0;
"10" = 0;
"11" = 0;
"2" = 0;
"3" = 0;
"4" = 0;
"5" = 0;
"6" = 0;
"7" = 0;
"8" = 0;
"9" = 0;
};
};
width = 514;
},
{
associatedMasterId = m01;
layerId = "9C4E6138-4511-472E-95B6-4417943C5D51";
name = "19. Jul 23, 14:47 - old";
shapes = (
{
closed = 1;
nodes = (
(447,505,l),
(347,505,l),
(347,5,l),
(447,5,l)
);
},
{
closed = 1;
nodes = (
(130,505,l),
(30,505,l),
(30,167,ls),
(30,71,o),
(113,0,o),
(197,0,cs),
(284,0,o),
(358,93,o),
(358,211,c),
(347,204,l),
(347,151,o),
(291,80,o),
(236,80,cs),
(180,80,o),
(130,115,o),
(130,172,c)
);
}
);
userData = {
com.hugojourdan.ColorFlow = {
"0" = 0;
"1" = 0;
"10" = 0;
"11" = 0;
"2" = 0;
"3" = 0;
"4" = 0;
"5" = 0;
"6" = 0;
"7" = 0;
"8" = 0;
"9" = 0;
};
};
width = 473;
},
{
layerId = m002;
shapes = (
{
closed = 1;
nodes = (
(464,500,l),
(364,500,l),
(364,101,l),
(364,0,l),
(464,0,l)
);
},
{
closed = 1;
nodes = (
(150,500,l),
(50,500,l),
(50,187,ls),
(50,91,o),
(80,-8,o),
(220,-8,cs),
(358,-8,o),
(382,89,o),
(382,250,c),
(364,250,l),
(364,126,o),
(323,72,o),
(253,72,cs),
(180,72,o),
(150,131,o),
(150,187,c)
);
}
);
userData = {
com.hugojourdan.ColorFlow = {
"0" = 0;
"1" = 0;
"10" = 0;
"11" = 0;
"2" = 0;
"3" = 0;
"4" = 0;
"5" = 0;
"6" = 0;
"7" = 0;
"8" = 0;
"9" = 0;
};
};
width = 514;
},
{
associatedMasterId = m002;
layerId = "38AEED0F-3347-47EE-9FB8-CEEDD88CEBB7";
name = "19. Jul 23, 14:47 - old";
shapes = (
{
closed = 1;
nodes = (
(447,505,l),
(347,505,l),
(347,5,l),
(447,5,l)
);
},
{
closed = 1;
nodes = (
(130,505,l),
(30,505,l),
(30,167,ls),
(30,71,o),
(113,0,o),
(197,0,cs),
(284,0,o),
(358,93,o),
(358,211,c),
(347,204,l),
(347,151,o),
(291,80,o),
(236,80,cs),
(180,80,o),
(130,115,o),
(130,172,c)
);
}
);
userData = {
com.hugojourdan.ColorFlow = {
"0" = 0;
"1" = 0;
"10" = 0;
"11" = 0;
"2" = 0;
"3" = 0;
"4" = 0;
"5" = 0;
"6" = 0;
"7" = 0;
"8" = 0;
"9" = 0;
};
};
width = 473;
},
{
layerId = m003;
shapes = (
{
closed = 1;
nodes = (
(464,500,l),
(364,500,l),
(364,101,l),
(364,0,l),
(464,0,l)
);
},
{
closed = 1;
nodes = (
(150,500,l),
(50,500,l),
(50,187,ls),
(50,91,o),
(80,-8,o),
(220,-8,cs),
(358,-8,o),
(382,89,o),
(382,250,c),
(364,250,l),
(364,126,o),
(323,72,o),
(253,72,cs),
(180,72,o),
(150,131,o),
(150,187,c)
);
}
);
userData = {
com.hugojourdan.ColorFlow = {
"0" = 0;
"1" = 0;
"10" = 0;
"11" = 0;
"2" = 0;
"3" = 0;
"4" = 0;
"5" = 0;
"6" = 0;
"7" = 0;
"8" = 0;
"9" = 0;
};
};
width = 514;
},
{
associatedMasterId = m003;
layerId = "CECBC632-544C-4223-A0E6-795F0E8FCCDA";
name = "19. Jul 23, 14:47 - old";
shapes = (
{
closed = 1;
nodes = (
(447,505,l),
(347,505,l),
(347,5,l),
(447,5,l)
);
},
{
closed = 1;
nodes = (
(130,505,l),
(30,505,l),
(30,167,ls),
(30,71,o),
(113,0,o),
(197,0,cs),
(284,0,o),
(358,93,o),
(358,211,c),
(347,204,l),
(347,151,o),
(291,80,o),
(236,80,cs),
(180,80,o),
(130,115,o),
(130,172,c)
);
}
);
userData = {
com.hugojourdan.ColorFlow = {
"0" = 0;
"1" = 0;
"10" = 0;
"11" = 0;
"2" = 0;
"3" = 0;
"4" = 0;
"5" = 0;
"6" = 0;
"7" = 0;
"8" = 0;
"9" = 0;
};
};
width = 473;
}
);
metricLeft = "=n";
metricRight = "=n";
unicode = 117;
}
{
glyphname = v;
kernLeft = v;
kernRight = v;
layers = (
{
layerId = m01;
shapes = (
{
closed = 1;
nodes = (
(227,1,l),
(326,1,l),
(515,499,l),
(415,499,l),
(275,132,l),
(135,500,l),
(37,500,l)
);
}
);
userData = {
com.hugojourdan.ColorFlow = {
"0" = 0;
"1" = 0;
"10" = 0;
"11" = 0;
"2" = 0;
"3" = 0;
"4" = 0;
"5" = 0;
"6" = 0;
"7" = 0;
"8" = 0;
"9" = 0;
};
};
width = 552;
},
{
layerId = m002;
shapes = (
{
closed = 1;
nodes = (
(207,1,l),
(306,1,l),
(495,499,l),
(395,499,l),
(255,132,l),
(115,500,l),
(17,500,l)
);
}
);
userData = {
com.hugojourdan.ColorFlow = {
"0" = 0;
"1" = 0;
"10" = 0;
"11" = 0;
"2" = 0;
"3" = 0;
"4" = 0;
"5" = 0;
"6" = 0;
"7" = 0;
"8" = 0;
"9" = 0;
};
};
width = 512;
},
{
layerId = m003;
shapes = (
{
closed = 1;
nodes = (
(220,1,l),
(319,1,l),
(508,499,l),
(408,499,l),
(268,132,l),
(128,500,l),
(30,500,l)
);
}
);
userData = {
com.hugojourdan.ColorFlow = {
"0" = 0;
"1" = 0;
"10" = 0;
"11" = 0;
"2" = 0;
"3" = 0;
"4" = 0;
"5" = 0;
"6" = 0;
"7" = 0;
"8" = 0;
"9" = 0;
};
};
width = 538;
}
);
unicode = 118;
}
{
glyphname = w;
kernLeft = v;
kernRight = v;
layers = (
{
layerId = m01;
shapes = (
{
closed = 1;
nodes = (
(159,0,l),
(259,0,l),
(357,362,l),
(441,0,l),
(541,0,l),
(687,499,l),
(587,499,l),
(490,132,l),
(407,499,l),
(317,499,l),
(216,132,l),
(137,500,l),
(37,500,l)
);
}
);
userData = {
com.hugojourdan.ColorFlow = {
"0" = 0;
"1" = 0;
"10" = 0;
"11" = 0;
"2" = 0;
"3" = 0;
"4" = 0;
"5" = 0;
"6" = 0;
"7" = 0;
"8" = 0;
"9" = 0;
};
};
width = 724;
},
{
layerId = m002;
shapes = (
{
closed = 1;
nodes = (
(139,0,l),
(239,0,l),
(337,362,l),
(421,0,l),
(521,0,l),
(667,499,l),
(567,499,l),
(470,132,l),
(387,499,l),
(297,499,l),
(196,132,l),
(117,500,l),
(17,500,l)
);
}
);
userData = {
com.hugojourdan.ColorFlow = {
"0" = 0;
"1" = 0;
"10" = 0;
"11" = 0;
"2" = 0;
"3" = 0;
"4" = 0;
"5" = 0;
"6" = 0;
"7" = 0;
"8" = 0;
"9" = 0;
};
};
width = 684;
},
{
layerId = m003;
shapes = (
{
closed = 1;
nodes = (
(152,0,l),
(252,0,l),
(350,362,l),
(434,0,l),
(534,0,l),
(680,500,l),
(580,500,l),
(483,132,l),
(400,499,l),
(310,499,l),
(209,132,l),
(130,500,l),
(30,500,l)
);
}
);
userData = {
com.hugojourdan.ColorFlow = {
"0" = 0;
"1" = 0;
"10" = 0;
"11" = 0;
"2" = 0;
"3" = 0;
"4" = 0;
"5" = 0;
"6" = 0;
"7" = 0;
"8" = 0;
"9" = 0;
};
};
width = 710;
}
);
metricLeft = "=v";
metricRight = "=v";
unicode = 119;
}
{
glyphname = x;
kernLeft = x;
kernRight = x;
layers = (
{
layerId = m01;
shapes = (
{
closed = 1;
nodes = (
(176,250,l),
(2,0,l),
(109,0,l),
(240,180,l),
(369,0,l),
(472,0,l),
(303,250,l),
(470,499,l),
(364,499,l),
(240,310,l),
(106,499,l),
(0,499,l)
);
}
);
userData = {
com.hugojourdan.ColorFlow = {
"0" = 0;
"1" = 0;
"10" = 0;
"11" = 0;
"2" = 0;
"3" = 0;
"4" = 0;
"5" = 0;
"6" = 0;
"7" = 0;
"8" = 0;
"9" = 0;
};
};
width = 472;
},
{
layerId = m002;
shapes = (
{
closed = 1;
nodes = (
(193,250,l),
(19,0,l),
(126,0,l),
(257,180,l),
(386,0,l),
(489,0,l),
(320,250,l),
(487,499,l),
(381,499,l),
(257,310,l),
(123,499,l),
(17,499,l)
);
}
);
userData = {
com.hugojourdan.ColorFlow = {
"0" = 0;
"1" = 0;
"10" = 0;
"11" = 0;
"2" = 0;
"3" = 0;
"4" = 0;
"5" = 0;
"6" = 0;
"7" = 0;
"8" = 0;
"9" = 0;
};
};
width = 506;
},
{
layerId = m003;
shapes = (
{
closed = 1;
nodes = (
(206,250,l),
(32,0,l),
(139,0,l),
(270,180,l),
(399,0,l),
(502,0,l),
(333,250,l),
(500,499,l),
(394,499,l),
(270,310,l),
(136,499,l),
(30,499,l)
);
}
);
userData = {
com.hugojourdan.ColorFlow = {
"0" = 0;
"1" = 0;
"10" = 0;
"11" = 0;
"2" = 0;
"3" = 0;
"4" = 0;
"5" = 0;
"6" = 0;
"7" = 0;
"8" = 0;
"9" = 0;
};
};
width = 532;
}
);
metricLeft = "=v";
metricRight = "=v";
unicode = 120;
}
{
glyphname = y;
kernLeft = y;
kernRight = v;
layers = (
{
layerId = m01;
shapes = (
{
closed = 1;
nodes = (
(226,0,l),
(326,0,l),
(515,499,l),
(415,499,l),
(275,132,l),
(135,500,l),
(37,500,l)
);
},
{
closed = 1;
nodes = (
(226,0,l),
(224,-57,o),
(191,-125,o),
(127,-127,cs),
(100,-128,o),
(63,-118,o),
(42,-101,c),
(42,-181,l),
(68,-198,o),
(104,-208,o),
(137,-208,cs),
(232,-208,o),
(286,-115,o),
(326,0,c)
);
}
);
userData = {
com.hugojourdan.ColorFlow = {
"0" = 0;
"1" = 0;
"10" = 0;
"11" = 0;
"2" = 0;
"3" = 0;
"4" = 0;
"5" = 0;
"6" = 0;
"7" = 0;
"8" = 0;
"9" = 0;
};
};
width = 552;
},
{
layerId = m002;
shapes = (
{
closed = 1;
nodes = (
(192,0,l),
(292,0,l),
(481,499,l),
(381,499,l),
(241,132,l),
(101,500,l),
(3,500,l)
);
},
{
closed = 1;
nodes = (
(192,0,l),
(190,-57,o),
(157,-125,o),
(93,-127,cs),
(66,-128,o),
(29,-118,o),
(8,-101,c),
(8,-181,l),
(34,-198,o),
(70,-208,o),
(103,-208,cs),
(198,-208,o),
(252,-115,o),
(292,0,c)
);
}
);
userData = {
com.hugojourdan.ColorFlow = {
"0" = 0;
"1" = 0;
"10" = 0;
"11" = 0;
"2" = 0;
"3" = 0;
"4" = 0;
"5" = 0;
"6" = 0;
"7" = 0;
"8" = 0;
"9" = 0;
};
};
width = 484;
},
{
layerId = m003;
shapes = (
{
closed = 1;
nodes = (
(246,0,l),
(346,0,l),
(535,499,l),
(435,499,l),
(295,132,l),
(155,500,l),
(57,500,l)
);
},
{
closed = 1;
nodes = (
(246,0,l),
(244,-57,o),
(211,-125,o),
(147,-127,cs),
(120,-128,o),
(83,-118,o),
(62,-101,c),
(62,-181,l),
(88,-198,o),
(124,-208,o),
(157,-208,cs),
(252,-208,o),
(306,-115,o),
(346,0,c)
);
}
);
userData = {
com.hugojourdan.ColorFlow = {
"0" = 0;
"1" = 0;
"10" = 0;
"11" = 0;
"2" = 0;
"3" = 0;
"4" = 0;
"5" = 0;
"6" = 0;
"7" = 0;
"8" = 0;
"9" = 0;
};
};
width = 592;
}
);
metricLeft = "=v";
metricRight = "=v";
unicode = 121;
}
{
glyphname = z;
kernLeft = z;
kernRight = z;
layers = (
{
layerId = m01;
shapes = (
{
closed = 1;
nodes = (
(50,500,l),
(50,419,l),
(281,419,l),
(50,50,l),
(50,0,l),
(409,0,l),
(409,80,l),
(178,80,l),
(409,449,l),
(409,499,l)
);
}
);
userData = {
com.hugojourdan.ColorFlow = {
"0" = 0;
"1" = 0;
"10" = 0;
"11" = 0;
"2" = 0;
"3" = 0;
"4" = 0;
"5" = 0;
"6" = 0;
"7" = 0;
"8" = 0;
"9" = 0;
};
};
width = 459;
},
{
associatedMasterId = m01;
layerId = "E2F89B17-919D-4288-8AE5-7CABA35D0254";
name = "19. Jul 23, 17:15";
shapes = (
{
closed = 1;
nodes = (
(2,0,l),
(102,0,l),
(401,499,l),
(301,499,l)
);
},
{
closed = 1;
nodes = (
(22,500,l),
(22,419,l),
(273,419,l),
(337,499,l)
);
},
{
closed = 1;
nodes = (
(135,80,l),
(68,0,l),
(381,0,l),
(381,80,l)
);
}
);
userData = {
com.hugojourdan.ColorFlow = {
"0" = 0;
"1" = 0;
"10" = 0;
"11" = 0;
"2" = 0;
"3" = 0;
"4" = 0;
"5" = 0;
"6" = 0;
"7" = 0;
"8" = 0;
"9" = 0;
};
};
width = 401;
},
{
layerId = m002;
shapes = (
{
closed = 1;
nodes = (
(30,500,l),
(30,419,l),
(261,419,l),
(30,50,l),
(30,0,l),
(389,0,l),
(389,80,l),
(158,80,l),
(389,449,l),
(389,499,l)
);
}
);
userData = {
com.hugojourdan.ColorFlow = {
"0" = 0;
"1" = 0;
"10" = 0;
"11" = 0;
"2" = 0;
"3" = 0;
"4" = 0;
"5" = 0;
"6" = 0;
"7" = 0;
"8" = 0;
"9" = 0;
};
};
width = 419;
},
{
associatedMasterId = m002;
layerId = "66D0B4F5-6480-4071-B09C-DC208126FB3C";
name = "19. Jul 23, 17:15";
shapes = (
{
closed = 1;
nodes = (
(2,0,l),
(102,0,l),
(401,499,l),
(301,499,l)
);
},
{
closed = 1;
nodes = (
(22,500,l),
(22,419,l),
(273,419,l),
(337,499,l)
);
},
{
closed = 1;
nodes = (
(135,80,l),
(68,0,l),
(381,0,l),
(381,80,l)
);
}
);
userData = {
com.hugojourdan.ColorFlow = {
"0" = 0;
"1" = 0;
"10" = 0;
"11" = 0;
"2" = 0;
"3" = 0;
"4" = 0;
"5" = 0;
"6" = 0;
"7" = 0;
"8" = 0;
"9" = 0;
};
};
width = 401;
},
{
layerId = m003;
shapes = (
{
closed = 1;
nodes = (
(30,500,l),
(30,419,l),
(261,419,l),
(30,50,l),
(30,0,l),
(389,0,l),
(389,80,l),
(158,80,l),
(389,449,l),
(389,499,l)
);
}
);
userData = {
com.hugojourdan.ColorFlow = {
"0" = 0;
"1" = 0;
"10" = 0;
"11" = 0;
"2" = 0;
"3" = 0;
"4" = 0;
"5" = 0;
"6" = 0;
"7" = 0;
"8" = 0;
"9" = 0;
};
};
width = 419;
},
{
associatedMasterId = m003;
layerId = "0925D7E4-1AC1-4145-B289-4A01E82DC95D";
name = "19. Jul 23, 17:15";
shapes = (
{
closed = 1;
nodes = (
(2,0,l),
(102,0,l),
(401,499,l),
(301,499,l)
);
},
{
closed = 1;
nodes = (
(22,500,l),
(22,419,l),
(273,419,l),
(337,499,l)
);
},
{
closed = 1;
nodes = (
(135,80,l),
(68,0,l),
(381,0,l),
(381,80,l)
);
}
);
userData = {
com.hugojourdan.ColorFlow = {
"0" = 0;
"1" = 0;
"10" = 0;
"11" = 0;
"2" = 0;
"3" = 0;
"4" = 0;
"5" = 0;
"6" = 0;
"7" = 0;
"8" = 0;
"9" = 0;
};
};
width = 401;
}
);
unicode = 122;
}
{
glyphname = A.init.alt;
kernLeft = A;
kernRight = "A-Backward";
layers = (
{
layerId = m01;
shapes = (
{
closed = 1;
nodes = (
(165,0,l),
(394,591,l),
(625,0,l),
(730,0,l),
(466,701,l),
(326,701,l),
(60,0,l)
);
},
{
closed = 1;
nodes = (
(202,210,l),
(582,210,l),
(582,300,l),
(202,300,l)
);
}
);
userData = {
com.hugojourdan.ColorFlow = {
"0" = 0;
"1" = 0;
"10" = 0;
"11" = 0;
"2" = 0;
"3" = 0;
"4" = 0;
"5" = 0;
"6" = 0;
"7" = 0;
"8" = 0;
"9" = 0;
};
};
width = 730;
},
{
layerId = m002;
shapes = (
{
closed = 1;
nodes = (
(161,-109,l),
(390,642,l),
(621,212,l),
(726,286,l),
(462,802,l),
(322,704,l),
(56,-183,l)
);
},
{
closed = 1;
nodes = (
(198,127,l),
(578,393,l),
(578,483,l),
(198,217,l)
);
}
);
userData = {
com.hugojourdan.ColorFlow = {
"0" = 0;
"1" = 0;
"10" = 0;
"11" = 0;
"2" = 0;
"3" = 0;
"4" = 0;
"5" = 0;
"6" = 0;
"7" = 0;
"8" = 0;
"9" = 0;
};
};
width = 726;
},
{
layerId = m003;
shapes = (
{
closed = 1;
nodes = (
(195,-200,l),
(424,391,l),
(655,-200,l),
(760,-200,l),
(496,501,l),
(356,501,l),
(90,-200,l)
);
},
{
closed = 1;
nodes = (
(232,10,l),
(612,10,l),
(612,100,l),
(232,100,l)
);
}
);
userData = {
com.hugojourdan.ColorFlow = {
"0" = 0;
"1" = 0;
"10" = 0;
"11" = 0;
"2" = 0;
"3" = 0;
"4" = 0;
"5" = 0;
"6" = 0;
"7" = 0;
"8" = 0;
"9" = 0;
};
};
width = 760;
}
);
metricLeft = "=H";
metricRight = "=0";
}
{
glyphname = A.init;
kernLeft = A;
kernRight = A;
layers = (
{
layerId = m01;
shapes = (
{
closed = 1;
nodes = (
(195,0,l),
(424,591,l),
(655,0,l),
(760,0,l),
(496,701,l),
(356,701,l),
(90,0,l)
);
},
{
closed = 1;
nodes = (
(232,210,l),
(612,210,l),
(612,300,l),
(232,300,l)
);
}
);
userData = {
com.hugojourdan.ColorFlow = {
"0" = 0;
"1" = 0;
"10" = 0;
"11" = 0;
"2" = 0;
"3" = 0;
"4" = 0;
"5" = 0;
"6" = 0;
"7" = 0;
"8" = 0;
"9" = 0;
};
};
width = 850;
},
{
layerId = m002;
shapes = (
{
closed = 1;
nodes = (
(175,213,l),
(404,643,l),
(635,-110,l),
(740,-183,l),
(476,703,l),
(336,801,l),
(70,286,l)
);
},
{
closed = 1;
nodes = (
(212,397,l),
(592,131,l),
(592,221,l),
(212,487,l)
);
}
);
userData = {
com.hugojourdan.ColorFlow = {
"0" = 0;
"1" = 0;
"10" = 0;
"11" = 0;
"2" = 0;
"3" = 0;
"4" = 0;
"5" = 0;
"6" = 0;
"7" = 0;
"8" = 0;
"9" = 0;
};
};
width = 810;
},
{
layerId = m003;
shapes = (
{
closed = 1;
nodes = (
(155,100,l),
(384,691,l),
(615,100,l),
(720,100,l),
(456,801,l),
(316,801,l),
(50,100,l)
);
},
{
closed = 1;
nodes = (
(192,310,l),
(572,310,l),
(572,400,l),
(192,400,l)
);
}
);
userData = {
com.hugojourdan.ColorFlow = {
"0" = 0;
"1" = 0;
"10" = 0;
"11" = 0;
"2" = 0;
"3" = 0;
"4" = 0;
"5" = 0;
"6" = 0;
"7" = 0;
"8" = 0;
"9" = 0;
};
};
width = 770;
}
);
metricLeft = "=H";
metricRight = "=H";
}
{
glyphname = B.init.alt;
kernLeft = H;
kernRight = "B-Backward";
layers = (
{
layerId = m01;
shapes = (
{
closed = 1;
nodes = (
(317,0,ls),
(493,0,o),
(578,67,o),
(578,212,cs),
(578,276,o),
(551,334,o),
(476,373,c),
(524,409,o),
(551,456,o),
(551,524,cs),
(551,640,o),
(459,700,o),
(317,700,cs),
(60,700,l),
(60,0,l)
);
},
{
closed = 1;
nodes = (
(165,327,l),
(317,327,ls),
(413,327,o),
(473,277,o),
(473,212,cs),
(473,136,o),
(428,91,o),
(317,90,cs),
(165,89,l)
);
},
{
closed = 1;
nodes = (
(165,610,l),
(317,610,ls),
(389,610,o),
(446,580,o),
(446,524,cs),
(446,452,o),
(406,417,o),
(317,417,cs),
(165,417,l)
);
}
);
userData = {
com.hugojourdan.ColorFlow = {
"0" = 0;
"1" = 0;
"10" = 0;
"11" = 0;
"2" = 0;
"3" = 0;
"4" = 0;
"5" = 0;
"6" = 0;
"7" = 0;
"8" = 0;
"9" = 0;
};
};
width = 578;
},
{
layerId = m002;
shapes = (
{
closed = 1;
nodes = (
(313,-72,ls),
(489,52,o),
(574,179,o),
(574,324,cs),
(574,388,o),
(547,427,o),
(472,413,c),
(520,482,o),
(547,549,o),
(547,617,cs),
(547,733,o),
(455,728,o),
(313,628,cs),
(56,448,l),
(56,-252,l)
);
},
{
closed = 1;
nodes = (
(161,149,l),
(313,255,ls),
(409,323,o),
(469,315,o),
(469,250,cs),
(469,174,o),
(424,98,o),
(313,18,cs),
(161,-89,l)
);
},
{
closed = 1;
nodes = (
(161,432,l),
(313,538,ls),
(385,589,o),
(442,599,o),
(442,543,cs),
(442,471,o),
(402,408,o),
(313,345,cs),
(161,239,l)
);
}
);
userData = {
com.hugojourdan.ColorFlow = {
"0" = 0;
"1" = 0;
"10" = 0;
"11" = 0;
"2" = 0;
"3" = 0;
"4" = 0;
"5" = 0;
"6" = 0;
"7" = 0;
"8" = 0;
"9" = 0;
};
};
width = 574;
},
{
layerId = m003;
shapes = (
{
closed = 1;
nodes = (
(347,-200,ls),
(523,-200,o),
(608,-133,o),
(608,12,cs),
(608,76,o),
(581,134,o),
(506,173,c),
(554,209,o),
(581,256,o),
(581,324,cs),
(581,440,o),
(489,500,o),
(347,500,cs),
(90,500,l),
(90,-200,l)
);
},
{
closed = 1;
nodes = (
(195,127,l),
(347,127,ls),
(443,127,o),
(503,77,o),
(503,12,cs),
(503,-64,o),
(458,-109,o),
(347,-110,cs),
(195,-111,l)
);
},
{
closed = 1;
nodes = (
(195,410,l),
(347,410,ls),
(419,410,o),
(476,380,o),
(476,324,cs),
(476,252,o),
(436,217,o),
(347,217,cs),
(195,217,l)
);
}
);
userData = {
com.hugojourdan.ColorFlow = {
"0" = 0;
"1" = 0;
"10" = 0;
"11" = 0;
"2" = 0;
"3" = 0;
"4" = 0;
"5" = 0;
"6" = 0;
"7" = 0;
"8" = 0;
"9" = 0;
};
};
width = 608;
}
);
metricLeft = "=H";
metricRight = "=0";
}
{
glyphname = B.init;
kernLeft = H;
kernRight = B;
layers = (
{
layerId = m01;
shapes = (
{
closed = 1;
nodes = (
(313,0,ls),
(489,0,o),
(574,67,o),
(574,212,cs),
(574,276,o),
(547,334,o),
(472,373,c),
(520,409,o),
(547,456,o),
(547,524,cs),
(547,640,o),
(455,700,o),
(313,700,cs),
(56,700,l),
(56,0,l)
);
},
{
closed = 1;
nodes = (
(161,327,l),
(313,327,ls),
(409,327,o),
(469,277,o),
(469,212,cs),
(469,136,o),
(424,91,o),
(313,90,cs),
(161,89,l)
);
},
{
closed = 1;
nodes = (
(161,610,l),
(313,610,ls),
(385,610,o),
(442,580,o),
(442,524,cs),
(442,452,o),
(402,417,o),
(313,417,cs),
(161,417,l)
);
}
);
userData = {
com.hugojourdan.ColorFlow = {
"0" = 0;
"1" = 0;
"10" = 0;
"11" = 0;
"2" = 0;
"3" = 0;
"4" = 0;
"5" = 0;
"6" = 0;
"7" = 0;
"8" = 0;
"9" = 0;
};
};
width = 574;
},
{
layerId = m002;
shapes = (
{
closed = 1;
nodes = (
(313,-69,ls),
(489,-192,o),
(574,-184,o),
(574,-39,cs),
(574,25,o),
(547,102,o),
(472,193,c),
(520,195,o),
(547,224,o),
(547,292,cs),
(547,408,o),
(455,532,o),
(313,631,cs),
(56,811,l),
(56,111,l)
);
},
{
closed = 1;
nodes = (
(161,365,l),
(313,258,ls),
(409,191,o),
(469,99,o),
(469,34,cs),
(469,-42,o),
(424,-55,o),
(313,21,cs),
(161,127,l)
);
},
{
closed = 1;
nodes = (
(161,648,l),
(313,541,ls),
(385,491,o),
(442,421,o),
(442,365,cs),
(442,293,o),
(402,286,o),
(313,348,cs),
(161,455,l)
);
}
);
userData = {
com.hugojourdan.ColorFlow = {
"0" = 0;
"1" = 0;
"10" = 0;
"11" = 0;
"2" = 0;
"3" = 0;
"4" = 0;
"5" = 0;
"6" = 0;
"7" = 0;
"8" = 0;
"9" = 0;
};
};
width = 574;
},
{
layerId = m003;
shapes = (
{
closed = 1;
nodes = (
(347,100,ls),
(523,100,o),
(608,167,o),
(608,312,cs),
(608,376,o),
(581,434,o),
(506,473,c),
(554,509,o),
(581,556,o),
(581,624,cs),
(581,740,o),
(489,800,o),
(347,800,cs),
(90,800,l),
(90,100,l)
);
},
{
closed = 1;
nodes = (
(195,427,l),
(347,427,ls),
(443,427,o),
(503,377,o),
(503,312,cs),
(503,236,o),
(458,191,o),
(347,190,cs),
(195,189,l)
);
},
{
closed = 1;
nodes = (
(195,710,l),
(347,710,ls),
(419,710,o),
(476,680,o),
(476,624,cs),
(476,552,o),
(436,517,o),
(347,517,cs),
(195,517,l)
);
}
);
userData = {
com.hugojourdan.ColorFlow = {
"0" = 0;
"1" = 0;
"10" = 0;
"11" = 0;
"2" = 0;
"3" = 0;
"4" = 0;
"5" = 0;
"6" = 0;
"7" = 0;
"8" = 0;
"9" = 0;
};
};
width = 608;
}
);
metricLeft = "=H";
metricRight = "=0";
}
{
glyphname = C.init.alt;
kernLeft = O;
kernRight = O;
layers = (
{
layerId = m01;
shapes = (
{
closed = 1;
nodes = (
(586,260,l),
(570,187,o),
(502,82,o),
(362,82,cs),
(222,82,o),
(145,185,o),
(145,350,cs),
(145,515,o),
(222,618,o),
(362,618,cs),
(502,618,o),
(573,517,o),
(586,435,c),
(691,452,l),
(651,610,o),
(557,708,o),
(362,708,cs),
(167,708,o),
(40,565,o),
(40,350,cs),
(40,135,o),
(167,-8,o),
(362,-8,cs),
(557,-8,o),
(651,97,o),
(691,243,c)
);
}
);
userData = {
com.hugojourdan.ColorFlow = {
"0" = 0;
"1" = 0;
"10" = 0;
"11" = 0;
"2" = 0;
"3" = 0;
"4" = 0;
"5" = 0;
"6" = 0;
"7" = 0;
"8" = 0;
"9" = 0;
};
};
width = 731;
},
{
layerId = m002;
shapes = (
{
closed = 1;
nodes = (
(586,415,l),
(570,330,o),
(502,177,o),
(362,79,cs),
(222,-19,o),
(145,30,o),
(145,195,cs),
(145,360,o),
(222,517,o),
(362,615,cs),
(502,713,o),
(573,663,o),
(586,590,c),
(691,680,l),
(651,810,o),
(557,842,o),
(362,705,cs),
(167,569,o),
(40,337,o),
(40,122,cs),
(40,-93,o),
(167,-147,o),
(362,-11,cs),
(557,126,o),
(651,297,o),
(691,471,c)
);
}
);
userData = {
com.hugojourdan.ColorFlow = {
"0" = 0;
"1" = 0;
"10" = 0;
"11" = 0;
"2" = 0;
"3" = 0;
"4" = 0;
"5" = 0;
"6" = 0;
"7" = 0;
"8" = 0;
"9" = 0;
};
};
width = 731;
},
{
layerId = m003;
shapes = (
{
closed = 1;
nodes = (
(620,60,l),
(604,-13,o),
(536,-118,o),
(396,-118,cs),
(256,-118,o),
(179,-15,o),
(179,150,cs),
(179,315,o),
(256,418,o),
(396,418,cs),
(536,418,o),
(607,317,o),
(620,235,c),
(725,252,l),
(685,410,o),
(591,508,o),
(396,508,cs),
(201,508,o),
(74,365,o),
(74,150,cs),
(74,-65,o),
(201,-208,o),
(396,-208,cs),
(591,-208,o),
(685,-103,o),
(725,43,c)
);
}
);
userData = {
com.hugojourdan.ColorFlow = {
"0" = 0;
"1" = 0;
"10" = 0;
"11" = 0;
"2" = 0;
"3" = 0;
"4" = 0;
"5" = 0;
"6" = 0;
"7" = 0;
"8" = 0;
"9" = 0;
};
};
width = 799;
}
);
metricLeft = "=O";
metricRight = "=O";
}
{
glyphname = C.init;
kernLeft = O;
kernRight = "O-Forward";
layers = (
{
layerId = m01;
shapes = (
{
closed = 1;
nodes = (
(596,260,l),
(580,187,o),
(512,82,o),
(372,82,cs),
(232,82,o),
(155,185,o),
(155,350,cs),
(155,515,o),
(232,618,o),
(372,618,cs),
(512,618,o),
(583,517,o),
(596,435,c),
(701,452,l),
(661,610,o),
(567,708,o),
(372,708,cs),
(177,708,o),
(50,565,o),
(50,350,cs),
(50,135,o),
(177,-8,o),
(372,-8,cs),
(567,-8,o),
(661,97,o),
(701,243,c)
);
}
);
userData = {
com.hugojourdan.ColorFlow = {
"0" = 0;
"1" = 0;
"10" = 0;
"11" = 0;
"2" = 0;
"3" = 0;
"4" = 0;
"5" = 0;
"6" = 0;
"7" = 0;
"8" = 0;
"9" = 0;
};
};
width = 751;
},
{
layerId = m002;
shapes = (
{
closed = 1;
nodes = (
(596,106,l),
(580,44,o),
(512,-14,o),
(372,84,cs),
(232,182,o),
(155,339,o),
(155,504,cs),
(155,669,o),
(232,718,o),
(372,620,cs),
(512,522,o),
(583,372,o),
(596,281,c),
(701,224,l),
(661,410,o),
(567,574,o),
(372,710,cs),
(177,847,o),
(50,793,o),
(50,578,cs),
(50,363,o),
(177,131,o),
(372,-6,cs),
(567,-142,o),
(661,-103,o),
(701,15,c)
);
}
);
userData = {
com.hugojourdan.ColorFlow = {
"0" = 0;
"1" = 0;
"10" = 0;
"11" = 0;
"2" = 0;
"3" = 0;
"4" = 0;
"5" = 0;
"6" = 0;
"7" = 0;
"8" = 0;
"9" = 0;
};
};
width = 751;
},
{
layerId = m003;
shapes = (
{
closed = 1;
nodes = (
(606,360,l),
(590,287,o),
(522,182,o),
(382,182,cs),
(242,182,o),
(165,285,o),
(165,450,cs),
(165,615,o),
(242,718,o),
(382,718,cs),
(522,718,o),
(593,617,o),
(606,535,c),
(711,552,l),
(671,710,o),
(577,808,o),
(382,808,cs),
(187,808,o),
(60,665,o),
(60,450,cs),
(60,235,o),
(187,92,o),
(382,92,cs),
(577,92,o),
(671,197,o),
(711,343,c)
);
}
);
userData = {
com.hugojourdan.ColorFlow = {
"0" = 0;
"1" = 0;
"10" = 0;
"11" = 0;
"2" = 0;
"3" = 0;
"4" = 0;
"5" = 0;
"6" = 0;
"7" = 0;
"8" = 0;
"9" = 0;
};
};
width = 771;
}
);
metricLeft = "=O";
metricRight = "=O";
}
{
glyphname = D.init.alt;
kernLeft = H;
kernRight = D;
layers = (
{
layerId = m01;
shapes = (
{
closed = 1;
nodes = (
(40,0,l),
(269,0,ls),
(464,0,o),
(606,140,o),
(606,350,cs),
(606,560,o),
(465,700,o),
(270,700,cs),
(40,700,l)
);
},
{
closed = 1;
nodes = (
(145,610,l),
(270,610,ls),
(403,610,o),
(501,510,o),
(501,350,cs),
(501,190,o),
(402,90,o),
(269,90,cs),
(145,90,l)
);
}
);
userData = {
com.hugojourdan.ColorFlow = {
"0" = 0;
"1" = 0;
"10" = 0;
"11" = 0;
"2" = 0;
"3" = 0;
"4" = 0;
"5" = 0;
"6" = 0;
"7" = 0;
"8" = 0;
"9" = 0;
};
};
width = 600;
},
{
layerId = m002;
shapes = (
{
closed = 1;
nodes = (
(60,-282,l),
(289,-122,ls),
(484,14,o),
(626,254,o),
(626,464,cs),
(626,674,o),
(485,716,o),
(290,579,cs),
(60,418,l)
);
},
{
closed = 1;
nodes = (
(165,402,l),
(290,489,ls),
(423,582,o),
(521,550,o),
(521,390,cs),
(521,230,o),
(422,62,o),
(289,-32,cs),
(165,-118,l)
);
}
);
userData = {
com.hugojourdan.ColorFlow = {
"0" = 0;
"1" = 0;
"10" = 0;
"11" = 0;
"2" = 0;
"3" = 0;
"4" = 0;
"5" = 0;
"6" = 0;
"7" = 0;
"8" = 0;
"9" = 0;
};
};
width = 656;
},
{
layerId = m003;
shapes = (
{
closed = 1;
nodes = (
(70,-200,l),
(299,-200,ls),
(494,-200,o),
(636,-60,o),
(636,150,cs),
(636,360,o),
(495,500,o),
(300,500,cs),
(70,500,l)
);
},
{
closed = 1;
nodes = (
(175,410,l),
(300,410,ls),
(433,410,o),
(531,310,o),
(531,150,cs),
(531,-10,o),
(432,-110,o),
(299,-110,cs),
(175,-110,l)
);
}
);
userData = {
com.hugojourdan.ColorFlow = {
"0" = 0;
"1" = 0;
"10" = 0;
"11" = 0;
"2" = 0;
"3" = 0;
"4" = 0;
"5" = 0;
"6" = 0;
"7" = 0;
"8" = 0;
"9" = 0;
};
};
width = 660;
}
);
metricLeft = "=D";
metricRight = "=D";
}
{
glyphname = D.init;
kernLeft = H;
kernRight = D;
layers = (
{
layerId = m01;
shapes = (
{
closed = 1;
nodes = (
(56,0,l),
(285,0,ls),
(480,0,o),
(622,140,o),
(622,350,cs),
(622,560,o),
(481,700,o),
(286,700,cs),
(56,700,l)
);
},
{
closed = 1;
nodes = (
(161,610,l),
(286,610,ls),
(419,610,o),
(517,510,o),
(517,350,cs),
(517,190,o),
(418,90,o),
(285,90,cs),
(161,90,l)
);
}
);
userData = {
com.hugojourdan.ColorFlow = {
"0" = 0;
"1" = 0;
"10" = 0;
"11" = 0;
"2" = 0;
"3" = 0;
"4" = 0;
"5" = 0;
"6" = 0;
"7" = 0;
"8" = 0;
"9" = 0;
};
};
width = 662;
},
{
layerId = m002;
shapes = (
{
closed = 1;
nodes = (
(56,114,l),
(285,-46,ls),
(480,-183,o),
(622,-142,o),
(622,68,cs),
(622,278,o),
(481,517,o),
(286,653,cs),
(56,814,l)
);
},
{
closed = 1;
nodes = (
(161,651,l),
(286,563,ls),
(419,470,o),
(517,301,o),
(517,141,cs),
(517,-19,o),
(418,-49,o),
(285,44,cs),
(161,131,l)
);
}
);
userData = {
com.hugojourdan.ColorFlow = {
"0" = 0;
"1" = 0;
"10" = 0;
"11" = 0;
"2" = 0;
"3" = 0;
"4" = 0;
"5" = 0;
"6" = 0;
"7" = 0;
"8" = 0;
"9" = 0;
};
};
width = 662;
},
{
layerId = m003;
shapes = (
{
closed = 1;
nodes = (
(90,100,l),
(319,100,ls),
(514,100,o),
(656,240,o),
(656,450,cs),
(656,660,o),
(515,800,o),
(320,800,cs),
(90,800,l)
);
},
{
closed = 1;
nodes = (
(195,710,l),
(320,710,ls),
(453,710,o),
(551,610,o),
(551,450,cs),
(551,290,o),
(452,190,o),
(319,190,cs),
(195,190,l)
);
}
);
userData = {
com.hugojourdan.ColorFlow = {
"0" = 0;
"1" = 0;
"10" = 0;
"11" = 0;
"2" = 0;
"3" = 0;
"4" = 0;
"5" = 0;
"6" = 0;
"7" = 0;
"8" = 0;
"9" = 0;
};
};
width = 730;
}
);
metricLeft = "=H";
metricRight = "=O";
}
{
glyphname = E.init.alt;
kernLeft = H;
kernRight = E;
layers = (
{
layerId = m01;
shapes = (
{
closed = 1;
nodes = (
(90,0,l),
(195,0,l),
(195,700,l),
(90,700,l)
);
},
{
closed = 1;
nodes = (
(195,319,l),
(502,319,l),
(502,409,l),
(195,409,l)
);
},
{
closed = 1;
nodes = (
(195,610,l),
(522,610,l),
(522,700,l),
(195,700,l)
);
},
{
closed = 1;
nodes = (
(195,0,l),
(522,0,l),
(522,90,l),
(195,90,l)
);
}
);
userData = {
com.hugojourdan.ColorFlow = {
"0" = 0;
"1" = 0;
"10" = 0;
"11" = 0;
"2" = 0;
"3" = 0;
"4" = 0;
"5" = 0;
"6" = 0;
"7" = 0;
"8" = 0;
"9" = 0;
};
};
width = 612;
},
{
layerId = m002;
shapes = (
{
closed = 1;
nodes = (
(70,-197,l),
(175,-123,l),
(175,577,l),
(70,503,l)
);
},
{
closed = 1;
nodes = (
(175,196,l),
(482,410,l),
(482,500,l),
(175,286,l)
);
},
{
closed = 1;
nodes = (
(175,487,l),
(502,715,l),
(502,805,l),
(175,577,l)
);
},
{
closed = 1;
nodes = (
(175,-123,l),
(502,105,l),
(502,195,l),
(175,-33,l)
);
}
);
userData = {
com.hugojourdan.ColorFlow = {
"0" = 0;
"1" = 0;
"10" = 0;
"11" = 0;
"2" = 0;
"3" = 0;
"4" = 0;
"5" = 0;
"6" = 0;
"7" = 0;
"8" = 0;
"9" = 0;
};
};
width = 572;
},
{
layerId = m003;
shapes = (
{
closed = 1;
nodes = (
(50,-200,l),
(155,-200,l),
(155,500,l),
(50,500,l)
);
},
{
closed = 1;
nodes = (
(155,119,l),
(462,119,l),
(462,209,l),
(155,209,l)
);
},
{
closed = 1;
nodes = (
(155,410,l),
(482,410,l),
(482,500,l),
(155,500,l)
);
},
{
closed = 1;
nodes = (
(155,-200,l),
(482,-200,l),
(482,-110,l),
(155,-110,l)
);
}
);
userData = {
com.hugojourdan.ColorFlow = {
"0" = 0;
"1" = 0;
"10" = 0;
"11" = 0;
"2" = 0;
"3" = 0;
"4" = 0;
"5" = 0;
"6" = 0;
"7" = 0;
"8" = 0;
"9" = 0;
};
};
width = 532;
}
);
metricLeft = "=H";
metricRight = "=H";
}
{
glyphname = E.init;
kernLeft = H;
kernRight = E;
layers = (
{
layerId = m01;
shapes = (
{
closed = 1;
nodes = (
(45,0,l),
(150,0,l),
(150,700,l),
(45,700,l)
);
},
{
closed = 1;
nodes = (
(150,319,l),
(457,319,l),
(457,409,l),
(150,409,l)
);
},
{
closed = 1;
nodes = (
(150,610,l),
(477,610,l),
(477,700,l),
(150,700,l)
);
},
{
closed = 1;
nodes = (
(150,0,l),
(477,0,l),
(477,90,l),
(150,90,l)
);
}
);
userData = {
com.hugojourdan.ColorFlow = {
"0" = 0;
"1" = 0;
"10" = 0;
"11" = 0;
"2" = 0;
"3" = 0;
"4" = 0;
"5" = 0;
"6" = 0;
"7" = 0;
"8" = 0;
"9" = 0;
};
};
width = 522;
},
{
layerId = m002;
shapes = (
{
closed = 1;
nodes = (
(52,110,l),
(157,37,l),
(157,737,l),
(52,810,l)
);
},
{
closed = 1;
nodes = (
(157,356,l),
(464,141,l),
(464,231,l),
(157,446,l)
);
},
{
closed = 1;
nodes = (
(157,647,l),
(484,418,l),
(484,508,l),
(157,737,l)
);
},
{
closed = 1;
nodes = (
(157,37,l),
(484,-192,l),
(484,-102,l),
(157,127,l)
);
}
);
userData = {
com.hugojourdan.ColorFlow = {
"0" = 0;
"1" = 0;
"10" = 0;
"11" = 0;
"2" = 0;
"3" = 0;
"4" = 0;
"5" = 0;
"6" = 0;
"7" = 0;
"8" = 0;
"9" = 0;
};
};
width = 536;
},
{
layerId = m003;
shapes = (
{
closed = 1;
nodes = (
(50,100,l),
(155,100,l),
(155,800,l),
(50,800,l)
);
},
{
closed = 1;
nodes = (
(155,419,l),
(462,419,l),
(462,509,l),
(155,509,l)
);
},
{
closed = 1;
nodes = (
(155,710,l),
(482,710,l),
(482,800,l),
(155,800,l)
);
},
{
closed = 1;
nodes = (
(155,100,l),
(482,100,l),
(482,190,l),
(155,190,l)
);
}
);
userData = {
com.hugojourdan.ColorFlow = {
"0" = 0;
"1" = 0;
"10" = 0;
"11" = 0;
"2" = 0;
"3" = 0;
"4" = 0;
"5" = 0;
"6" = 0;
"7" = 0;
"8" = 0;
"9" = 0;
};
};
width = 532;
}
);
metricLeft = "=H";
metricRight = "=H";
}
{
glyphname = F.init.alt;
kernLeft = H;
kernRight = F;
layers = (
{
layerId = m01;
shapes = (
{
closed = 1;
nodes = (
(56,0,l),
(161,0,l),
(161,700,l),
(56,700,l)
);
},
{
closed = 1;
nodes = (
(161,328,l),
(408,328,l),
(408,418,l),
(161,418,l)
);
},
{
closed = 1;
nodes = (
(161,610,l),
(468,610,l),
(468,700,l),
(161,700,l)
);
}
);
userData = {
com.hugojourdan.ColorFlow = {
"0" = 0;
"1" = 0;
"10" = 0;
"11" = 0;
"2" = 0;
"3" = 0;
"4" = 0;
"5" = 0;
"6" = 0;
"7" = 0;
"8" = 0;
"9" = 0;
};
};
width = 524;
},
{
layerId = m002;
shapes = (
{
closed = 1;
nodes = (
(56,-307,l),
(161,-233,l),
(161,587,l),
(56,513,l)
);
},
{
closed = 1;
nodes = (
(161,215,l),
(408,387,l),
(408,477,l),
(161,305,l)
);
},
{
closed = 1;
nodes = (
(161,497,l),
(468,711,l),
(468,801,l),
(161,587,l)
);
}
);
userData = {
com.hugojourdan.ColorFlow = {
"0" = 0;
"1" = 0;
"10" = 0;
"11" = 0;
"2" = 0;
"3" = 0;
"4" = 0;
"5" = 0;
"6" = 0;
"7" = 0;
"8" = 0;
"9" = 0;
};
};
width = 524;
},
{
layerId = m003;
shapes = (
{
closed = 1;
nodes = (
(90,-200,l),
(195,-200,l),
(195,500,l),
(90,500,l)
);
},
{
closed = 1;
nodes = (
(195,128,l),
(442,128,l),
(442,218,l),
(195,218,l)
);
},
{
closed = 1;
nodes = (
(195,410,l),
(502,410,l),
(502,500,l),
(195,500,l)
);
}
);
userData = {
com.hugojourdan.ColorFlow = {
"0" = 0;
"1" = 0;
"10" = 0;
"11" = 0;
"2" = 0;
"3" = 0;
"4" = 0;
"5" = 0;
"6" = 0;
"7" = 0;
"8" = 0;
"9" = 0;
};
};
width = 592;
}
);
metricLeft = "=H";
metricRight = "=H";
}
{
glyphname = F.init;
kernLeft = H;
kernRight = F;
layers = (
{
layerId = m01;
shapes = (
{
closed = 1;
nodes = (
(45,0,l),
(150,0,l),
(150,700,l),
(45,700,l)
);
},
{
closed = 1;
nodes = (
(150,328,l),
(397,328,l),
(397,418,l),
(150,418,l)
);
},
{
closed = 1;
nodes = (
(150,610,l),
(457,610,l),
(457,700,l),
(150,700,l)
);
}
);
userData = {
com.hugojourdan.ColorFlow = {
"0" = 0;
"1" = 0;
"10" = 0;
"11" = 0;
"2" = 0;
"3" = 0;
"4" = 0;
"5" = 0;
"6" = 0;
"7" = 0;
"8" = 0;
"9" = 0;
};
};
width = 502;
},
{
layerId = m002;
shapes = (
{
closed = 1;
nodes = (
(52,-19,l),
(157,-92,l),
(157,728,l),
(52,801,l)
);
},
{
closed = 1;
nodes = (
(157,356,l),
(404,183,l),
(404,273,l),
(157,446,l)
);
},
{
closed = 1;
nodes = (
(157,638,l),
(464,423,l),
(464,513,l),
(157,728,l)
);
}
);
userData = {
com.hugojourdan.ColorFlow = {
"0" = 0;
"1" = 0;
"10" = 0;
"11" = 0;
"2" = 0;
"3" = 0;
"4" = 0;
"5" = 0;
"6" = 0;
"7" = 0;
"8" = 0;
"9" = 0;
};
};
width = 516;
},
{
layerId = m003;
shapes = (
{
closed = 1;
nodes = (
(50,100,l),
(155,100,l),
(155,800,l),
(50,800,l)
);
},
{
closed = 1;
nodes = (
(155,428,l),
(402,428,l),
(402,518,l),
(155,518,l)
);
},
{
closed = 1;
nodes = (
(155,710,l),
(462,710,l),
(462,800,l),
(155,800,l)
);
}
);
userData = {
com.hugojourdan.ColorFlow = {
"0" = 0;
"1" = 0;
"10" = 0;
"11" = 0;
"2" = 0;
"3" = 0;
"4" = 0;
"5" = 0;
"6" = 0;
"7" = 0;
"8" = 0;
"9" = 0;
};
};
width = 512;
}
);
metricLeft = "=H";
metricRight = "=H";
}
{
glyphname = G.init.alt;
kernLeft = O;
kernRight = G;
layers = (
{
layerId = m01;
shapes = (
{
closed = 1;
nodes = (
(691,370,l),
(349,369,l),
(349,279,l),
(570,279,l),
(569,184,o),
(502,82,o),
(362,82,cs),
(222,82,o),
(145,185,o),
(145,350,cs),
(145,515,o),
(222,618,o),
(362,618,cs),
(481,618,o),
(572,543,o),
(590,461,c),
(691,478,l),
(646,636,o),
(503,708,o),
(362,708,cs),
(167,708,o),
(40,565,o),
(40,350,cs),
(40,135,o),
(167,-8,o),
(362,-8,cs),
(557,-8,o),
(610,136,o),
(600,279,c),
(600,0,l),
(691,0,l)
);
}
);
userData = {
com.hugojourdan.ColorFlow = {
"0" = 0;
"1" = 0;
"10" = 0;
"11" = 0;
"2" = 0;
"3" = 0;
"4" = 0;
"5" = 0;
"6" = 0;
"7" = 0;
"8" = 0;
"9" = 0;
};
};
width = 731;
},
{
associatedMasterId = m01;
layerId = "6CD58B4D-0AF9-4DBA-A6FE-9DFBAF1342F0";
name = "19. Jul 23, 16:08";
shapes = (
{
closed = 1;
nodes = (
(571,280,l),
(571,185,o),
(487,82,o),
(347,82,cs),
(207,82,o),
(130,185,o),
(130,350,cs),
(130,515,o),
(207,618,o),
(347,618,cs),
(487,618,o),
(558,537,o),
(571,455,c),
(676,472,l),
(636,630,o),
(542,708,o),
(347,708,cs),
(152,708,o),
(25,565,o),
(25,350,cs),
(25,135,o),
(152,-8,o),
(347,-8,cs),
(542,-8,o),
(676,135,o),
(676,279,c)
);
},
{
closed = 1;
nodes = (
(354,279,l),
(676,279,l),
(676,379,l),
(354,379,l)
);
}
);
userData = {
com.hugojourdan.ColorFlow = {
"0" = 0;
"1" = 0;
"10" = 0;
"11" = 0;
"2" = 0;
"3" = 0;
"4" = 0;
"5" = 0;
"6" = 0;
"7" = 0;
"8" = 0;
"9" = 0;
};
};
width = 701;
},
{
associatedMasterId = m01;
layerId = "41AD4F1E-CF02-4B4E-83B1-0D201332BC78";
name = "19. Jul 23, 16:24";
shapes = (
{
closed = 1;
nodes = (
(676,369,l),
(334,369,l),
(334,279,l),
(571,279,l),
(570,184,o),
(487,82,o),
(347,82,cs),
(207,82,o),
(130,185,o),
(130,350,cs),
(130,515,o),
(207,618,o),
(347,618,cs),
(466,618,o),
(557,543,o),
(575,461,c),
(676,478,l),
(631,636,o),
(488,708,o),
(347,708,cs),
(152,708,o),
(25,565,o),
(25,350,cs),
(25,135,o),
(152,-8,o),
(347,-8,cs),
(542,-8,o),
(676,135,o),
(676,279,cs)
);
}
);
userData = {
com.hugojourdan.ColorFlow = {
"0" = 0;
"1" = 0;
"10" = 0;
"11" = 0;
"2" = 0;
"3" = 0;
"4" = 0;
"5" = 0;
"6" = 0;
"7" = 0;
"8" = 0;
"9" = 0;
};
};
width = 701;
},
{
layerId = m002;
shapes = (
{
closed = 1;
nodes = (
(691,618,l),
(349,378,l),
(349,288,l),
(570,442,l),
(569,347,o),
(502,197,o),
(362,99,cs),
(222,1,o),
(145,50,o),
(145,215,cs),
(145,380,o),
(222,537,o),
(362,635,cs),
(481,719,o),
(572,707,o),
(590,638,c),
(691,726,l),
(646,853,o),
(503,825,o),
(362,725,cs),
(167,589,o),
(40,357,o),
(40,142,cs),
(40,-73,o),
(167,-127,o),
(362,9,cs),
(557,146,o),
(610,327,o),
(600,463,c),
(600,184,l),
(691,248,l)
);
}
);
userData = {
com.hugojourdan.ColorFlow = {
"0" = 0;
"1" = 0;
"10" = 0;
"11" = 0;
"2" = 0;
"3" = 0;
"4" = 0;
"5" = 0;
"6" = 0;
"7" = 0;
"8" = 0;
"9" = 0;
};
};
width = 731;
},
{
associatedMasterId = m002;
layerId = "48FE7010-71DA-48E8-B752-A58A091291FF";
name = "19. Jul 23, 16:08";
shapes = (
{
closed = 1;
nodes = (
(571,280,l),
(571,185,o),
(487,82,o),
(347,82,cs),
(207,82,o),
(130,185,o),
(130,350,cs),
(130,515,o),
(207,618,o),
(347,618,cs),
(487,618,o),
(558,537,o),
(571,455,c),
(676,472,l),
(636,630,o),
(542,708,o),
(347,708,cs),
(152,708,o),
(25,565,o),
(25,350,cs),
(25,135,o),
(152,-8,o),
(347,-8,cs),
(542,-8,o),
(676,135,o),
(676,279,c)
);
},
{
closed = 1;
nodes = (
(354,279,l),
(676,279,l),
(676,379,l),
(354,379,l)
);
}
);
userData = {
com.hugojourdan.ColorFlow = {
"0" = 0;
"1" = 0;
"10" = 0;
"11" = 0;
"2" = 0;
"3" = 0;
"4" = 0;
"5" = 0;
"6" = 0;
"7" = 0;
"8" = 0;
"9" = 0;
};
};
width = 701;
},
{
associatedMasterId = m002;
layerId = "2B2E4C5F-21E6-4F4D-A0EE-7CA68E19DFF6";
name = "19. Jul 23, 16:24";
shapes = (
{
closed = 1;
nodes = (
(676,369,l),
(334,369,l),
(334,279,l),
(571,279,l),
(570,184,o),
(487,82,o),
(347,82,cs),
(207,82,o),
(130,185,o),
(130,350,cs),
(130,515,o),
(207,618,o),
(347,618,cs),
(466,618,o),
(557,543,o),
(575,461,c),
(676,478,l),
(631,636,o),
(488,708,o),
(347,708,cs),
(152,708,o),
(25,565,o),
(25,350,cs),
(25,135,o),
(152,-8,o),
(347,-8,cs),
(542,-8,o),
(676,135,o),
(676,279,cs)
);
}
);
userData = {
com.hugojourdan.ColorFlow = {
"0" = 0;
"1" = 0;
"10" = 0;
"11" = 0;
"2" = 0;
"3" = 0;
"4" = 0;
"5" = 0;
"6" = 0;
"7" = 0;
"8" = 0;
"9" = 0;
};
};
width = 701;
},
{
layerId = m003;
shapes = (
{
closed = 1;
nodes = (
(725,170,l),
(383,169,l),
(383,79,l),
(604,79,l),
(603,-16,o),
(536,-118,o),
(396,-118,cs),
(256,-118,o),
(179,-15,o),
(179,150,cs),
(179,315,o),
(256,418,o),
(396,418,cs),
(515,418,o),
(606,343,o),
(624,261,c),
(725,278,l),
(680,436,o),
(537,508,o),
(396,508,cs),
(201,508,o),
(74,365,o),
(74,150,cs),
(74,-65,o),
(201,-208,o),
(396,-208,cs),
(591,-208,o),
(644,-64,o),
(634,79,c),
(634,-200,l),
(725,-200,l)
);
}
);
userData = {
com.hugojourdan.ColorFlow = {
"0" = 0;
"1" = 0;
"10" = 0;
"11" = 0;
"2" = 0;
"3" = 0;
"4" = 0;
"5" = 0;
"6" = 0;
"7" = 0;
"8" = 0;
"9" = 0;
};
};
width = 799;
},
{
associatedMasterId = m003;
layerId = "49C96D89-2035-45A5-9B48-B3F9061A9CA7";
name = "19. Jul 23, 16:08";
shapes = (
{
closed = 1;
nodes = (
(571,280,l),
(571,185,o),
(487,82,o),
(347,82,cs),
(207,82,o),
(130,185,o),
(130,350,cs),
(130,515,o),
(207,618,o),
(347,618,cs),
(487,618,o),
(558,537,o),
(571,455,c),
(676,472,l),
(636,630,o),
(542,708,o),
(347,708,cs),
(152,708,o),
(25,565,o),
(25,350,cs),
(25,135,o),
(152,-8,o),
(347,-8,cs),
(542,-8,o),
(676,135,o),
(676,279,c)
);
},
{
closed = 1;
nodes = (
(354,279,l),
(676,279,l),
(676,379,l),
(354,379,l)
);
}
);
userData = {
com.hugojourdan.ColorFlow = {
"0" = 0;
"1" = 0;
"10" = 0;
"11" = 0;
"2" = 0;
"3" = 0;
"4" = 0;
"5" = 0;
"6" = 0;
"7" = 0;
"8" = 0;
"9" = 0;
};
};
width = 701;
},
{
associatedMasterId = m003;
layerId = "D052AF65-7E73-46C4-96B1-154FB495053B";
name = "19. Jul 23, 16:24";
shapes = (
{
closed = 1;
nodes = (
(676,369,l),
(334,369,l),
(334,279,l),
(571,279,l),
(570,184,o),
(487,82,o),
(347,82,cs),
(207,82,o),
(130,185,o),
(130,350,cs),
(130,515,o),
(207,618,o),
(347,618,cs),
(466,618,o),
(557,543,o),
(575,461,c),
(676,478,l),
(631,636,o),
(488,708,o),
(347,708,cs),
(152,708,o),
(25,565,o),
(25,350,cs),
(25,135,o),
(152,-8,o),
(347,-8,cs),
(542,-8,o),
(676,135,o),
(676,279,cs)
);
}
);
userData = {
com.hugojourdan.ColorFlow = {
"0" = 0;
"1" = 0;
"10" = 0;
"11" = 0;
"2" = 0;
"3" = 0;
"4" = 0;
"5" = 0;
"6" = 0;
"7" = 0;
"8" = 0;
"9" = 0;
};
};
width = 701;
}
);
metricLeft = "=O";
metricRight = "=O";
}
{
glyphname = G.init;
kernLeft = O;
kernRight = G;
layers = (
{
layerId = m01;
shapes = (
{
closed = 1;
nodes = (
(691,370,l),
(349,369,l),
(349,279,l),
(570,279,l),
(569,184,o),
(502,82,o),
(362,82,cs),
(222,82,o),
(145,185,o),
(145,350,cs),
(145,515,o),
(222,618,o),
(362,618,cs),
(481,618,o),
(572,543,o),
(590,461,c),
(691,478,l),
(646,636,o),
(503,708,o),
(362,708,cs),
(167,708,o),
(40,565,o),
(40,350,cs),
(40,135,o),
(167,-8,o),
(362,-8,cs),
(557,-8,o),
(610,136,o),
(600,279,c),
(600,0,l),
(691,0,l)
);
}
);
userData = {
com.hugojourdan.ColorFlow = {
"0" = 0;
"1" = 0;
"10" = 0;
"11" = 0;
"2" = 0;
"3" = 0;
"4" = 0;
"5" = 0;
"6" = 0;
"7" = 0;
"8" = 0;
"9" = 0;
};
};
width = 731;
},
{
associatedMasterId = m01;
layerId = "6CD58B4D-0AF9-4DBA-A6FE-9DFBAF1342F0";
name = "19. Jul 23, 16:08";
shapes = (
{
closed = 1;
nodes = (
(571,280,l),
(571,185,o),
(487,82,o),
(347,82,cs),
(207,82,o),
(130,185,o),
(130,350,cs),
(130,515,o),
(207,618,o),
(347,618,cs),
(487,618,o),
(558,537,o),
(571,455,c),
(676,472,l),
(636,630,o),
(542,708,o),
(347,708,cs),
(152,708,o),
(25,565,o),
(25,350,cs),
(25,135,o),
(152,-8,o),
(347,-8,cs),
(542,-8,o),
(676,135,o),
(676,279,c)
);
},
{
closed = 1;
nodes = (
(354,279,l),
(676,279,l),
(676,379,l),
(354,379,l)
);
}
);
userData = {
com.hugojourdan.ColorFlow = {
"0" = 0;
"1" = 0;
"10" = 0;
"11" = 0;
"2" = 0;
"3" = 0;
"4" = 0;
"5" = 0;
"6" = 0;
"7" = 0;
"8" = 0;
"9" = 0;
};
};
width = 701;
},
{
associatedMasterId = m01;
layerId = "41AD4F1E-CF02-4B4E-83B1-0D201332BC78";
name = "19. Jul 23, 16:24";
shapes = (
{
closed = 1;
nodes = (
(676,369,l),
(334,369,l),
(334,279,l),
(571,279,l),
(570,184,o),
(487,82,o),
(347,82,cs),
(207,82,o),
(130,185,o),
(130,350,cs),
(130,515,o),
(207,618,o),
(347,618,cs),
(466,618,o),
(557,543,o),
(575,461,c),
(676,478,l),
(631,636,o),
(488,708,o),
(347,708,cs),
(152,708,o),
(25,565,o),
(25,350,cs),
(25,135,o),
(152,-8,o),
(347,-8,cs),
(542,-8,o),
(676,135,o),
(676,279,cs)
);
}
);
userData = {
com.hugojourdan.ColorFlow = {
"0" = 0;
"1" = 0;
"10" = 0;
"11" = 0;
"2" = 0;
"3" = 0;
"4" = 0;
"5" = 0;
"6" = 0;
"7" = 0;
"8" = 0;
"9" = 0;
};
};
width = 701;
},
{
layerId = m002;
shapes = (
{
closed = 1;
nodes = (
(691,162,l),
(349,401,l),
(349,311,l),
(570,156,l),
(569,62,o),
(502,6,o),
(362,104,cs),
(222,202,o),
(145,359,o),
(145,524,cs),
(145,689,o),
(222,738,o),
(362,640,cs),
(481,557,o),
(572,418,o),
(590,324,c),
(691,270,l),
(646,460,o),
(503,632,o),
(362,730,cs),
(167,867,o),
(40,813,o),
(40,598,cs),
(40,383,o),
(167,151,o),
(362,14,cs),
(557,-122,o),
(610,-15,o),
(600,135,c),
(600,-144,l),
(691,-208,l)
);
}
);
userData = {
com.hugojourdan.ColorFlow = {
"0" = 0;
"1" = 0;
"10" = 0;
"11" = 0;
"2" = 0;
"3" = 0;
"4" = 0;
"5" = 0;
"6" = 0;
"7" = 0;
"8" = 0;
"9" = 0;
};
};
width = 731;
},
{
associatedMasterId = m002;
layerId = "48FE7010-71DA-48E8-B752-A58A091291FF";
name = "19. Jul 23, 16:08";
shapes = (
{
closed = 1;
nodes = (
(571,280,l),
(571,185,o),
(487,82,o),
(347,82,cs),
(207,82,o),
(130,185,o),
(130,350,cs),
(130,515,o),
(207,618,o),
(347,618,cs),
(487,618,o),
(558,537,o),
(571,455,c),
(676,472,l),
(636,630,o),
(542,708,o),
(347,708,cs),
(152,708,o),
(25,565,o),
(25,350,cs),
(25,135,o),
(152,-8,o),
(347,-8,cs),
(542,-8,o),
(676,135,o),
(676,279,c)
);
},
{
closed = 1;
nodes = (
(354,279,l),
(676,279,l),
(676,379,l),
(354,379,l)
);
}
);
userData = {
com.hugojourdan.ColorFlow = {
"0" = 0;
"1" = 0;
"10" = 0;
"11" = 0;
"2" = 0;
"3" = 0;
"4" = 0;
"5" = 0;
"6" = 0;
"7" = 0;
"8" = 0;
"9" = 0;
};
};
width = 701;
},
{
associatedMasterId = m002;
layerId = "2B2E4C5F-21E6-4F4D-A0EE-7CA68E19DFF6";
name = "19. Jul 23, 16:24";
shapes = (
{
closed = 1;
nodes = (
(676,369,l),
(334,369,l),
(334,279,l),
(571,279,l),
(570,184,o),
(487,82,o),
(347,82,cs),
(207,82,o),
(130,185,o),
(130,350,cs),
(130,515,o),
(207,618,o),
(347,618,cs),
(466,618,o),
(557,543,o),
(575,461,c),
(676,478,l),
(631,636,o),
(488,708,o),
(347,708,cs),
(152,708,o),
(25,565,o),
(25,350,cs),
(25,135,o),
(152,-8,o),
(347,-8,cs),
(542,-8,o),
(676,135,o),
(676,279,cs)
);
}
);
userData = {
com.hugojourdan.ColorFlow = {
"0" = 0;
"1" = 0;
"10" = 0;
"11" = 0;
"2" = 0;
"3" = 0;
"4" = 0;
"5" = 0;
"6" = 0;
"7" = 0;
"8" = 0;
"9" = 0;
};
};
width = 701;
},
{
layerId = m003;
shapes = (
{
closed = 1;
nodes = (
(725,470,l),
(383,469,l),
(383,379,l),
(604,379,l),
(603,284,o),
(536,182,o),
(396,182,cs),
(256,182,o),
(179,285,o),
(179,450,cs),
(179,615,o),
(256,718,o),
(396,718,cs),
(515,718,o),
(606,643,o),
(624,561,c),
(725,578,l),
(680,736,o),
(537,808,o),
(396,808,cs),
(201,808,o),
(74,665,o),
(74,450,cs),
(74,235,o),
(201,92,o),
(396,92,cs),
(591,92,o),
(644,236,o),
(634,379,c),
(634,100,l),
(725,100,l)
);
}
);
userData = {
com.hugojourdan.ColorFlow = {
"0" = 0;
"1" = 0;
"10" = 0;
"11" = 0;
"2" = 0;
"3" = 0;
"4" = 0;
"5" = 0;
"6" = 0;
"7" = 0;
"8" = 0;
"9" = 0;
};
};
width = 799;
},
{
associatedMasterId = m003;
layerId = "49C96D89-2035-45A5-9B48-B3F9061A9CA7";
name = "19. Jul 23, 16:08";
shapes = (
{
closed = 1;
nodes = (
(571,280,l),
(571,185,o),
(487,82,o),
(347,82,cs),
(207,82,o),
(130,185,o),
(130,350,cs),
(130,515,o),
(207,618,o),
(347,618,cs),
(487,618,o),
(558,537,o),
(571,455,c),
(676,472,l),
(636,630,o),
(542,708,o),
(347,708,cs),
(152,708,o),
(25,565,o),
(25,350,cs),
(25,135,o),
(152,-8,o),
(347,-8,cs),
(542,-8,o),
(676,135,o),
(676,279,c)
);
},
{
closed = 1;
nodes = (
(354,279,l),
(676,279,l),
(676,379,l),
(354,379,l)
);
}
);
userData = {
com.hugojourdan.ColorFlow = {
"0" = 0;
"1" = 0;
"10" = 0;
"11" = 0;
"2" = 0;
"3" = 0;
"4" = 0;
"5" = 0;
"6" = 0;
"7" = 0;
"8" = 0;
"9" = 0;
};
};
width = 701;
},
{
associatedMasterId = m003;
layerId = "D052AF65-7E73-46C4-96B1-154FB495053B";
name = "19. Jul 23, 16:24";
shapes = (
{
closed = 1;
nodes = (
(676,369,l),
(334,369,l),
(334,279,l),
(571,279,l),
(570,184,o),
(487,82,o),
(347,82,cs),
(207,82,o),
(130,185,o),
(130,350,cs),
(130,515,o),
(207,618,o),
(347,618,cs),
(466,618,o),
(557,543,o),
(575,461,c),
(676,478,l),
(631,636,o),
(488,708,o),
(347,708,cs),
(152,708,o),
(25,565,o),
(25,350,cs),
(25,135,o),
(152,-8,o),
(347,-8,cs),
(542,-8,o),
(676,135,o),
(676,279,cs)
);
}
);
userData = {
com.hugojourdan.ColorFlow = {
"0" = 0;
"1" = 0;
"10" = 0;
"11" = 0;
"2" = 0;
"3" = 0;
"4" = 0;
"5" = 0;
"6" = 0;
"7" = 0;
"8" = 0;
"9" = 0;
};
};
width = 701;
}
);
metricLeft = "=O";
metricRight = "=O";
}
{
glyphname = H.init.alt;
kernLeft = H;
kernRight = H;
layers = (
{
layerId = m01;
shapes = (
{
closed = 1;
nodes = (
(461,0,l),
(566,0,l),
(566,700,l),
(461,700,l)
);
},
{
closed = 1;
nodes = (
(45,0,l),
(150,0,l),
(150,700,l),
(45,700,l)
);
},
{
closed = 1;
nodes = (
(145,328,l),
(467,328,l),
(467,418,l),
(145,418,l)
);
}
);
userData = {
com.hugojourdan.ColorFlow = {
"0" = 0;
"1" = 0;
"10" = 0;
"11" = 0;
"2" = 0;
"3" = 0;
"4" = 0;
"5" = 0;
"6" = 0;
"7" = 0;
"8" = 0;
"9" = 0;
};
};
width = 611;
},
{
layerId = m002;
shapes = (
{
closed = 1;
nodes = (
(468,59,l),
(573,133,l),
(573,833,l),
(468,759,l)
);
},
{
closed = 1;
nodes = (
(52,-233,l),
(157,-159,l),
(157,541,l),
(52,467,l)
);
},
{
closed = 1;
nodes = (
(152,165,l),
(474,391,l),
(474,481,l),
(152,255,l)
);
}
);
userData = {
com.hugojourdan.ColorFlow = {
"0" = 0;
"1" = 0;
"10" = 0;
"11" = 0;
"2" = 0;
"3" = 0;
"4" = 0;
"5" = 0;
"6" = 0;
"7" = 0;
"8" = 0;
"9" = 0;
};
};
width = 625;
},
{
layerId = m003;
shapes = (
{
closed = 1;
nodes = (
(466,-200,l),
(571,-200,l),
(571,500,l),
(466,500,l)
);
},
{
closed = 1;
nodes = (
(50,-200,l),
(155,-200,l),
(155,500,l),
(50,500,l)
);
},
{
closed = 1;
nodes = (
(150,128,l),
(472,128,l),
(472,218,l),
(150,218,l)
);
}
);
userData = {
com.hugojourdan.ColorFlow = {
"0" = 0;
"1" = 0;
"10" = 0;
"11" = 0;
"2" = 0;
"3" = 0;
"4" = 0;
"5" = 0;
"6" = 0;
"7" = 0;
"8" = 0;
"9" = 0;
};
};
width = 621;
}
);
metricLeft = "=I";
metricRight = "=I";
}
{
glyphname = H.init;
kernLeft = H;
kernRight = H;
layers = (
{
layerId = m01;
shapes = (
{
closed = 1;
nodes = (
(461,0,l),
(566,0,l),
(566,700,l),
(461,700,l)
);
},
{
closed = 1;
nodes = (
(45,0,l),
(150,0,l),
(150,700,l),
(45,700,l)
);
},
{
closed = 1;
nodes = (
(145,328,l),
(467,328,l),
(467,418,l),
(145,418,l)
);
}
);
userData = {
com.hugojourdan.ColorFlow = {
"0" = 0;
"1" = 0;
"10" = 0;
"11" = 0;
"2" = 0;
"3" = 0;
"4" = 0;
"5" = 0;
"6" = 0;
"7" = 0;
"8" = 0;
"9" = 0;
};
};
width = 611;
},
{
layerId = m002;
shapes = (
{
closed = 1;
nodes = (
(468,-159,l),
(573,-232,l),
(573,468,l),
(468,541,l)
);
},
{
closed = 1;
nodes = (
(52,132,l),
(157,59,l),
(157,759,l),
(52,832,l)
);
},
{
closed = 1;
nodes = (
(152,390,l),
(474,165,l),
(474,255,l),
(152,480,l)
);
}
);
userData = {
com.hugojourdan.ColorFlow = {
"0" = 0;
"1" = 0;
"10" = 0;
"11" = 0;
"2" = 0;
"3" = 0;
"4" = 0;
"5" = 0;
"6" = 0;
"7" = 0;
"8" = 0;
"9" = 0;
};
};
width = 625;
},
{
layerId = m003;
shapes = (
{
closed = 1;
nodes = (
(466,100,l),
(571,100,l),
(571,800,l),
(466,800,l)
);
},
{
closed = 1;
nodes = (
(50,100,l),
(155,100,l),
(155,800,l),
(50,800,l)
);
},
{
closed = 1;
nodes = (
(150,428,l),
(472,428,l),
(472,518,l),
(150,518,l)
);
}
);
userData = {
com.hugojourdan.ColorFlow = {
"0" = 0;
"1" = 0;
"10" = 0;
"11" = 0;
"2" = 0;
"3" = 0;
"4" = 0;
"5" = 0;
"6" = 0;
"7" = 0;
"8" = 0;
"9" = 0;
};
};
width = 621;
}
);
metricLeft = "=I";
metricRight = "=I";
}
{
glyphname = I.init.alt;
kernLeft = I;
kernRight = I;
layers = (
{
layerId = m01;
shapes = (
{
closed = 1;
nodes = (
(90,0,l),
(195,0,l),
(195,700,l),
(90,700,l)
);
}
);
userData = {
com.hugojourdan.ColorFlow = {
"0" = 0;
"1" = 0;
"10" = 0;
"11" = 0;
"2" = 0;
"3" = 0;
"4" = 0;
"5" = 0;
"6" = 0;
"7" = 0;
"8" = 0;
"9" = 0;
};
};
width = 285;
},
{
layerId = m002;
shapes = (
{
closed = 1;
nodes = (
(70,-157,l),
(175,-83,l),
(175,807,l),
(70,733,l)
);
}
);
userData = {
com.hugojourdan.ColorFlow = {
"0" = 0;
"1" = 0;
"10" = 0;
"11" = 0;
"2" = 0;
"3" = 0;
"4" = 0;
"5" = 0;
"6" = 0;
"7" = 0;
"8" = 0;
"9" = 0;
};
};
width = 245;
},
{
layerId = m003;
shapes = (
{
closed = 1;
nodes = (
(50,-200,l),
(155,-200,l),
(155,500,l),
(50,500,l)
);
}
);
userData = {
com.hugojourdan.ColorFlow = {
"0" = 0;
"1" = 0;
"10" = 0;
"11" = 0;
"2" = 0;
"3" = 0;
"4" = 0;
"5" = 0;
"6" = 0;
"7" = 0;
"8" = 0;
"9" = 0;
};
};
width = 205;
}
);
metricLeft = "=i+10";
metricRight = "=i+10";
}
{
glyphname = I.init;
kernLeft = I;
kernRight = I;
layers = (
{
layerId = m01;
shapes = (
{
closed = 1;
nodes = (
(90,0,l),
(195,0,l),
(195,700,l),
(90,700,l)
);
}
);
userData = {
com.hugojourdan.ColorFlow = {
"0" = 0;
"1" = 0;
"10" = 0;
"11" = 0;
"2" = 0;
"3" = 0;
"4" = 0;
"5" = 0;
"6" = 0;
"7" = 0;
"8" = 0;
"9" = 0;
};
};
width = 285;
},
{
layerId = m002;
shapes = (
{
closed = 1;
nodes = (
(70,-83,l),
(175,-157,l),
(175,733,l),
(70,807,l)
);
}
);
userData = {
com.hugojourdan.ColorFlow = {
"0" = 0;
"1" = 0;
"10" = 0;
"11" = 0;
"2" = 0;
"3" = 0;
"4" = 0;
"5" = 0;
"6" = 0;
"7" = 0;
"8" = 0;
"9" = 0;
};
};
width = 245;
},
{
layerId = m003;
shapes = (
{
closed = 1;
nodes = (
(50,100,l),
(155,100,l),
(155,800,l),
(50,800,l)
);
}
);
userData = {
com.hugojourdan.ColorFlow = {
"0" = 0;
"1" = 0;
"10" = 0;
"11" = 0;
"2" = 0;
"3" = 0;
"4" = 0;
"5" = 0;
"6" = 0;
"7" = 0;
"8" = 0;
"9" = 0;
};
};
width = 205;
}
);
metricLeft = "=i+10";
metricRight = "=i+10";
}
{
glyphname = J.init.alt;
kernLeft = J;
kernRight = I;
layers = (
{
layerId = m01;
shapes = (
{
closed = 1;
nodes = (
(456,260,l),
(456,132,o),
(411,92,o),
(346,92,c),
(280,92,o),
(216,133,o),
(216,225,c),
(111,225,l),
(111,88,o),
(194,-8,o),
(354,-8,c),
(558,-8,o),
(561,151,o),
(561,240,c),
(561,700,l),
(456,700,l)
);
}
);
userData = {
com.hugojourdan.ColorFlow = {
"0" = 0;
"1" = 0;
"10" = 0;
"11" = 0;
"2" = 0;
"3" = 0;
"4" = 0;
"5" = 0;
"6" = 0;
"7" = 0;
"8" = 0;
"9" = 0;
};
};
width = 600;
},
{
layerId = m002;
shapes = (
{
closed = 1;
nodes = (
(361,224,l),
(361,96,o),
(316,24,o),
(251,-21,c),
(185,-67,o),
(121,-71,o),
(121,21,c),
(16,-52,l),
(16,-189,o),
(99,-228,o),
(259,-116,c),
(463,28,o),
(466,188,o),
(466,277,c),
(466,807,l),
(361,734,l)
);
}
);
userData = {
com.hugojourdan.ColorFlow = {
"0" = 0;
"1" = 0;
"10" = 0;
"11" = 0;
"2" = 0;
"3" = 0;
"4" = 0;
"5" = 0;
"6" = 0;
"7" = 0;
"8" = 0;
"9" = 0;
};
};
width = 511;
},
{
layerId = m003;
shapes = (
{
closed = 1;
nodes = (
(486,60,l),
(486,-68,o),
(441,-108,o),
(376,-108,c),
(310,-108,o),
(246,-67,o),
(246,25,c),
(141,25,l),
(141,-112,o),
(224,-208,o),
(384,-208,c),
(588,-208,o),
(591,-49,o),
(591,40,c),
(591,500,l),
(486,500,l)
);
}
);
userData = {
com.hugojourdan.ColorFlow = {
"0" = 0;
"1" = 0;
"10" = 0;
"11" = 0;
"2" = 0;
"3" = 0;
"4" = 0;
"5" = 0;
"6" = 0;
"7" = 0;
"8" = 0;
"9" = 0;
};
};
width = 660;
}
);
}
{
glyphname = J.init;
kernLeft = J;
kernRight = I;
layers = (
{
layerId = m01;
shapes = (
{
closed = 1;
nodes = (
(456,260,l),
(456,132,o),
(411,92,o),
(346,92,c),
(280,92,o),
(216,133,o),
(216,225,c),
(111,225,l),
(111,88,o),
(194,-8,o),
(354,-8,c),
(558,-8,o),
(561,151,o),
(561,240,c),
(561,700,l),
(456,700,l)
);
}
);
userData = {
com.hugojourdan.ColorFlow = {
"0" = 0;
"1" = 0;
"10" = 0;
"11" = 0;
"2" = 0;
"3" = 0;
"4" = 0;
"5" = 0;
"6" = 0;
"7" = 0;
"8" = 0;
"9" = 0;
};
};
width = 600;
},
{
layerId = m002;
shapes = (
{
closed = 1;
nodes = (
(363,56,l),
(363,-72,o),
(318,-81,o),
(253,-35,c),
(187,11,o),
(123,97,o),
(123,189,c),
(18,263,l),
(18,126,o),
(101,-29,o),
(261,-141,c),
(465,-283,o),
(468,-127,o),
(468,-38,c),
(468,732,l),
(363,806,l)
);
}
);
userData = {
com.hugojourdan.ColorFlow = {
"0" = 0;
"1" = 0;
"10" = 0;
"11" = 0;
"2" = 0;
"3" = 0;
"4" = 0;
"5" = 0;
"6" = 0;
"7" = 0;
"8" = 0;
"9" = 0;
};
};
width = 524;
},
{
layerId = m003;
shapes = (
{
closed = 1;
nodes = (
(486,360,l),
(486,232,o),
(441,192,o),
(376,192,c),
(310,192,o),
(246,233,o),
(246,325,c),
(141,325,l),
(141,188,o),
(224,92,o),
(384,92,c),
(588,92,o),
(591,251,o),
(591,340,c),
(591,800,l),
(486,800,l)
);
}
);
userData = {
com.hugojourdan.ColorFlow = {
"0" = 0;
"1" = 0;
"10" = 0;
"11" = 0;
"2" = 0;
"3" = 0;
"4" = 0;
"5" = 0;
"6" = 0;
"7" = 0;
"8" = 0;
"9" = 0;
};
};
width = 660;
}
);
}
{
glyphname = K.init.alt;
kernLeft = H;
kernRight = K;
layers = (
{
layerId = m01;
shapes = (
{
closed = 1;
nodes = (
(416,0,l),
(539,0,l),
(266,348,l),
(559,707,l),
(434,707,l),
(146,348,l)
);
},
{
closed = 1;
nodes = (
(65,0,l),
(170,0,l),
(170,700,l),
(65,700,l)
);
}
);
userData = {
com.hugojourdan.ColorFlow = {
"0" = 0;
"1" = 0;
"10" = 0;
"11" = 0;
"2" = 0;
"3" = 0;
"4" = 0;
"5" = 0;
"6" = 0;
"7" = 0;
"8" = 0;
"9" = 0;
};
};
width = 600;
},
{
layerId = m002;
shapes = (
{
closed = 1;
nodes = (
(396,13,l),
(519,99,l),
(246,256,l),
(539,820,l),
(414,733,l),
(126,172,l)
);
},
{
closed = 1;
nodes = (
(45,-233,l),
(150,-160,l),
(150,540,l),
(45,467,l)
);
}
);
userData = {
com.hugojourdan.ColorFlow = {
"0" = 0;
"1" = 0;
"10" = 0;
"11" = 0;
"2" = 0;
"3" = 0;
"4" = 0;
"5" = 0;
"6" = 0;
"7" = 0;
"8" = 0;
"9" = 0;
};
};
width = 553;
},
{
layerId = m003;
shapes = (
{
closed = 1;
nodes = (
(446,-200,l),
(569,-200,l),
(296,148,l),
(589,507,l),
(464,507,l),
(176,148,l)
);
},
{
closed = 1;
nodes = (
(95,-200,l),
(200,-200,l),
(200,500,l),
(95,500,l)
);
}
);
userData = {
com.hugojourdan.ColorFlow = {
"0" = 0;
"1" = 0;
"10" = 0;
"11" = 0;
"2" = 0;
"3" = 0;
"4" = 0;
"5" = 0;
"6" = 0;
"7" = 0;
"8" = 0;
"9" = 0;
};
};
width = 660;
}
);
}
{
glyphname = K.init;
kernLeft = H;
kernRight = K;
layers = (
{
layerId = m01;
shapes = (
{
closed = 1;
nodes = (
(416,0,l),
(539,0,l),
(266,348,l),
(559,707,l),
(434,707,l),
(146,348,l)
);
},
{
closed = 1;
nodes = (
(65,0,l),
(170,0,l),
(170,700,l),
(65,700,l)
);
}
);
userData = {
com.hugojourdan.ColorFlow = {
"0" = 0;
"1" = 0;
"10" = 0;
"11" = 0;
"2" = 0;
"3" = 0;
"4" = 0;
"5" = 0;
"6" = 0;
"7" = 0;
"8" = 0;
"9" = 0;
};
};
width = 600;
},
{
layerId = m002;
shapes = (
{
closed = 1;
nodes = (
(397,-133,l),
(520,-219,l),
(247,320,l),
(540,474,l),
(415,562,l),
(127,404,l)
);
},
{
closed = 1;
nodes = (
(46,113,l),
(151,39,l),
(151,739,l),
(46,813,l)
);
}
);
userData = {
com.hugojourdan.ColorFlow = {
"0" = 0;
"1" = 0;
"10" = 0;
"11" = 0;
"2" = 0;
"3" = 0;
"4" = 0;
"5" = 0;
"6" = 0;
"7" = 0;
"8" = 0;
"9" = 0;
};
};
width = 554;
},
{
layerId = m003;
shapes = (
{
closed = 1;
nodes = (
(446,100,l),
(569,100,l),
(296,448,l),
(589,807,l),
(464,807,l),
(176,448,l)
);
},
{
closed = 1;
nodes = (
(95,100,l),
(200,100,l),
(200,800,l),
(95,800,l)
);
}
);
userData = {
com.hugojourdan.ColorFlow = {
"0" = 0;
"1" = 0;
"10" = 0;
"11" = 0;
"2" = 0;
"3" = 0;
"4" = 0;
"5" = 0;
"6" = 0;
"7" = 0;
"8" = 0;
"9" = 0;
};
};
width = 660;
}
);
}
{
glyphname = L.init.alt;
kernLeft = H;
kernRight = L;
layers = (
{
layerId = m01;
shapes = (
{
closed = 1;
nodes = (
(90,0,l),
(195,0,l),
(195,700,l),
(90,700,l)
);
},
{
closed = 1;
nodes = (
(195,0,l),
(522,0,l),
(522,90,l),
(195,90,l)
);
}
);
userData = {
com.hugojourdan.ColorFlow = {
"0" = 0;
"1" = 0;
"10" = 0;
"11" = 0;
"2" = 0;
"3" = 0;
"4" = 0;
"5" = 0;
"6" = 0;
"7" = 0;
"8" = 0;
"9" = 0;
};
};
width = 612;
},
{
layerId = m002;
shapes = (
{
closed = 1;
nodes = (
(70,-201,l),
(175,-127,l),
(175,793,l),
(70,719,l)
);
},
{
closed = 1;
nodes = (
(175,-127,l),
(502,101,l),
(502,191,l),
(175,-37,l)
);
}
);
userData = {
com.hugojourdan.ColorFlow = {
"0" = 0;
"1" = 0;
"10" = 0;
"11" = 0;
"2" = 0;
"3" = 0;
"4" = 0;
"5" = 0;
"6" = 0;
"7" = 0;
"8" = 0;
"9" = 0;
};
};
width = 572;
},
{
layerId = m003;
shapes = (
{
closed = 1;
nodes = (
(50,-200,l),
(155,-200,l),
(155,500,l),
(50,500,l)
);
},
{
closed = 1;
nodes = (
(155,-200,l),
(482,-200,l),
(482,-110,l),
(155,-110,l)
);
}
);
userData = {
com.hugojourdan.ColorFlow = {
"0" = 0;
"1" = 0;
"10" = 0;
"11" = 0;
"2" = 0;
"3" = 0;
"4" = 0;
"5" = 0;
"6" = 0;
"7" = 0;
"8" = 0;
"9" = 0;
};
};
width = 532;
}
);
metricLeft = "=H";
metricRight = "=H";
}
{
glyphname = L.init;
kernLeft = H;
kernRight = "L-Forward";
layers = (
{
layerId = m01;
shapes = (
{
closed = 1;
nodes = (
(60,0,l),
(165,0,l),
(165,700,l),
(60,700,l)
);
},
{
closed = 1;
nodes = (
(165,0,l),
(492,0,l),
(492,90,l),
(165,90,l)
);
}
);
userData = {
com.hugojourdan.ColorFlow = {
"0" = 0;
"1" = 0;
"10" = 0;
"11" = 0;
"2" = 0;
"3" = 0;
"4" = 0;
"5" = 0;
"6" = 0;
"7" = 0;
"8" = 0;
"9" = 0;
};
};
width = 552;
},
{
layerId = m002;
shapes = (
{
closed = 1;
nodes = (
(56,111,l),
(161,38,l),
(161,738,l),
(56,811,l)
);
},
{
closed = 1;
nodes = (
(161,38,l),
(488,-191,l),
(488,-101,l),
(161,128,l)
);
}
);
userData = {
com.hugojourdan.ColorFlow = {
"0" = 0;
"1" = 0;
"10" = 0;
"11" = 0;
"2" = 0;
"3" = 0;
"4" = 0;
"5" = 0;
"6" = 0;
"7" = 0;
"8" = 0;
"9" = 0;
};
};
width = 544;
},
{
layerId = m003;
shapes = (
{
closed = 1;
nodes = (
(90,100,l),
(195,100,l),
(195,800,l),
(90,800,l)
);
},
{
closed = 1;
nodes = (
(195,100,l),
(522,100,l),
(522,190,l),
(195,190,l)
);
}
);
userData = {
com.hugojourdan.ColorFlow = {
"0" = 0;
"1" = 0;
"10" = 0;
"11" = 0;
"2" = 0;
"3" = 0;
"4" = 0;
"5" = 0;
"6" = 0;
"7" = 0;
"8" = 0;
"9" = 0;
};
};
width = 612;
}
);
metricLeft = "=H";
metricRight = "=H";
}
{
glyphname = M.init.alt;
kernLeft = H;
kernRight = H;
layers = (
{
layerId = m01;
shapes = (
{
closed = 1;
nodes = (
(443,0,l),
(631,528,l),
(631,0,l),
(736,0,l),
(736,700,l),
(579,698,l),
(391,142,l),
(197,700,l),
(45,700,l),
(45,0,l),
(150,0,l),
(150,528,l),
(338,0,l)
);
}
);
userData = {
com.hugojourdan.ColorFlow = {
"0" = 0;
"1" = 0;
"10" = 0;
"11" = 0;
"2" = 0;
"3" = 0;
"4" = 0;
"5" = 0;
"6" = 0;
"7" = 0;
"8" = 0;
"9" = 0;
};
};
width = 781;
},
{
layerId = m002;
shapes = (
{
closed = 1;
nodes = (
(450,-21,l),
(638,639,l),
(638,111,l),
(743,184,l),
(743,884,l),
(586,772,l),
(398,85,l),
(204,506,l),
(52,400,l),
(52,-300,l),
(157,-227,l),
(157,301,l),
(345,-95,l)
);
}
);
userData = {
com.hugojourdan.ColorFlow = {
"0" = 0;
"1" = 0;
"10" = 0;
"11" = 0;
"2" = 0;
"3" = 0;
"4" = 0;
"5" = 0;
"6" = 0;
"7" = 0;
"8" = 0;
"9" = 0;
};
};
width = 795;
},
{
layerId = m003;
shapes = (
{
closed = 1;
nodes = (
(448,-200,l),
(636,328,l),
(636,-200,l),
(741,-200,l),
(741,500,l),
(584,498,l),
(396,-58,l),
(202,500,l),
(50,500,l),
(50,-200,l),
(155,-200,l),
(155,328,l),
(343,-200,l)
);
}
);
userData = {
com.hugojourdan.ColorFlow = {
"0" = 0;
"1" = 0;
"10" = 0;
"11" = 0;
"2" = 0;
"3" = 0;
"4" = 0;
"5" = 0;
"6" = 0;
"7" = 0;
"8" = 0;
"9" = 0;
};
};
width = 791;
}
);
metricLeft = "=H";
metricRight = "=H";
}
{
glyphname = M.init;
kernLeft = H;
kernRight = H;
layers = (
{
layerId = m01;
shapes = (
{
closed = 1;
nodes = (
(443,0,l),
(631,528,l),
(631,0,l),
(736,0,l),
(736,700,l),
(579,698,l),
(391,142,l),
(197,700,l),
(45,700,l),
(45,0,l),
(150,0,l),
(150,528,l),
(338,0,l)
);
}
);
userData = {
com.hugojourdan.ColorFlow = {
"0" = 0;
"1" = 0;
"10" = 0;
"11" = 0;
"2" = 0;
"3" = 0;
"4" = 0;
"5" = 0;
"6" = 0;
"7" = 0;
"8" = 0;
"9" = 0;
};
};
width = 781;
},
{
layerId = m002;
shapes = (
{
closed = 1;
nodes = (
(450,-7,l),
(638,390,l),
(638,-138,l),
(743,-212,l),
(743,488,l),
(586,596,l),
(398,172,l),
(204,865,l),
(52,972,l),
(52,272,l),
(157,198,l),
(157,726,l),
(345,67,l)
);
}
);
userData = {
com.hugojourdan.ColorFlow = {
"0" = 0;
"1" = 0;
"10" = 0;
"11" = 0;
"2" = 0;
"3" = 0;
"4" = 0;
"5" = 0;
"6" = 0;
"7" = 0;
"8" = 0;
"9" = 0;
};
};
width = 795;
},
{
layerId = m003;
shapes = (
{
closed = 1;
nodes = (
(448,100,l),
(636,628,l),
(636,100,l),
(741,100,l),
(741,800,l),
(584,798,l),
(396,242,l),
(202,800,l),
(50,800,l),
(50,100,l),
(155,100,l),
(155,628,l),
(343,100,l)
);
}
);
userData = {
com.hugojourdan.ColorFlow = {
"0" = 0;
"1" = 0;
"10" = 0;
"11" = 0;
"2" = 0;
"3" = 0;
"4" = 0;
"5" = 0;
"6" = 0;
"7" = 0;
"8" = 0;
"9" = 0;
};
};
width = 791;
}
);
metricLeft = "=H";
metricRight = "=H";
}
{
glyphname = N.init.alt;
kernLeft = H;
kernRight = H;
layers = (
{
layerId = m01;
shapes = (
{
closed = 1;
nodes = (
(502,109,l),
(214,700,l),
(56,700,l),
(56,0,l),
(161,0,l),
(161,571,l),
(449,0,l),
(607,0,l),
(607,700,l),
(502,700,l)
);
}
);
userData = {
com.hugojourdan.ColorFlow = {
"0" = 0;
"1" = 0;
"10" = 0;
"11" = 0;
"2" = 0;
"3" = 0;
"4" = 0;
"5" = 0;
"6" = 0;
"7" = 0;
"8" = 0;
"9" = 0;
};
};
width = 663;
},
{
layerId = m002;
shapes = (
{
closed = 1;
nodes = (
(502,217,l),
(214,605,l),
(56,495,l),
(56,-205,l),
(161,-132,l),
(161,439,l),
(449,71,l),
(607,181,l),
(607,881,l),
(502,808,l)
);
}
);
userData = {
com.hugojourdan.ColorFlow = {
"0" = 0;
"1" = 0;
"10" = 0;
"11" = 0;
"2" = 0;
"3" = 0;
"4" = 0;
"5" = 0;
"6" = 0;
"7" = 0;
"8" = 0;
"9" = 0;
};
};
width = 663;
},
{
layerId = m003;
shapes = (
{
closed = 1;
nodes = (
(536,-91,l),
(248,500,l),
(90,500,l),
(90,-200,l),
(195,-200,l),
(195,371,l),
(483,-200,l),
(641,-200,l),
(641,500,l),
(536,500,l)
);
}
);
userData = {
com.hugojourdan.ColorFlow = {
"0" = 0;
"1" = 0;
"10" = 0;
"11" = 0;
"2" = 0;
"3" = 0;
"4" = 0;
"5" = 0;
"6" = 0;
"7" = 0;
"8" = 0;
"9" = 0;
};
};
width = 731;
}
);
metricLeft = "=H";
metricRight = "=H";
}
{
glyphname = N.init;
kernLeft = H;
kernRight = H;
layers = (
{
layerId = m01;
shapes = (
{
closed = 1;
nodes = (
(506,109,l),
(218,700,l),
(60,700,l),
(60,0,l),
(165,0,l),
(165,571,l),
(453,0,l),
(611,0,l),
(611,700,l),
(506,700,l)
);
}
);
userData = {
com.hugojourdan.ColorFlow = {
"0" = 0;
"1" = 0;
"10" = 0;
"11" = 0;
"2" = 0;
"3" = 0;
"4" = 0;
"5" = 0;
"6" = 0;
"7" = 0;
"8" = 0;
"9" = 0;
};
};
width = 671;
},
{
layerId = m002;
shapes = (
{
closed = 1;
nodes = (
(502,-22,l),
(214,770,l),
(56,881,l),
(56,181,l),
(161,107,l),
(161,678,l),
(449,-94,l),
(607,-205,l),
(607,495,l),
(502,569,l)
);
}
);
userData = {
com.hugojourdan.ColorFlow = {
"0" = 0;
"1" = 0;
"10" = 0;
"11" = 0;
"2" = 0;
"3" = 0;
"4" = 0;
"5" = 0;
"6" = 0;
"7" = 0;
"8" = 0;
"9" = 0;
};
};
width = 663;
},
{
layerId = m003;
shapes = (
{
closed = 1;
nodes = (
(536,209,l),
(248,800,l),
(90,800,l),
(90,100,l),
(195,100,l),
(195,671,l),
(483,100,l),
(641,100,l),
(641,800,l),
(536,800,l)
);
}
);
userData = {
com.hugojourdan.ColorFlow = {
"0" = 0;
"1" = 0;
"10" = 0;
"11" = 0;
"2" = 0;
"3" = 0;
"4" = 0;
"5" = 0;
"6" = 0;
"7" = 0;
"8" = 0;
"9" = 0;
};
};
width = 731;
}
);
metricLeft = "=H";
metricRight = "=H";
}
{
glyphname = O.init.alt;
kernLeft = O;
kernRight = O;
layers = (
{
layerId = m01;
shapes = (
{
closed = 1;
nodes = (
(542,-8,o),
(676,135,o),
(676,350,cs),
(676,565,o),
(542,708,o),
(347,708,cs),
(152,708,o),
(25,565,o),
(25,350,cs),
(25,135,o),
(152,-8,o),
(347,-8,cs)
);
},
{
closed = 1;
nodes = (
(207,82,o),
(130,185,o),
(130,350,cs),
(130,515,o),
(207,618,o),
(347,618,cs),
(487,618,o),
(571,515,o),
(571,350,cs),
(571,185,o),
(487,82,o),
(347,82,cs)
);
}
);
userData = {
com.hugojourdan.ColorFlow = {
"0" = 0;
"1" = 0;
"10" = 0;
"11" = 0;
"2" = 0;
"3" = 0;
"4" = 0;
"5" = 0;
"6" = 0;
"7" = 0;
"8" = 0;
"9" = 0;
};
};
width = 701;
},
{
layerId = m002;
shapes = (
{
closed = 1;
nodes = (
(560,126,o),
(694,363,o),
(694,578,cs),
(694,793,o),
(560,842,o),
(365,705,cs),
(170,569,o),
(43,337,o),
(43,122,cs),
(43,-93,o),
(170,-147,o),
(365,-11,cs)
);
},
{
closed = 1;
nodes = (
(225,-19,o),
(148,30,o),
(148,195,cs),
(148,360,o),
(225,517,o),
(365,615,cs),
(505,713,o),
(589,670,o),
(589,505,cs),
(589,340,o),
(505,177,o),
(365,79,cs)
);
}
);
userData = {
com.hugojourdan.ColorFlow = {
"0" = 0;
"1" = 0;
"10" = 0;
"11" = 0;
"2" = 0;
"3" = 0;
"4" = 0;
"5" = 0;
"6" = 0;
"7" = 0;
"8" = 0;
"9" = 0;
};
};
width = 737;
},
{
layerId = m003;
shapes = (
{
closed = 1;
nodes = (
(547,-209,o),
(681,-66,o),
(681,149,cs),
(681,364,o),
(547,507,o),
(352,507,cs),
(157,507,o),
(30,364,o),
(30,149,cs),
(30,-66,o),
(157,-209,o),
(352,-209,cs)
);
},
{
closed = 1;
nodes = (
(212,-119,o),
(135,-16,o),
(135,149,cs),
(135,314,o),
(212,417,o),
(352,417,cs),
(492,417,o),
(576,314,o),
(576,149,cs),
(576,-16,o),
(492,-119,o),
(352,-119,cs)
);
}
);
userData = {
com.hugojourdan.ColorFlow = {
"0" = 0;
"1" = 0;
"10" = 0;
"11" = 0;
"2" = 0;
"3" = 0;
"4" = 0;
"5" = 0;
"6" = 0;
"7" = 0;
"8" = 0;
"9" = 0;
};
};
width = 711;
}
);
metricLeft = "=o+10";
metricRight = "=o+10";
}
{
glyphname = O.init;
kernLeft = O;
kernRight = O;
layers = (
{
layerId = m01;
shapes = (
{
closed = 1;
nodes = (
(557,-8,o),
(691,135,o),
(691,350,cs),
(691,565,o),
(557,708,o),
(362,708,cs),
(167,708,o),
(40,565,o),
(40,350,cs),
(40,135,o),
(167,-8,o),
(362,-8,cs)
);
},
{
closed = 1;
nodes = (
(222,82,o),
(145,185,o),
(145,350,cs),
(145,515,o),
(222,618,o),
(362,618,cs),
(502,618,o),
(586,515,o),
(586,350,cs),
(586,185,o),
(502,82,o),
(362,82,cs)
);
}
);
userData = {
com.hugojourdan.ColorFlow = {
"0" = 0;
"1" = 0;
"10" = 0;
"11" = 0;
"2" = 0;
"3" = 0;
"4" = 0;
"5" = 0;
"6" = 0;
"7" = 0;
"8" = 0;
"9" = 0;
};
};
width = 731;
},
{
layerId = m002;
shapes = (
{
closed = 1;
nodes = (
(557,-142,o),
(691,-93,o),
(691,122,cs),
(691,337,o),
(557,574,o),
(362,710,cs),
(167,847,o),
(40,793,o),
(40,578,cs),
(40,363,o),
(167,131,o),
(362,-6,cs)
);
},
{
closed = 1;
nodes = (
(222,182,o),
(145,339,o),
(145,504,cs),
(145,669,o),
(222,718,o),
(362,620,cs),
(502,522,o),
(586,361,o),
(586,196,cs),
(586,31,o),
(502,-14,o),
(362,84,cs)
);
}
);
userData = {
com.hugojourdan.ColorFlow = {
"0" = 0;
"1" = 0;
"10" = 0;
"11" = 0;
"2" = 0;
"3" = 0;
"4" = 0;
"5" = 0;
"6" = 0;
"7" = 0;
"8" = 0;
"9" = 0;
};
};
width = 731;
},
{
layerId = m003;
shapes = (
{
closed = 1;
nodes = (
(591,92,o),
(725,235,o),
(725,450,cs),
(725,665,o),
(591,808,o),
(396,808,cs),
(201,808,o),
(74,665,o),
(74,450,cs),
(74,235,o),
(201,92,o),
(396,92,cs)
);
},
{
closed = 1;
nodes = (
(256,182,o),
(179,285,o),
(179,450,cs),
(179,615,o),
(256,718,o),
(396,718,cs),
(536,718,o),
(620,615,o),
(620,450,cs),
(620,285,o),
(536,182,o),
(396,182,cs)
);
}
);
userData = {
com.hugojourdan.ColorFlow = {
"0" = 0;
"1" = 0;
"10" = 0;
"11" = 0;
"2" = 0;
"3" = 0;
"4" = 0;
"5" = 0;
"6" = 0;
"7" = 0;
"8" = 0;
"9" = 0;
};
};
width = 799;
}
);
metricLeft = "=o+10";
metricRight = "=o+10";
}
{
glyphname = P.init.alt;
kernLeft = H;
kernRight = P;
layers = (
{
layerId = m01;
shapes = (
{
closed = 1;
nodes = (
(90,0,l),
(195,0,l),
(195,700,l),
(90,700,l)
);
},
{
closed = 1;
nodes = (
(195,288,l),
(357,288,l),
(357,378,l),
(195,378,l)
);
},
{
closed = 1;
nodes = (
(195,610,l),
(357,610,l),
(357,700,l),
(195,700,l)
);
},
{
closed = 1;
nodes = (
(357,610,l),
(423,610,o),
(481,566,o),
(481,495,c),
(481,425,o),
(424,380,o),
(357,378,c),
(357,288,l),
(476,290,o),
(581,344,o),
(581,495,cs),
(581,646,o),
(476,700,o),
(357,700,c)
);
}
);
userData = {
com.hugojourdan.ColorFlow = {
"0" = 0;
"1" = 0;
"10" = 0;
"11" = 0;
"2" = 0;
"3" = 0;
"4" = 0;
"5" = 0;
"6" = 0;
"7" = 0;
"8" = 0;
"9" = 0;
};
};
width = 606;
},
{
associatedMasterId = m01;
layerId = "767DA48E-15D8-4720-A877-93C1F22FA51D";
name = "19. Jul 23, 15:23";
shapes = (
{
closed = 1;
nodes = (
(40,0,l),
(145,0,l),
(145,700,l),
(40,700,l)
);
},
{
closed = 1;
nodes = (
(145,288,l),
(307,288,l),
(307,378,l),
(145,378,l)
);
},
{
closed = 1;
nodes = (
(145,610,l),
(307,610,l),
(307,700,l),
(145,700,l)
);
},
{
closed = 1;
nodes = (
(307,610,l),
(373,610,o),
(431,569,o),
(431,486,c),
(431,409,o),
(374,380,o),
(307,378,c),
(307,288,l),
(426,290,o),
(531,335,o),
(531,486,cs),
(531,637,o),
(426,700,o),
(307,700,c)
);
}
);
userData = {
com.hugojourdan.ColorFlow = {
"0" = 0;
"1" = 0;
"10" = 0;
"11" = 0;
"2" = 0;
"3" = 0;
"4" = 0;
"5" = 0;
"6" = 0;
"7" = 0;
"8" = 0;
"9" = 0;
};
};
width = 556;
},
{
layerId = m002;
shapes = (
{
closed = 1;
nodes = (
(70,-212,l),
(175,-139,l),
(175,631,l),
(70,558,l)
);
},
{
closed = 1;
nodes = (
(175,219,l),
(337,333,l),
(337,423,l),
(175,309,l)
);
},
{
closed = 1;
nodes = (
(175,541,l),
(337,655,l),
(337,745,l),
(175,631,l)
);
},
{
closed = 1;
nodes = (
(337,655,l),
(403,702,o),
(461,698,o),
(461,627,c),
(461,557,o),
(404,472,o),
(337,423,c),
(337,333,l),
(456,419,o),
(561,546,o),
(561,697,cs),
(561,848,o),
(456,829,o),
(337,745,c)
);
}
);
userData = {
com.hugojourdan.ColorFlow = {
"0" = 0;
"1" = 0;
"10" = 0;
"11" = 0;
"2" = 0;
"3" = 0;
"4" = 0;
"5" = 0;
"6" = 0;
"7" = 0;
"8" = 0;
"9" = 0;
};
};
width = 604;
},
{
associatedMasterId = m002;
layerId = "4F1877E2-C10F-4519-B0C4-86CABB08FCFF";
name = "19. Jul 23, 15:23";
shapes = (
{
closed = 1;
nodes = (
(40,0,l),
(145,0,l),
(145,700,l),
(40,700,l)
);
},
{
closed = 1;
nodes = (
(145,288,l),
(307,288,l),
(307,378,l),
(145,378,l)
);
},
{
closed = 1;
nodes = (
(145,610,l),
(307,610,l),
(307,700,l),
(145,700,l)
);
},
{
closed = 1;
nodes = (
(307,610,l),
(373,610,o),
(431,569,o),
(431,486,c),
(431,409,o),
(374,380,o),
(307,378,c),
(307,288,l),
(426,290,o),
(531,335,o),
(531,486,cs),
(531,637,o),
(426,700,o),
(307,700,c)
);
}
);
userData = {
com.hugojourdan.ColorFlow = {
"0" = 0;
"1" = 0;
"10" = 0;
"11" = 0;
"2" = 0;
"3" = 0;
"4" = 0;
"5" = 0;
"6" = 0;
"7" = 0;
"8" = 0;
"9" = 0;
};
};
width = 556;
},
{
layerId = m003;
shapes = (
{
closed = 1;
nodes = (
(50,-200,l),
(155,-200,l),
(155,500,l),
(50,500,l)
);
},
{
closed = 1;
nodes = (
(155,88,l),
(317,88,l),
(317,178,l),
(155,178,l)
);
},
{
closed = 1;
nodes = (
(155,410,l),
(317,410,l),
(317,500,l),
(155,500,l)
);
},
{
closed = 1;
nodes = (
(317,410,l),
(383,410,o),
(441,366,o),
(441,295,c),
(441,225,o),
(384,180,o),
(317,178,c),
(317,88,l),
(436,90,o),
(541,144,o),
(541,295,cs),
(541,446,o),
(436,500,o),
(317,500,c)
);
}
);
userData = {
com.hugojourdan.ColorFlow = {
"0" = 0;
"1" = 0;
"10" = 0;
"11" = 0;
"2" = 0;
"3" = 0;
"4" = 0;
"5" = 0;
"6" = 0;
"7" = 0;
"8" = 0;
"9" = 0;
};
};
width = 571;
},
{
associatedMasterId = m003;
layerId = "DC565858-836A-446C-A2DA-BB744FBB2B33";
name = "19. Jul 23, 15:23";
shapes = (
{
closed = 1;
nodes = (
(40,0,l),
(145,0,l),
(145,700,l),
(40,700,l)
);
},
{
closed = 1;
nodes = (
(145,288,l),
(307,288,l),
(307,378,l),
(145,378,l)
);
},
{
closed = 1;
nodes = (
(145,610,l),
(307,610,l),
(307,700,l),
(145,700,l)
);
},
{
closed = 1;
nodes = (
(307,610,l),
(373,610,o),
(431,569,o),
(431,486,c),
(431,409,o),
(374,380,o),
(307,378,c),
(307,288,l),
(426,290,o),
(531,335,o),
(531,486,cs),
(531,637,o),
(426,700,o),
(307,700,c)
);
}
);
userData = {
com.hugojourdan.ColorFlow = {
"0" = 0;
"1" = 0;
"10" = 0;
"11" = 0;
"2" = 0;
"3" = 0;
"4" = 0;
"5" = 0;
"6" = 0;
"7" = 0;
"8" = 0;
"9" = 0;
};
};
width = 556;
}
);
metricLeft = "=H";
metricRight = "=O";
}
{
glyphname = P.init;
kernLeft = H;
kernRight = P;
layers = (
{
layerId = m01;
shapes = (
{
closed = 1;
nodes = (
(90,0,l),
(195,0,l),
(195,700,l),
(90,700,l)
);
},
{
closed = 1;
nodes = (
(195,288,l),
(357,288,l),
(357,378,l),
(195,378,l)
);
},
{
closed = 1;
nodes = (
(195,610,l),
(357,610,l),
(357,700,l),
(195,700,l)
);
},
{
closed = 1;
nodes = (
(357,610,l),
(423,610,o),
(481,566,o),
(481,495,c),
(481,425,o),
(424,380,o),
(357,378,c),
(357,288,l),
(476,290,o),
(581,344,o),
(581,495,cs),
(581,646,o),
(476,700,o),
(357,700,c)
);
}
);
userData = {
com.hugojourdan.ColorFlow = {
"0" = 0;
"1" = 0;
"10" = 0;
"11" = 0;
"2" = 0;
"3" = 0;
"4" = 0;
"5" = 0;
"6" = 0;
"7" = 0;
"8" = 0;
"9" = 0;
};
};
width = 606;
},
{
associatedMasterId = m01;
layerId = "767DA48E-15D8-4720-A877-93C1F22FA51D";
name = "19. Jul 23, 15:23";
shapes = (
{
closed = 1;
nodes = (
(40,0,l),
(145,0,l),
(145,700,l),
(40,700,l)
);
},
{
closed = 1;
nodes = (
(145,288,l),
(307,288,l),
(307,378,l),
(145,378,l)
);
},
{
closed = 1;
nodes = (
(145,610,l),
(307,610,l),
(307,700,l),
(145,700,l)
);
},
{
closed = 1;
nodes = (
(307,610,l),
(373,610,o),
(431,569,o),
(431,486,c),
(431,409,o),
(374,380,o),
(307,378,c),
(307,288,l),
(426,290,o),
(531,335,o),
(531,486,cs),
(531,637,o),
(426,700,o),
(307,700,c)
);
}
);
userData = {
com.hugojourdan.ColorFlow = {
"0" = 0;
"1" = 0;
"10" = 0;
"11" = 0;
"2" = 0;
"3" = 0;
"4" = 0;
"5" = 0;
"6" = 0;
"7" = 0;
"8" = 0;
"9" = 0;
};
};
width = 556;
},
{
layerId = m002;
shapes = (
{
closed = 1;
nodes = (
(70,-8,l),
(175,-82,l),
(175,738,l),
(70,812,l)
);
},
{
closed = 1;
nodes = (
(175,326,l),
(337,213,l),
(337,303,l),
(175,416,l)
);
},
{
closed = 1;
nodes = (
(175,648,l),
(337,535,l),
(337,625,l),
(175,738,l)
);
},
{
closed = 1;
nodes = (
(337,535,l),
(403,489,o),
(461,404,o),
(461,333,c),
(461,263,o),
(404,258,o),
(337,303,c),
(337,213,l),
(456,132,o),
(561,112,o),
(561,263,cs),
(561,414,o),
(456,542,o),
(337,625,c)
);
}
);
userData = {
com.hugojourdan.ColorFlow = {
"0" = 0;
"1" = 0;
"10" = 0;
"11" = 0;
"2" = 0;
"3" = 0;
"4" = 0;
"5" = 0;
"6" = 0;
"7" = 0;
"8" = 0;
"9" = 0;
};
};
width = 604;
},
{
associatedMasterId = m002;
layerId = "4F1877E2-C10F-4519-B0C4-86CABB08FCFF";
name = "19. Jul 23, 15:23";
shapes = (
{
closed = 1;
nodes = (
(40,0,l),
(145,0,l),
(145,700,l),
(40,700,l)
);
},
{
closed = 1;
nodes = (
(145,288,l),
(307,288,l),
(307,378,l),
(145,378,l)
);
},
{
closed = 1;
nodes = (
(145,610,l),
(307,610,l),
(307,700,l),
(145,700,l)
);
},
{
closed = 1;
nodes = (
(307,610,l),
(373,610,o),
(431,569,o),
(431,486,c),
(431,409,o),
(374,380,o),
(307,378,c),
(307,288,l),
(426,290,o),
(531,335,o),
(531,486,cs),
(531,637,o),
(426,700,o),
(307,700,c)
);
}
);
userData = {
com.hugojourdan.ColorFlow = {
"0" = 0;
"1" = 0;
"10" = 0;
"11" = 0;
"2" = 0;
"3" = 0;
"4" = 0;
"5" = 0;
"6" = 0;
"7" = 0;
"8" = 0;
"9" = 0;
};
};
width = 556;
},
{
layerId = m003;
shapes = (
{
closed = 1;
nodes = (
(50,100,l),
(155,100,l),
(155,800,l),
(50,800,l)
);
},
{
closed = 1;
nodes = (
(155,388,l),
(317,388,l),
(317,478,l),
(155,478,l)
);
},
{
closed = 1;
nodes = (
(155,710,l),
(317,710,l),
(317,800,l),
(155,800,l)
);
},
{
closed = 1;
nodes = (
(317,710,l),
(383,710,o),
(441,666,o),
(441,595,c),
(441,525,o),
(384,480,o),
(317,478,c),
(317,388,l),
(436,390,o),
(541,444,o),
(541,595,cs),
(541,746,o),
(436,800,o),
(317,800,c)
);
}
);
userData = {
com.hugojourdan.ColorFlow = {
"0" = 0;
"1" = 0;
"10" = 0;
"11" = 0;
"2" = 0;
"3" = 0;
"4" = 0;
"5" = 0;
"6" = 0;
"7" = 0;
"8" = 0;
"9" = 0;
};
};
width = 571;
},
{
associatedMasterId = m003;
layerId = "DC565858-836A-446C-A2DA-BB744FBB2B33";
name = "19. Jul 23, 15:23";
shapes = (
{
closed = 1;
nodes = (
(40,0,l),
(145,0,l),
(145,700,l),
(40,700,l)
);
},
{
closed = 1;
nodes = (
(145,288,l),
(307,288,l),
(307,378,l),
(145,378,l)
);
},
{
closed = 1;
nodes = (
(145,610,l),
(307,610,l),
(307,700,l),
(145,700,l)
);
},
{
closed = 1;
nodes = (
(307,610,l),
(373,610,o),
(431,569,o),
(431,486,c),
(431,409,o),
(374,380,o),
(307,378,c),
(307,288,l),
(426,290,o),
(531,335,o),
(531,486,cs),
(531,637,o),
(426,700,o),
(307,700,c)
);
}
);
userData = {
com.hugojourdan.ColorFlow = {
"0" = 0;
"1" = 0;
"10" = 0;
"11" = 0;
"2" = 0;
"3" = 0;
"4" = 0;
"5" = 0;
"6" = 0;
"7" = 0;
"8" = 0;
"9" = 0;
};
};
width = 556;
}
);
metricLeft = "=H";
metricRight = "=O";
}
{
glyphname = Q.init.alt;
kernLeft = O;
kernRight = Q;
layers = (
{
layerId = m01;
shapes = (
{
closed = 1;
nodes = (
(544,-8,o),
(676,135,o),
(676,350,cs),
(676,566,o),
(544,710,o),
(347,710,cs),
(154,710,o),
(25,566,o),
(25,350,cs),
(25,135,o),
(154,-8,o),
(347,-8,cs)
);
},
{
closed = 1;
nodes = (
(215,82,o),
(130,181,o),
(130,350,cs),
(130,513,o),
(211,620,o),
(347,620,cs),
(482,620,o),
(571,519,o),
(571,350,cs),
(571,188,o),
(488,82,o),
(347,82,cs)
);
},
{
closed = 1;
nodes = (
(362,168,l),
(606,-75,l),
(676,-3,l),
(432,241,l)
);
}
);
userData = {
com.hugojourdan.ColorFlow = {
"0" = 0;
"1" = 0;
"10" = 0;
"11" = 0;
"2" = 0;
"3" = 0;
"4" = 0;
"5" = 0;
"6" = 0;
"7" = 0;
"8" = 0;
"9" = 0;
};
};
width = 716;
},
{
layerId = m002;
shapes = (
{
closed = 1;
nodes = (
(546,168,o),
(678,403,o),
(678,618,cs),
(678,834,o),
(546,886,o),
(349,747,cs),
(156,613,o),
(27,378,o),
(27,162,cs),
(27,-53,o),
(156,-105,o),
(349,29,cs)
);
},
{
closed = 1;
nodes = (
(217,27,o),
(132,66,o),
(132,235,cs),
(132,398,o),
(213,563,o),
(349,657,cs),
(484,752,o),
(573,714,o),
(573,545,cs),
(573,383,o),
(490,219,o),
(349,119,cs)
);
},
{
closed = 1;
nodes = (
(364,216,l),
(608,144,l),
(678,265,l),
(434,338,l)
);
}
);
userData = {
com.hugojourdan.ColorFlow = {
"0" = 0;
"1" = 0;
"10" = 0;
"11" = 0;
"2" = 0;
"3" = 0;
"4" = 0;
"5" = 0;
"6" = 0;
"7" = 0;
"8" = 0;
"9" = 0;
};
};
width = 718;
},
{
layerId = m003;
shapes = (
{
closed = 1;
nodes = (
(574,-208,o),
(706,-65,o),
(706,150,cs),
(706,366,o),
(574,510,o),
(377,510,cs),
(184,510,o),
(55,366,o),
(55,150,cs),
(55,-65,o),
(184,-208,o),
(377,-208,cs)
);
},
{
closed = 1;
nodes = (
(245,-118,o),
(160,-19,o),
(160,150,cs),
(160,313,o),
(241,420,o),
(377,420,cs),
(512,420,o),
(601,319,o),
(601,150,cs),
(601,-12,o),
(518,-118,o),
(377,-118,cs)
);
},
{
closed = 1;
nodes = (
(392,-32,l),
(636,-275,l),
(706,-203,l),
(462,41,l)
);
}
);
userData = {
com.hugojourdan.ColorFlow = {
"0" = 0;
"1" = 0;
"10" = 0;
"11" = 0;
"2" = 0;
"3" = 0;
"4" = 0;
"5" = 0;
"6" = 0;
"7" = 0;
"8" = 0;
"9" = 0;
};
};
width = 780;
}
);
metricRight = "=O";
}
{
glyphname = Q.init;
kernLeft = O;
kernRight = Q;
layers = (
{
layerId = m01;
shapes = (
{
closed = 1;
nodes = (
(544,-8,o),
(676,135,o),
(676,350,cs),
(676,566,o),
(544,710,o),
(347,710,cs),
(154,710,o),
(25,566,o),
(25,350,cs),
(25,135,o),
(154,-8,o),
(347,-8,cs)
);
},
{
closed = 1;
nodes = (
(215,82,o),
(130,181,o),
(130,350,cs),
(130,513,o),
(211,620,o),
(347,620,cs),
(482,620,o),
(571,519,o),
(571,350,cs),
(571,188,o),
(488,82,o),
(347,82,cs)
);
},
{
closed = 1;
nodes = (
(362,168,l),
(606,-75,l),
(676,-3,l),
(432,241,l)
);
}
);
userData = {
com.hugojourdan.ColorFlow = {
"0" = 0;
"1" = 0;
"10" = 0;
"11" = 0;
"2" = 0;
"3" = 0;
"4" = 0;
"5" = 0;
"6" = 0;
"7" = 0;
"8" = 0;
"9" = 0;
};
};
width = 701;
},
{
layerId = m002;
shapes = (
{
closed = 1;
nodes = (
(543,-103,o),
(675,-53,o),
(675,162,cs),
(675,378,o),
(543,615,o),
(346,752,cs),
(153,888,o),
(24,834,o),
(24,618,cs),
(24,403,o),
(153,170,o),
(346,34,cs)
);
},
{
closed = 1;
nodes = (
(214,217,o),
(129,375,o),
(129,544,cs),
(129,707,o),
(210,758,o),
(346,662,cs),
(481,568,o),
(570,405,o),
(570,236,cs),
(570,74,o),
(487,26,o),
(346,124,cs)
);
},
{
closed = 1;
nodes = (
(361,200,l),
(605,-214,l),
(675,-191,l),
(431,224,l)
);
}
);
userData = {
com.hugojourdan.ColorFlow = {
"0" = 0;
"1" = 0;
"10" = 0;
"11" = 0;
"2" = 0;
"3" = 0;
"4" = 0;
"5" = 0;
"6" = 0;
"7" = 0;
"8" = 0;
"9" = 0;
};
};
width = 718;
},
{
layerId = m003;
shapes = (
{
closed = 1;
nodes = (
(574,92,o),
(706,235,o),
(706,450,cs),
(706,666,o),
(574,810,o),
(377,810,cs),
(184,810,o),
(55,666,o),
(55,450,cs),
(55,235,o),
(184,92,o),
(377,92,cs)
);
},
{
closed = 1;
nodes = (
(245,182,o),
(160,281,o),
(160,450,cs),
(160,613,o),
(241,720,o),
(377,720,cs),
(512,720,o),
(601,619,o),
(601,450,cs),
(601,288,o),
(518,182,o),
(377,182,cs)
);
},
{
closed = 1;
nodes = (
(392,268,l),
(636,25,l),
(706,97,l),
(462,341,l)
);
}
);
userData = {
com.hugojourdan.ColorFlow = {
"0" = 0;
"1" = 0;
"10" = 0;
"11" = 0;
"2" = 0;
"3" = 0;
"4" = 0;
"5" = 0;
"6" = 0;
"7" = 0;
"8" = 0;
"9" = 0;
};
};
width = 736;
}
);
metricRight = "=O";
}
{
glyphname = R.init.alt;
kernLeft = H;
kernRight = R;
layers = (
{
layerId = m01;
shapes = (
{
closed = 1;
nodes = (
(56,0,l),
(161,0,l),
(161,700,l),
(56,700,l)
);
},
{
closed = 1;
nodes = (
(161,288,l),
(323,288,l),
(323,378,l),
(161,378,l)
);
},
{
closed = 1;
nodes = (
(161,610,l),
(323,610,l),
(323,700,l),
(161,700,l)
);
},
{
closed = 1;
nodes = (
(323,610,l),
(389,610,o),
(447,569,o),
(447,486,c),
(447,409,o),
(390,380,o),
(323,378,c),
(323,288,l),
(442,290,o),
(547,335,o),
(547,486,cs),
(547,637,o),
(442,700,o),
(323,700,c)
);
},
{
closed = 1;
nodes = (
(423,1,l),
(548,0,l),
(365,305,l),
(250,306,l)
);
}
);
userData = {
com.hugojourdan.ColorFlow = {
"0" = 0;
"1" = 0;
"10" = 0;
"11" = 0;
"2" = 0;
"3" = 0;
"4" = 0;
"5" = 0;
"6" = 0;
"7" = 0;
"8" = 0;
"9" = 0;
};
};
width = 588;
},
{
layerId = m002;
shapes = (
{
closed = 1;
nodes = (
(56,-203,l),
(161,-128,l),
(161,572,l),
(56,497,l)
);
},
{
closed = 1;
nodes = (
(161,160,l),
(323,272,l),
(323,362,l),
(161,250,l)
);
},
{
closed = 1;
nodes = (
(161,482,l),
(323,594,l),
(323,684,l),
(161,572,l)
);
},
{
closed = 1;
nodes = (
(323,594,l),
(389,641,o),
(447,640,o),
(447,557,c),
(447,480,o),
(390,411,o),
(323,362,c),
(323,272,l),
(442,358,o),
(547,476,o),
(547,627,cs),
(547,778,o),
(442,768,o),
(323,684,c)
);
},
{
closed = 1;
nodes = (
(423,55,l),
(548,143,l),
(365,319,l),
(250,239,l)
);
}
);
userData = {
com.hugojourdan.ColorFlow = {
"0" = 0;
"1" = 0;
"10" = 0;
"11" = 0;
"2" = 0;
"3" = 0;
"4" = 0;
"5" = 0;
"6" = 0;
"7" = 0;
"8" = 0;
"9" = 0;
};
};
width = 588;
},
{
layerId = m003;
shapes = (
{
closed = 1;
nodes = (
(90,-200,l),
(195,-200,l),
(195,500,l),
(90,500,l)
);
},
{
closed = 1;
nodes = (
(195,88,l),
(357,88,l),
(357,178,l),
(195,178,l)
);
},
{
closed = 1;
nodes = (
(195,410,l),
(357,410,l),
(357,500,l),
(195,500,l)
);
},
{
closed = 1;
nodes = (
(357,410,l),
(423,410,o),
(481,369,o),
(481,286,c),
(481,209,o),
(424,180,o),
(357,178,c),
(357,88,l),
(476,90,o),
(581,135,o),
(581,286,cs),
(581,437,o),
(476,500,o),
(357,500,c)
);
},
{
closed = 1;
nodes = (
(457,-200,l),
(582,-200,l),
(399,105,l),
(284,106,l)
);
}
);
userData = {
com.hugojourdan.ColorFlow = {
"0" = 0;
"1" = 0;
"10" = 0;
"11" = 0;
"2" = 0;
"3" = 0;
"4" = 0;
"5" = 0;
"6" = 0;
"7" = 0;
"8" = 0;
"9" = 0;
};
};
width = 656;
}
);
metricLeft = "=P";
metricRight = "=P";
}
